<svg id="svg" version="1.1" xmlns="http://www.w3.org/2000/svg" xmlns:xlink="http://www.w3.org/1999/xlink" width="400" height="400" viewBox="0, 0, 400,400"><g id="svgg"><path id="path1" d="M196.103 26.175 C 194.632 26.988,193.600 28.079,193.600 28.819 C 193.600 29.202,193.330 29.618,193.000 29.745 C 192.546 29.919,192.400 30.653,192.400 32.759 C 192.400 34.700,192.582 35.724,193.000 36.143 C 193.330 36.473,193.600 36.859,193.600 37.000 C 193.600 37.415,194.705 38.400,195.171 38.400 C 195.407 38.400,195.600 38.670,195.600 39.000 C 195.600 39.373,195.978 39.600,196.600 39.600 C 197.150 39.600,197.600 39.767,197.600 39.971 C 197.600 40.175,197.902 40.400,198.271 40.471 C 198.900 40.592,198.900 40.643,198.271 41.271 C 197.654 41.889,197.600 44.571,197.600 74.771 L 197.600 107.600 200.000 107.600 L 202.400 107.600 202.400 74.000 C 202.400 44.400,202.471 40.400,203.000 40.400 C 203.330 40.400,203.600 40.220,203.600 40.000 C 203.600 39.780,203.907 39.600,204.283 39.600 C 206.864 39.600,209.359 29.450,207.000 28.545 C 206.670 28.418,206.400 27.977,206.400 27.565 C 206.400 27.099,206.022 26.720,205.400 26.564 C 204.850 26.426,204.400 26.153,204.400 25.957 C 204.400 25.412,197.136 25.603,196.103 26.175 M152.800 30.000 C 152.800 30.220,152.288 30.400,151.662 30.400 C 150.351 30.400,148.400 31.903,148.400 32.913 C 148.400 33.291,148.220 33.600,148.000 33.600 C 147.760 33.600,147.600 35.200,147.600 37.600 C 147.600 40.000,147.760 41.600,148.000 41.600 C 148.220 41.600,148.400 41.920,148.400 42.311 C 148.400 43.214,149.765 44.400,150.805 44.400 C 151.245 44.400,151.600 44.668,151.600 45.000 C 151.600 45.330,151.825 45.600,152.100 45.600 C 152.497 45.600,152.578 51.851,152.493 75.810 C 152.398 102.523,152.455 106.046,152.993 106.253 C 153.327 106.381,153.600 106.746,153.600 107.065 C 153.600 107.506,154.052 107.615,155.500 107.522 L 157.400 107.400 157.519 104.900 C 157.585 103.525,157.810 102.400,158.019 102.400 C 158.239 102.400,158.400 100.373,158.400 97.600 C 158.400 94.667,158.244 92.800,158.000 92.800 C 157.738 92.800,157.600 84.873,157.600 69.820 C 157.600 48.967,157.539 46.806,156.946 46.474 C 156.220 46.067,157.451 44.414,158.500 44.387 C 159.200 44.369,160.400 43.403,160.400 42.856 C 160.400 42.605,160.670 42.400,161.000 42.400 C 161.373 42.400,161.600 42.022,161.600 41.400 C 161.600 40.850,161.780 40.400,162.000 40.400 C 162.234 40.400,162.400 39.060,162.400 37.181 L 162.400 33.962 160.644 32.181 C 159.313 30.831,158.587 30.400,157.644 30.400 C 156.960 30.400,156.400 30.220,156.400 30.000 C 156.400 29.780,155.590 29.600,154.600 29.600 C 153.610 29.600,152.800 29.780,152.800 30.000 M242.600 30.000 C 242.464 30.220,242.074 30.400,241.732 30.400 C 241.391 30.400,240.322 31.201,239.356 32.181 L 237.600 33.962 237.600 37.610 C 237.600 41.206,237.992 42.400,239.171 42.400 C 239.407 42.400,239.600 42.593,239.600 42.829 C 239.600 43.466,240.653 44.400,241.371 44.400 C 243.014 44.400,244.116 46.741,243.000 47.857 C 242.493 48.364,242.400 50.343,242.400 60.629 C 242.400 68.476,242.258 72.800,242.000 72.800 C 241.739 72.800,241.600 78.867,241.600 90.200 L 241.600 107.600 244.000 107.600 L 246.400 107.600 246.400 106.171 C 246.400 105.386,246.672 104.471,247.005 104.138 C 247.534 103.609,247.609 99.886,247.600 74.466 C 247.594 58.480,247.592 45.175,247.595 44.900 C 247.598 44.625,248.050 44.400,248.600 44.400 C 249.150 44.400,249.600 44.220,249.600 44.000 C 249.600 43.780,249.839 43.600,250.130 43.600 C 250.866 43.600,252.400 41.892,252.400 41.074 C 252.400 40.703,252.670 40.400,253.000 40.400 C 253.476 40.400,253.600 39.821,253.600 37.587 C 253.600 35.456,253.455 34.719,253.000 34.545 C 252.670 34.418,252.394 34.019,252.387 33.657 C 252.372 32.855,251.464 31.600,250.899 31.600 C 250.671 31.600,250.382 31.330,250.255 31.000 C 250.129 30.670,249.659 30.400,249.213 30.400 C 248.766 30.400,248.400 30.220,248.400 30.000 C 248.400 29.772,247.208 29.600,245.624 29.600 C 244.097 29.600,242.736 29.780,242.600 30.000 M173.600 31.000 C 173.600 31.338,173.242 31.600,172.781 31.600 C 172.331 31.600,171.161 32.390,170.181 33.356 L 168.400 35.112 168.400 38.727 C 168.400 41.408,168.555 42.498,169.000 42.943 C 169.330 43.273,169.600 43.646,169.600 43.771 C 169.600 44.325,171.273 45.600,172.000 45.600 C 172.440 45.600,172.800 45.780,172.800 46.000 C 172.800 46.220,173.045 46.400,173.345 46.400 C 173.989 46.400,173.740 48.432,173.040 48.885 C 172.730 49.087,172.568 56.553,172.491 74.274 C 172.423 89.944,172.235 99.525,171.991 99.769 C 171.479 100.281,171.485 103.082,172.000 103.400 C 172.220 103.536,172.400 104.267,172.400 105.024 C 172.400 105.933,172.589 106.400,172.957 106.400 C 173.264 106.400,173.618 106.670,173.745 107.000 C 173.879 107.351,174.479 107.600,175.187 107.600 C 175.999 107.600,176.400 107.401,176.400 107.000 C 176.400 106.670,176.670 106.400,177.000 106.400 C 177.504 106.400,177.600 105.536,177.600 101.024 C 177.600 97.871,177.765 95.545,178.000 95.400 C 178.259 95.240,178.400 87.004,178.400 72.000 C 178.400 56.996,178.259 48.760,178.000 48.600 C 177.241 48.131,177.537 46.400,178.376 46.400 C 178.803 46.400,179.264 46.220,179.400 46.000 C 179.536 45.780,179.925 45.600,180.264 45.600 C 181.401 45.600,183.600 42.990,183.600 41.640 C 183.600 40.958,183.780 40.400,184.000 40.400 C 184.220 40.400,184.400 39.770,184.400 39.000 C 184.400 38.230,184.220 37.600,184.000 37.600 C 183.780 37.600,183.600 37.067,183.600 36.415 C 183.600 34.979,180.537 31.600,179.236 31.600 C 178.760 31.600,178.400 31.342,178.400 31.000 C 178.400 30.533,177.867 30.400,176.000 30.400 C 174.133 30.400,173.600 30.533,173.600 31.000 M201.600 31.000 C 201.600 31.330,201.780 31.600,202.000 31.600 C 202.593 31.600,202.485 33.172,201.848 33.809 C 199.650 36.007,196.554 33.857,198.700 31.624 C 199.897 30.378,201.600 30.012,201.600 31.000 M221.745 31.000 C 221.618 31.330,221.165 31.600,220.738 31.600 C 220.311 31.600,219.161 32.390,218.181 33.356 L 216.400 35.112 216.400 38.906 C 216.400 42.726,217.723 45.600,219.483 45.600 C 219.717 45.600,220.334 45.825,220.854 46.100 L 221.800 46.600 221.697 72.777 C 221.630 89.960,221.733 99.093,221.997 99.357 C 222.219 99.579,222.400 101.254,222.400 103.080 L 222.400 106.400 225.400 106.400 L 228.400 106.400 228.400 103.600 C 228.400 102.000,228.229 100.800,228.000 100.800 C 227.739 100.800,227.600 94.596,227.600 82.987 C 227.600 67.523,227.521 65.145,227.000 64.945 C 226.491 64.750,226.400 63.354,226.400 55.791 C 226.400 49.026,226.279 46.818,225.900 46.665 C 225.625 46.554,225.895 46.449,226.500 46.432 C 227.105 46.414,227.600 46.220,227.600 46.000 C 227.600 45.780,227.920 45.600,228.311 45.600 C 229.214 45.600,230.400 44.235,230.400 43.195 C 230.400 42.755,230.668 42.400,231.000 42.400 C 231.489 42.400,231.600 41.735,231.600 38.815 L 231.600 35.231 229.836 33.415 C 228.865 32.417,227.715 31.600,227.278 31.600 C 226.842 31.600,226.382 31.330,226.255 31.000 C 226.093 30.576,225.431 30.400,224.000 30.400 C 222.569 30.400,221.907 30.576,221.745 31.000 M155.600 34.829 C 155.600 35.382,156.618 36.400,157.171 36.400 C 157.822 36.400,157.684 37.482,157.000 37.745 C 156.670 37.871,156.400 38.341,156.400 38.787 C 156.400 39.891,154.299 39.899,153.200 38.800 C 152.259 37.859,152.138 36.400,153.000 36.400 C 153.373 36.400,153.600 36.022,153.600 35.400 C 153.600 34.600,153.800 34.400,154.600 34.400 C 155.150 34.400,155.600 34.593,155.600 34.829 M246.627 36.500 C 246.781 36.995,247.085 37.514,247.301 37.653 C 247.868 38.017,246.160 39.600,245.200 39.600 C 244.760 39.600,244.400 39.423,244.400 39.208 C 244.400 38.992,243.950 38.702,243.400 38.564 C 242.267 38.280,241.920 36.400,243.000 36.400 C 243.330 36.400,243.600 36.220,243.600 36.000 C 243.600 35.113,246.335 35.565,246.627 36.500 M177.600 37.000 C 177.600 37.330,177.780 37.600,178.000 37.600 C 178.220 37.600,178.400 37.870,178.400 38.200 C 178.400 38.530,178.220 38.800,178.000 38.800 C 177.780 38.800,177.600 39.160,177.600 39.600 C 177.600 40.222,177.333 40.400,176.400 40.400 C 175.740 40.400,175.200 40.220,175.200 40.000 C 175.200 39.780,174.840 39.600,174.400 39.600 C 173.733 39.600,173.600 39.333,173.600 38.000 L 173.600 36.400 175.600 36.400 C 177.111 36.400,177.600 36.547,177.600 37.000 M225.600 37.000 C 225.600 37.330,225.780 37.600,226.000 37.600 C 226.220 37.600,226.400 37.870,226.400 38.200 C 226.400 38.530,226.220 38.800,226.000 38.800 C 225.780 38.800,225.600 39.141,225.600 39.557 C 225.600 39.974,225.340 40.414,225.023 40.536 C 224.242 40.835,221.600 40.382,221.600 39.948 C 221.600 39.756,221.330 39.600,221.000 39.600 C 220.627 39.600,220.400 39.222,220.400 38.600 C 220.400 37.862,220.612 37.600,221.213 37.600 C 221.659 37.600,222.129 37.330,222.255 37.000 C 222.405 36.609,223.028 36.400,224.043 36.400 C 225.160 36.400,225.600 36.569,225.600 37.000 M55.600 46.000 C 55.600 46.220,55.150 46.400,54.600 46.400 C 53.978 46.400,53.600 46.627,53.600 47.000 C 53.600 47.373,53.222 47.600,52.600 47.600 C 51.800 47.600,51.600 47.800,51.600 48.600 C 51.600 49.222,51.373 49.600,51.000 49.600 C 50.670 49.600,50.400 49.870,50.400 50.200 C 50.400 50.530,50.220 50.800,50.000 50.800 C 49.771 50.800,49.600 52.000,49.600 53.600 C 49.600 55.200,49.771 56.400,50.000 56.400 C 50.220 56.400,50.403 56.715,50.407 57.100 C 50.415 57.964,52.083 59.600,52.956 59.600 C 53.310 59.600,53.600 59.780,53.600 60.000 C 53.600 60.231,54.867 60.400,56.600 60.400 C 58.333 60.400,59.600 60.231,59.600 60.000 C 59.600 59.780,59.780 59.600,60.000 59.600 C 60.220 59.600,60.400 60.230,60.400 61.000 C 60.400 61.978,60.581 62.400,61.000 62.400 C 61.334 62.400,61.600 62.756,61.600 63.204 C 61.600 63.694,63.321 65.733,66.000 68.418 C 68.420 70.843,70.400 73.001,70.400 73.214 C 70.400 73.426,70.593 73.600,70.829 73.600 C 71.382 73.600,72.400 74.618,72.400 75.171 C 72.400 75.407,72.593 75.600,72.829 75.600 C 73.382 75.600,74.400 76.618,74.400 77.171 C 74.400 77.407,74.593 77.600,74.829 77.600 C 75.382 77.600,76.400 78.618,76.400 79.171 C 76.400 79.407,76.593 79.600,76.829 79.600 C 77.382 79.600,78.400 80.618,78.400 81.171 C 78.400 81.407,78.593 81.600,78.829 81.600 C 79.382 81.600,80.400 82.618,80.400 83.171 C 80.400 83.407,80.593 83.600,80.829 83.600 C 81.382 83.600,82.400 84.618,82.400 85.171 C 82.400 85.407,82.593 85.600,82.829 85.600 C 83.382 85.600,84.400 86.618,84.400 87.171 C 84.400 87.407,84.593 87.600,84.829 87.600 C 85.382 87.600,86.400 88.618,86.400 89.171 C 86.400 89.407,86.670 89.600,87.000 89.600 C 87.330 89.600,87.600 89.870,87.600 90.200 C 87.600 90.975,89.025 92.400,89.800 92.400 C 90.130 92.400,90.400 92.670,90.400 93.000 C 90.400 93.330,90.593 93.600,90.829 93.600 C 91.382 93.600,92.400 94.618,92.400 95.171 C 92.400 95.407,92.593 95.600,92.829 95.600 C 93.382 95.600,94.400 96.618,94.400 97.171 C 94.400 97.407,94.593 97.600,94.829 97.600 C 95.064 97.600,95.514 97.857,95.829 98.171 C 96.143 98.486,96.400 98.936,96.400 99.171 C 96.400 99.407,96.593 99.600,96.829 99.600 C 97.064 99.600,97.514 99.857,97.829 100.171 C 98.143 100.486,98.400 100.936,98.400 101.171 C 98.400 101.407,98.593 101.600,98.829 101.600 C 99.382 101.600,100.400 102.618,100.400 103.171 C 100.400 103.407,100.593 103.600,100.829 103.600 C 101.064 103.600,101.514 103.857,101.829 104.171 C 102.143 104.486,102.400 104.936,102.400 105.171 C 102.400 105.407,102.593 105.600,102.829 105.600 C 103.064 105.600,103.514 105.857,103.829 106.171 C 104.143 106.486,104.400 106.936,104.400 107.171 C 104.400 107.407,104.592 107.600,104.827 107.600 C 105.062 107.600,105.848 108.230,106.574 109.000 C 107.779 110.278,108.091 110.400,110.147 110.400 L 112.400 110.400 112.400 109.000 C 112.400 108.230,112.220 107.600,112.000 107.600 C 111.780 107.600,111.600 107.150,111.600 106.600 C 111.600 105.978,111.373 105.600,111.000 105.600 C 110.670 105.600,110.400 105.407,110.400 105.171 C 110.400 104.936,110.143 104.486,109.829 104.171 C 109.514 103.857,109.064 103.600,108.829 103.600 C 108.593 103.600,108.400 103.407,108.400 103.171 C 108.400 102.618,107.382 101.600,106.829 101.600 C 106.593 101.600,106.400 101.407,106.400 101.171 C 106.400 100.618,105.382 99.600,104.829 99.600 C 104.593 99.600,104.400 99.407,104.400 99.171 C 104.400 98.618,103.382 97.600,102.829 97.600 C 102.593 97.600,102.400 97.407,102.400 97.171 C 102.400 96.618,101.382 95.600,100.829 95.600 C 100.593 95.600,100.400 95.407,100.400 95.171 C 100.400 94.618,99.382 93.600,98.829 93.600 C 98.593 93.600,98.400 93.407,98.400 93.171 C 98.400 92.618,97.382 91.600,96.829 91.600 C 96.593 91.600,96.400 91.407,96.400 91.171 C 96.400 90.618,95.382 89.600,94.829 89.600 C 94.593 89.600,94.400 89.407,94.400 89.171 C 94.400 88.618,93.382 87.600,92.829 87.600 C 92.593 87.600,92.400 87.407,92.400 87.171 C 92.400 86.618,91.382 85.600,90.829 85.600 C 90.593 85.600,90.400 85.407,90.400 85.171 C 90.400 84.618,89.382 83.600,88.829 83.600 C 88.593 83.600,88.400 83.407,88.400 83.171 C 88.400 82.618,87.382 81.600,86.829 81.600 C 86.593 81.600,86.400 81.407,86.400 81.171 C 86.400 80.618,85.382 79.600,84.829 79.600 C 84.593 79.600,84.400 79.297,84.400 78.927 C 84.400 78.017,71.744 65.600,70.817 65.600 C 70.588 65.600,70.400 65.407,70.400 65.171 C 70.400 64.936,70.143 64.486,69.829 64.171 C 69.514 63.857,69.064 63.600,68.829 63.600 C 68.593 63.600,68.400 63.407,68.400 63.171 C 68.400 62.697,67.413 61.600,66.986 61.600 C 66.837 61.600,66.361 61.150,65.929 60.600 C 65.363 59.881,64.757 59.600,63.771 59.600 C 62.819 59.600,62.400 59.417,62.400 59.000 C 62.400 58.670,62.593 58.400,62.829 58.400 C 64.008 58.400,64.400 57.206,64.400 53.610 L 64.400 49.962 62.644 48.181 C 61.678 47.201,60.609 46.400,60.268 46.400 C 59.926 46.400,59.536 46.220,59.400 46.000 C 59.264 45.780,58.353 45.600,57.376 45.600 C 56.399 45.600,55.600 45.780,55.600 46.000 M342.800 46.000 C 342.800 46.220,342.164 46.400,341.387 46.400 C 340.501 46.400,339.889 46.623,339.745 47.000 C 339.618 47.330,339.341 47.600,339.129 47.600 C 338.630 47.600,337.600 48.630,337.600 49.129 C 337.600 49.341,337.330 49.618,337.000 49.745 C 336.540 49.921,336.400 50.680,336.400 53.000 C 336.400 55.320,336.540 56.079,337.000 56.255 C 338.185 56.710,337.000 59.600,335.628 59.600 C 335.424 59.600,334.589 60.230,333.773 61.000 C 332.956 61.770,332.133 62.400,331.944 62.400 C 331.755 62.400,331.600 62.670,331.600 63.000 C 331.600 63.330,331.407 63.600,331.171 63.600 C 330.618 63.600,329.600 64.618,329.600 65.171 C 329.600 65.407,329.407 65.600,329.171 65.600 C 328.618 65.600,327.600 66.618,327.600 67.171 C 327.600 67.407,327.407 67.600,327.171 67.600 C 326.618 67.600,325.600 68.618,325.600 69.171 C 325.600 69.407,325.375 69.603,325.100 69.606 C 324.128 69.617,289.600 103.287,289.600 104.224 C 289.600 104.352,289.375 104.708,289.100 105.015 C 287.913 106.338,287.600 106.791,287.600 107.183 C 287.600 107.412,287.330 107.600,287.000 107.600 C 286.581 107.600,286.400 108.022,286.400 109.000 C 286.400 109.978,286.581 110.400,287.000 110.400 C 287.330 110.400,287.600 110.670,287.600 111.000 C 287.600 111.373,287.978 111.600,288.600 111.600 C 289.222 111.600,289.600 111.373,289.600 111.000 C 289.600 110.660,289.959 110.400,290.429 110.400 C 291.314 110.400,292.400 109.534,292.400 108.829 C 292.400 108.593,292.670 108.400,293.000 108.400 C 293.330 108.400,293.600 108.220,293.600 108.000 C 293.600 107.780,293.857 107.600,294.172 107.600 C 294.486 107.600,296.569 105.800,298.800 103.600 C 301.031 101.400,303.024 99.600,303.228 99.600 C 303.433 99.600,303.600 99.407,303.600 99.171 C 303.600 98.618,304.618 97.600,305.171 97.600 C 305.407 97.600,305.600 97.407,305.600 97.171 C 305.600 96.618,306.618 95.600,307.171 95.600 C 307.407 95.600,307.600 95.407,307.600 95.171 C 307.600 94.618,308.618 93.600,309.171 93.600 C 309.407 93.600,309.600 93.407,309.600 93.171 C 309.600 92.618,310.618 91.600,311.171 91.600 C 311.407 91.600,311.600 91.407,311.600 91.171 C 311.600 90.618,312.618 89.600,313.171 89.600 C 313.407 89.600,313.600 89.407,313.600 89.171 C 313.600 88.618,314.618 87.600,315.171 87.600 C 315.407 87.600,315.600 87.407,315.600 87.171 C 315.600 86.618,316.618 85.600,317.171 85.600 C 317.407 85.600,317.600 85.407,317.600 85.171 C 317.600 84.618,318.618 83.600,319.171 83.600 C 319.407 83.600,319.600 83.407,319.600 83.171 C 319.600 82.618,320.618 81.600,321.171 81.600 C 321.407 81.600,321.600 81.407,321.600 81.171 C 321.600 80.618,322.618 79.600,323.171 79.600 C 323.407 79.600,323.600 79.407,323.600 79.171 C 323.600 78.618,324.618 77.600,325.171 77.600 C 325.407 77.600,325.600 77.407,325.600 77.171 C 325.600 76.618,326.618 75.600,327.171 75.600 C 327.407 75.600,327.600 75.407,327.600 75.171 C 327.600 74.618,328.618 73.600,329.171 73.600 C 329.407 73.600,329.600 73.407,329.600 73.171 C 329.600 72.618,330.618 71.600,331.171 71.600 C 331.407 71.600,331.600 71.407,331.600 71.171 C 331.600 70.618,332.618 69.600,333.171 69.600 C 333.407 69.600,333.600 69.407,333.600 69.171 C 333.600 68.618,334.618 67.600,335.171 67.600 C 335.407 67.600,335.600 67.407,335.600 67.171 C 335.600 66.577,336.633 65.601,337.271 65.593 C 337.562 65.589,338.224 65.139,338.742 64.593 C 339.260 64.047,339.845 63.600,340.042 63.600 C 340.239 63.600,340.400 63.330,340.400 63.000 C 340.400 62.670,340.670 62.400,341.000 62.400 C 341.330 62.400,341.600 62.220,341.600 62.000 C 341.600 61.780,342.416 61.600,343.413 61.600 C 344.655 61.600,345.298 61.411,345.455 61.000 C 345.597 60.630,346.205 60.400,347.043 60.400 C 347.789 60.400,348.400 60.220,348.400 60.000 C 348.400 59.780,348.670 59.600,349.000 59.600 C 349.330 59.600,349.600 59.330,349.600 59.000 C 349.600 58.670,349.780 58.400,350.000 58.400 C 350.220 58.400,350.400 57.950,350.400 57.400 C 350.400 56.778,350.627 56.400,351.000 56.400 C 351.476 56.400,351.600 55.821,351.600 53.587 C 351.600 51.456,351.455 50.719,351.000 50.545 C 350.670 50.418,350.400 49.961,350.400 49.529 C 350.400 48.679,349.521 47.600,348.829 47.600 C 348.593 47.600,348.400 47.330,348.400 47.000 C 348.400 46.627,348.022 46.400,347.400 46.400 C 346.850 46.400,346.400 46.220,346.400 46.000 C 346.400 45.780,345.590 45.600,344.600 45.600 C 343.610 45.600,342.800 45.780,342.800 46.000 M344.737 51.137 C 345.932 52.332,346.038 53.511,345.053 54.656 L 344.173 55.680 342.886 54.551 C 341.391 53.238,341.128 51.600,342.413 51.600 C 342.859 51.600,343.329 51.330,343.455 51.000 C 343.749 50.235,343.845 50.245,344.737 51.137 M59.600 52.514 C 59.600 53.596,57.845 54.717,56.500 54.494 C 54.397 54.144,55.789 51.639,58.100 51.615 C 59.400 51.602,59.600 51.722,59.600 52.514 M124.300 110.672 C 123.915 110.774,123.600 111.025,123.600 111.229 C 123.600 111.433,122.070 111.600,120.200 111.600 C 118.200 111.600,116.800 111.765,116.800 112.000 C 116.800 112.220,116.164 112.400,115.387 112.400 C 114.501 112.400,113.889 112.623,113.745 113.000 C 113.618 113.330,113.188 113.600,112.788 113.600 C 111.826 113.600,109.600 115.856,109.600 116.831 C 109.600 117.254,109.330 117.600,109.000 117.600 C 108.670 117.600,108.400 117.870,108.400 118.200 C 108.400 118.530,108.220 118.800,108.000 118.800 C 107.780 118.800,107.600 119.141,107.600 119.557 C 107.600 119.974,107.330 120.418,107.000 120.545 C 106.623 120.689,106.400 121.301,106.400 122.187 C 106.400 122.964,106.220 123.600,106.000 123.600 C 105.735 123.600,105.600 150.533,105.600 203.600 C 105.600 256.667,105.735 283.600,106.000 283.600 C 106.220 283.600,106.400 284.230,106.400 285.000 C 106.400 285.978,106.581 286.400,107.000 286.400 C 107.373 286.400,107.600 286.778,107.600 287.400 C 107.600 287.950,107.780 288.400,108.000 288.400 C 108.220 288.400,108.400 288.666,108.400 288.991 C 108.400 289.828,112.096 293.600,112.917 293.600 C 113.292 293.600,113.600 293.780,113.600 294.000 C 113.600 294.220,114.050 294.400,114.600 294.400 C 115.222 294.400,115.600 294.627,115.600 295.000 C 115.600 295.373,115.978 295.600,116.600 295.600 C 117.150 295.600,117.600 295.780,117.600 296.000 C 117.600 296.251,120.186 296.400,124.557 296.400 C 130.372 296.400,131.552 296.498,131.745 297.000 C 131.879 297.351,132.479 297.600,133.187 297.600 C 133.999 297.600,134.400 297.401,134.400 297.000 C 134.400 296.517,135.017 296.400,137.557 296.400 C 139.995 296.400,140.767 296.537,140.945 297.000 C 141.148 297.530,149.279 297.600,210.787 297.600 C 272.399 297.600,280.400 297.531,280.400 297.000 C 280.400 296.627,280.778 296.400,281.400 296.400 C 281.950 296.400,282.400 296.220,282.400 296.000 C 282.400 295.780,282.850 295.600,283.400 295.600 C 284.022 295.600,284.400 295.373,284.400 295.000 C 284.400 294.670,284.593 294.400,284.829 294.400 C 285.064 294.400,285.514 294.143,285.829 293.829 C 286.143 293.514,286.400 293.064,286.400 292.829 C 286.400 292.593,286.593 292.400,286.829 292.400 C 287.064 292.400,287.514 292.143,287.829 291.829 C 288.143 291.514,288.400 291.064,288.400 290.829 C 288.400 290.593,288.605 290.400,288.856 290.400 C 289.457 290.400,290.371 289.172,290.387 288.343 C 290.394 287.981,290.670 287.582,291.000 287.455 C 291.330 287.329,291.600 286.870,291.600 286.436 C 291.600 286.002,291.780 285.536,292.000 285.400 C 292.265 285.237,292.400 257.796,292.400 204.376 C 292.400 150.792,292.265 123.600,292.000 123.600 C 291.780 123.600,291.600 123.150,291.600 122.600 C 291.600 121.978,291.373 121.600,291.000 121.600 C 290.627 121.600,290.400 121.222,290.400 120.600 C 290.400 120.050,290.220 119.600,290.000 119.600 C 289.780 119.600,289.600 119.330,289.600 119.000 C 289.600 118.670,289.330 118.400,289.000 118.400 C 288.670 118.400,288.400 118.106,288.400 117.747 C 288.400 117.011,285.799 114.400,285.066 114.400 C 284.804 114.400,284.252 113.950,283.839 113.400 C 283.426 112.850,282.753 112.400,282.344 112.400 C 281.935 112.400,281.600 112.220,281.600 112.000 C 281.600 111.737,270.478 111.600,249.033 111.600 C 223.336 111.600,216.432 111.495,216.300 111.100 C 216.136 110.608,126.106 110.189,124.300 110.672 M273.600 118.000 C 273.600 118.220,274.481 118.400,275.557 118.400 C 276.928 118.400,277.583 118.580,277.745 119.000 C 277.871 119.330,278.341 119.600,278.787 119.600 C 279.234 119.600,279.600 119.780,279.600 120.000 C 279.600 120.220,280.050 120.400,280.600 120.400 C 281.295 120.400,281.600 120.619,281.600 121.117 C 281.600 121.511,282.230 122.501,283.000 123.318 C 283.770 124.134,284.400 125.077,284.400 125.413 C 284.400 125.750,284.670 126.129,285.000 126.255 C 285.330 126.382,285.600 126.916,285.600 127.443 C 285.600 127.969,285.780 128.400,286.000 128.400 C 286.552 128.400,286.552 181.459,286.000 181.800 C 285.737 181.963,285.600 198.726,285.600 230.790 C 285.600 267.197,285.483 279.572,285.140 279.687 C 284.886 279.771,284.594 280.866,284.490 282.120 C 284.386 283.374,284.143 284.400,283.950 284.400 C 283.758 284.400,283.600 284.608,283.600 284.861 C 283.600 285.583,280.353 288.400,279.521 288.400 C 279.111 288.400,278.671 288.670,278.545 289.000 C 278.418 289.330,277.984 289.600,277.581 289.600 C 277.177 289.600,276.736 289.780,276.600 290.000 C 276.437 290.264,250.129 290.400,198.976 290.400 C 147.659 290.400,121.600 290.265,121.600 290.000 C 121.600 289.780,120.880 289.600,120.000 289.600 C 119.120 289.600,118.400 289.407,118.400 289.171 C 118.400 288.618,117.382 287.600,116.829 287.600 C 116.593 287.600,116.400 287.255,116.400 286.834 C 116.400 286.413,115.770 285.420,115.000 284.627 C 114.154 283.756,113.600 282.788,113.600 282.180 C 113.600 281.627,113.330 281.071,113.000 280.945 C 112.472 280.742,112.400 275.975,112.400 241.381 C 112.400 215.590,112.262 201.962,112.000 201.800 C 111.739 201.639,111.600 191.270,111.600 172.000 C 111.600 152.730,111.739 142.361,112.000 142.200 C 112.241 142.051,112.400 139.277,112.400 135.219 C 112.400 129.603,112.500 128.447,113.000 128.255 C 113.330 128.129,113.600 127.659,113.600 127.213 C 113.600 126.766,113.780 126.400,114.000 126.400 C 114.220 126.400,114.400 125.950,114.400 125.400 C 114.400 124.778,114.627 124.400,115.000 124.400 C 115.419 124.400,115.600 123.978,115.600 123.000 C 115.600 122.230,115.780 121.600,116.000 121.600 C 116.220 121.600,116.400 121.330,116.400 121.000 C 116.400 120.627,116.778 120.400,117.400 120.400 C 117.950 120.400,118.400 120.220,118.400 120.000 C 118.400 119.780,118.850 119.600,119.400 119.600 C 120.022 119.600,120.400 119.373,120.400 119.000 C 120.400 118.567,120.844 118.400,122.000 118.400 C 122.880 118.400,123.600 118.220,123.600 118.000 C 123.600 117.735,148.867 117.600,198.600 117.600 C 248.333 117.600,273.600 117.735,273.600 118.000 M129.061 122.996 C 128.728 123.329,127.754 123.600,126.890 123.600 C 125.182 123.600,123.482 124.305,122.111 125.582 C 121.629 126.032,121.074 126.400,120.879 126.400 C 120.215 126.400,118.400 128.223,118.400 128.889 C 118.400 129.254,118.220 129.664,118.000 129.800 C 117.754 129.952,117.600 133.260,117.600 138.390 C 117.600 144.709,117.479 146.774,117.100 146.900 C 116.703 147.032,116.600 159.529,116.600 207.600 C 116.600 255.671,116.703 268.168,117.100 268.300 C 117.448 268.416,117.600 269.509,117.600 271.899 C 117.600 275.196,118.426 278.400,119.277 278.400 C 119.455 278.400,119.600 278.593,119.600 278.829 C 119.600 279.382,120.618 280.400,121.171 280.400 C 121.407 280.400,121.600 280.670,121.600 281.000 C 121.600 281.373,121.978 281.600,122.600 281.600 C 123.150 281.600,123.600 281.780,123.600 282.000 C 123.600 282.220,124.050 282.400,124.600 282.400 C 125.222 282.400,125.600 282.627,125.600 283.000 C 125.600 283.369,125.975 283.600,126.576 283.600 C 127.113 283.600,127.664 283.780,127.800 284.000 C 127.936 284.220,129.457 284.400,131.181 284.400 C 133.597 284.400,134.367 284.537,134.545 285.000 C 134.733 285.491,135.724 285.600,140.000 285.600 C 144.276 285.600,145.267 285.491,145.455 285.000 C 145.582 284.670,146.116 284.400,146.643 284.400 C 147.227 284.400,147.600 284.634,147.600 285.000 C 147.600 285.471,148.150 285.600,150.151 285.600 C 151.931 285.600,152.853 285.419,153.200 285.000 C 153.474 284.670,154.319 284.400,155.078 284.400 C 155.836 284.400,156.727 284.670,157.057 285.000 C 157.524 285.466,158.722 285.600,162.441 285.600 C 166.325 285.600,167.268 285.487,167.455 285.000 C 167.639 284.523,168.494 284.400,171.643 284.400 C 174.014 284.400,175.600 284.240,175.600 284.000 C 175.600 283.780,175.904 283.600,176.275 283.600 C 176.646 283.600,177.605 282.855,178.405 281.943 C 179.206 281.032,180.096 280.365,180.384 280.461 C 180.788 280.596,180.759 280.784,180.254 281.289 C 179.363 282.180,179.432 283.832,180.400 284.800 C 181.344 285.744,182.400 285.849,182.400 285.000 C 182.400 284.670,182.670 284.400,183.000 284.400 C 183.373 284.400,183.600 284.022,183.600 283.400 C 183.600 282.467,183.733 282.400,185.600 282.400 C 186.756 282.400,187.600 282.581,187.600 282.829 C 187.600 284.270,192.287 285.111,193.570 283.900 C 193.994 283.500,194.137 283.500,194.283 283.900 C 194.404 284.228,195.338 284.400,197.000 284.400 C 198.636 284.400,199.616 284.223,199.767 283.900 C 199.953 283.500,200.047 283.500,200.233 283.900 C 200.790 285.093,204.400 284.165,204.400 282.829 C 204.400 282.365,204.380 282.371,206.300 282.269 C 207.472 282.207,207.600 282.310,207.600 283.314 L 207.600 284.429 211.500 284.314 C 215.200 284.206,215.407 284.154,215.528 283.300 C 215.674 282.271,216.205 282.114,216.545 283.000 C 216.671 283.330,217.141 283.600,217.587 283.600 C 218.034 283.600,218.400 283.780,218.400 284.000 C 218.400 284.237,219.867 284.400,222.000 284.400 C 224.133 284.400,225.600 284.237,225.600 284.000 C 225.600 283.780,226.050 283.600,226.600 283.600 C 227.150 283.600,227.600 283.780,227.600 284.000 C 227.600 284.245,229.533 284.400,232.600 284.400 C 237.741 284.400,239.209 283.740,236.919 282.459 C 236.421 282.180,236.265 281.636,236.336 280.427 C 236.444 278.601,235.769 277.600,234.429 277.600 C 233.773 277.600,233.600 277.347,233.600 276.387 C 233.600 275.679,233.351 275.079,233.000 274.945 C 232.670 274.818,232.400 274.464,232.400 274.157 C 232.400 273.787,231.930 273.600,231.000 273.600 C 229.711 273.600,229.600 273.695,229.600 274.800 C 229.600 276.176,228.379 277.600,227.200 277.600 C 226.529 277.600,226.400 277.333,226.400 275.952 L 226.400 274.304 224.000 274.477 C 222.196 274.608,221.600 274.520,221.600 274.126 C 221.600 273.779,221.055 273.600,220.000 273.600 C 219.120 273.600,218.400 273.780,218.400 274.000 C 218.400 274.220,218.061 274.400,217.646 274.400 C 217.231 274.400,216.597 274.850,216.237 275.400 C 215.744 276.152,215.234 276.400,214.178 276.400 C 213.300 276.400,212.689 276.624,212.545 277.000 C 212.418 277.330,211.952 277.600,211.508 277.600 C 210.853 277.600,210.791 277.492,211.178 277.026 C 211.886 276.173,211.552 273.835,210.699 273.674 C 209.792 273.502,207.600 275.691,207.600 276.769 C 207.600 277.241,207.341 277.600,207.000 277.600 C 206.670 277.600,206.400 277.330,206.400 277.000 C 206.400 276.631,206.025 276.400,205.428 276.400 C 204.724 276.400,204.420 276.151,204.328 275.500 C 204.165 274.355,200.962 273.911,200.554 274.977 C 200.206 275.883,199.675 275.740,199.528 274.700 C 199.263 272.835,194.400 273.595,194.400 275.501 C 194.400 275.789,194.665 276.127,194.990 276.251 C 195.889 276.596,194.727 277.600,193.429 277.600 C 192.512 277.600,192.400 277.441,192.400 276.144 C 192.400 275.227,192.141 274.492,191.700 274.157 C 190.880 273.535,188.400 273.417,188.400 274.000 C 188.400 274.220,188.055 274.400,187.633 274.400 C 186.336 274.400,185.600 274.850,185.600 275.643 C 185.600 276.059,185.330 276.400,185.000 276.400 C 184.581 276.400,184.400 275.978,184.400 275.000 C 184.400 273.155,181.024 272.767,180.574 274.560 C 180.261 275.810,177.600 276.310,177.600 275.120 C 177.600 274.724,177.330 274.400,177.000 274.400 C 176.670 274.400,176.400 274.220,176.400 274.000 C 176.400 273.780,175.770 273.600,175.000 273.600 C 174.230 273.600,173.600 273.780,173.600 274.000 C 173.600 274.220,173.161 274.400,172.624 274.400 C 172.087 274.400,171.536 274.220,171.400 274.000 C 171.018 273.381,160.917 273.475,160.665 274.100 C 160.504 274.500,160.457 274.500,160.432 274.100 C 160.373 273.179,157.959 273.527,156.965 274.600 C 156.455 275.150,155.940 275.600,155.819 275.600 C 155.699 275.600,155.600 275.150,155.600 274.600 C 155.600 273.497,152.653 273.040,152.304 274.089 C 152.110 274.671,145.482 274.554,145.267 273.965 C 145.193 273.764,143.618 273.600,141.767 273.600 C 139.639 273.600,138.400 273.442,138.400 273.171 C 138.400 272.479,137.321 271.600,136.471 271.600 C 136.039 271.600,135.582 271.330,135.455 271.000 C 135.329 270.670,134.859 270.400,134.413 270.400 C 133.966 270.400,133.600 270.220,133.600 270.000 C 133.600 269.780,133.330 269.600,133.000 269.600 C 132.670 269.600,132.400 269.330,132.400 269.000 C 132.400 268.670,132.220 268.400,132.000 268.400 C 131.780 268.400,131.600 268.034,131.600 267.587 C 131.600 267.141,131.330 266.671,131.000 266.545 C 130.670 266.418,130.400 265.974,130.400 265.557 C 130.400 265.141,130.220 264.800,130.000 264.800 C 129.743 264.800,129.600 260.810,129.600 253.629 C 129.600 244.232,129.505 242.362,129.000 241.857 C 128.499 241.356,128.400 239.629,128.400 231.400 C 128.400 223.171,128.499 221.444,129.000 220.943 C 129.498 220.444,129.600 218.789,129.600 211.159 C 129.600 203.364,129.509 201.940,129.000 201.745 C 128.479 201.545,128.400 199.103,128.400 183.129 C 128.400 167.319,128.484 164.659,129.000 164.143 C 129.500 163.643,129.600 161.946,129.600 153.971 C 129.600 147.857,129.744 144.400,130.000 144.400 C 130.220 144.400,130.400 143.950,130.400 143.400 C 130.400 142.850,130.605 142.400,130.856 142.400 C 131.471 142.400,132.372 141.165,132.387 140.300 C 132.394 139.915,132.670 139.600,133.000 139.600 C 133.330 139.600,133.600 139.407,133.600 139.171 C 133.600 138.561,134.489 137.753,135.519 137.426 C 136.003 137.272,136.400 136.978,136.400 136.773 C 136.400 136.568,137.120 136.400,138.000 136.400 C 138.880 136.400,139.600 136.220,139.600 136.000 C 139.600 135.746,142.604 135.600,147.813 135.600 C 154.744 135.600,156.061 135.506,156.255 135.000 C 156.458 134.471,162.472 134.400,207.043 134.400 C 251.716 134.400,257.600 134.470,257.600 135.000 C 257.600 135.373,257.978 135.600,258.600 135.600 C 259.150 135.600,259.600 135.780,259.600 136.000 C 259.600 136.220,260.050 136.400,260.600 136.400 C 261.150 136.400,261.600 136.605,261.600 136.856 C 261.600 137.398,262.797 138.369,263.486 138.387 C 264.179 138.405,266.259 140.525,266.582 141.542 C 266.731 142.014,267.022 142.400,267.227 142.400 C 267.432 142.400,267.600 143.030,267.600 143.800 C 267.600 144.570,267.754 145.200,267.942 145.200 C 268.130 145.200,268.378 149.648,268.494 155.084 C 268.637 161.856,268.845 165.015,269.152 165.117 C 269.827 165.342,269.777 181.474,269.100 181.700 C 268.372 181.943,268.368 226.056,269.096 226.299 C 269.469 226.423,269.444 226.613,268.996 227.061 C 268.160 227.897,268.162 233.305,269.000 234.143 C 269.330 234.473,269.600 235.096,269.600 235.529 C 269.600 235.961,269.330 236.418,269.000 236.545 C 268.670 236.671,268.400 237.141,268.400 237.587 C 268.400 238.043,268.664 238.400,269.000 238.400 C 269.814 238.400,269.913 255.429,269.100 255.700 C 268.744 255.818,268.580 257.200,268.530 260.495 L 268.459 265.125 267.030 266.597 C 266.243 267.406,265.600 268.413,265.600 268.834 C 265.600 269.255,265.330 269.600,265.000 269.600 C 264.670 269.600,264.400 269.780,264.400 270.000 C 264.400 270.220,264.167 270.400,263.882 270.400 C 263.598 270.400,262.603 271.110,261.673 271.977 C 260.350 273.212,259.613 273.582,258.291 273.677 C 256.902 273.778,256.578 273.956,256.475 274.677 C 256.381 275.336,256.035 275.584,255.075 275.677 C 254.104 275.771,253.770 276.014,253.672 276.700 C 253.602 277.195,253.287 277.600,252.972 277.600 C 252.657 277.600,252.400 277.870,252.400 278.200 C 252.400 278.530,252.220 278.800,252.000 278.800 C 251.780 278.800,251.600 279.077,251.600 279.416 C 251.600 279.755,250.858 280.738,249.951 281.600 C 247.639 283.800,247.989 284.400,251.587 284.400 L 254.400 284.400 254.400 283.000 C 254.400 282.022,254.581 281.600,255.000 281.600 C 255.330 281.600,255.600 281.330,255.600 281.000 C 255.600 280.627,255.978 280.400,256.600 280.400 C 257.243 280.400,257.600 280.625,257.600 281.030 C 257.600 281.498,257.925 281.627,258.866 281.530 C 259.625 281.452,260.200 281.600,260.300 281.900 C 260.417 282.252,259.920 282.400,258.621 282.400 C 256.538 282.400,256.009 283.025,256.739 284.626 C 257.257 285.762,259.600 286.069,259.600 285.000 C 259.600 284.670,259.761 284.400,259.957 284.400 C 260.154 284.400,260.418 284.670,260.545 285.000 C 260.719 285.455,261.456 285.600,263.587 285.600 C 265.821 285.600,266.400 285.476,266.400 285.000 C 266.400 284.547,266.889 284.400,268.400 284.400 C 269.500 284.400,270.400 284.220,270.400 284.000 C 270.400 283.780,270.850 283.600,271.400 283.600 C 272.022 283.600,272.400 283.373,272.400 283.000 C 272.400 282.627,272.778 282.400,273.400 282.400 C 273.950 282.400,274.400 282.220,274.400 282.000 C 274.400 281.780,274.670 281.600,275.000 281.600 C 275.330 281.600,275.600 281.407,275.600 281.171 C 275.600 280.936,275.857 280.486,276.171 280.171 C 276.486 279.857,276.936 279.600,277.171 279.600 C 277.407 279.600,277.600 279.330,277.600 279.000 C 277.600 278.670,277.780 278.400,278.000 278.400 C 278.220 278.400,278.400 277.950,278.400 277.400 C 278.400 276.778,278.627 276.400,279.000 276.400 C 279.518 276.400,279.600 274.956,279.600 265.800 C 279.600 259.000,279.743 255.200,280.000 255.200 C 280.539 255.200,280.527 248.909,279.987 248.729 C 279.431 248.544,279.444 222.796,280.001 222.239 C 280.552 221.688,280.551 162.800,280.000 162.800 C 279.740 162.800,279.600 157.343,279.600 147.229 C 279.600 133.921,279.513 131.570,279.000 131.057 C 278.670 130.727,278.400 130.264,278.400 130.029 C 278.400 129.793,278.220 129.600,278.000 129.600 C 277.780 129.600,277.600 129.332,277.600 129.005 C 277.600 128.224,273.785 124.400,273.005 124.400 C 272.672 124.400,272.400 124.220,272.400 124.000 C 272.400 123.743,268.478 123.600,261.433 123.600 C 253.016 123.600,250.428 123.484,250.300 123.100 C 250.024 122.273,129.887 122.170,129.061 122.996 M128.400 130.000 C 128.400 130.220,128.670 130.400,129.000 130.400 C 129.373 130.400,129.600 130.778,129.600 131.400 C 129.600 132.364,129.507 132.400,127.000 132.400 C 124.493 132.400,124.400 132.364,124.400 131.400 C 124.400 130.600,124.600 130.400,125.400 130.400 C 125.950 130.400,126.400 130.220,126.400 130.000 C 126.400 129.780,126.850 129.600,127.400 129.600 C 127.950 129.600,128.400 129.780,128.400 130.000 M143.057 139.000 C 142.639 139.418,141.616 139.600,139.691 139.600 C 136.817 139.600,135.600 140.221,135.600 141.689 C 135.600 142.033,135.330 142.418,135.000 142.545 C 134.670 142.671,134.400 143.141,134.400 143.587 C 134.400 144.034,134.220 144.400,134.000 144.400 C 133.780 144.400,133.600 145.043,133.600 145.829 C 133.600 146.614,133.330 147.527,133.000 147.857 C 132.101 148.756,132.088 251.835,132.987 253.024 C 133.428 253.606,133.578 255.026,133.587 258.700 C 133.595 261.692,133.756 263.600,134.000 263.600 C 134.220 263.600,134.400 263.857,134.400 264.171 C 134.400 264.988,137.773 268.400,138.581 268.400 C 138.953 268.400,139.527 268.670,139.857 269.000 C 140.385 269.528,147.498 269.600,199.029 269.600 C 250.825 269.600,257.600 269.531,257.600 269.000 C 257.600 268.627,257.978 268.400,258.600 268.400 C 259.150 268.400,259.600 268.220,259.600 268.000 C 259.600 267.780,259.920 267.600,260.311 267.600 C 261.214 267.600,262.400 266.235,262.400 265.195 C 262.400 264.755,262.668 264.400,263.000 264.400 C 263.373 264.400,263.600 264.022,263.600 263.400 C 263.600 262.850,263.780 262.400,264.000 262.400 C 264.554 262.400,264.554 146.942,264.000 146.600 C 263.780 146.464,263.600 145.638,263.600 144.764 C 263.600 143.720,263.394 143.096,263.000 142.945 C 262.670 142.818,262.400 142.556,262.400 142.362 C 262.400 141.695,261.021 140.400,260.311 140.400 C 259.920 140.400,259.600 140.220,259.600 140.000 C 259.600 139.780,259.195 139.594,258.700 139.587 C 258.205 139.580,257.451 139.310,257.024 138.987 C 255.835 138.088,143.957 138.101,143.057 139.000 M30.545 151.000 C 30.418 151.330,29.961 151.600,29.529 151.600 C 28.702 151.600,27.600 152.474,27.600 153.129 C 27.600 153.341,27.330 153.618,27.000 153.745 C 26.670 153.871,26.400 154.341,26.400 154.787 C 26.400 155.234,26.220 155.600,26.000 155.600 C 25.765 155.600,25.600 157.000,25.600 159.000 C 25.600 161.000,25.765 162.400,26.000 162.400 C 26.220 162.400,26.400 162.642,26.400 162.938 C 26.400 163.759,28.138 165.600,28.913 165.600 C 29.291 165.600,29.600 165.780,29.600 166.000 C 29.600 166.231,30.867 166.400,32.600 166.400 C 34.333 166.400,35.600 166.231,35.600 166.000 C 35.600 165.780,35.907 165.600,36.283 165.600 C 37.030 165.600,39.580 162.903,39.592 162.100 C 39.598 161.704,45.951 161.600,70.000 161.600 L 100.400 161.600 100.400 158.995 L 100.400 156.390 70.000 156.495 L 39.600 156.600 39.600 155.743 C 39.600 155.271,39.330 154.782,39.000 154.655 C 38.670 154.529,38.400 154.087,38.400 153.675 C 38.400 152.790,37.202 151.600,36.311 151.600 C 35.967 151.600,35.582 151.330,35.455 151.000 C 35.289 150.566,34.609 150.400,33.000 150.400 C 31.391 150.400,30.711 150.566,30.545 151.000 M365.745 151.000 C 365.609 151.353,364.996 151.605,364.257 151.613 C 362.953 151.626,361.600 152.384,361.600 153.101 C 361.600 153.329,361.330 153.618,361.000 153.745 C 360.670 153.871,360.400 154.341,360.400 154.787 C 360.400 155.234,360.220 155.600,360.000 155.600 C 359.780 155.600,359.600 156.050,359.600 156.600 C 359.600 157.732,359.030 157.887,358.140 156.998 C 357.612 156.470,353.767 156.408,327.069 156.498 L 296.600 156.600 296.480 158.451 C 296.312 161.046,296.972 161.600,300.229 161.600 C 301.676 161.600,302.800 161.775,302.800 162.000 C 302.800 162.248,305.000 162.400,308.600 162.400 C 312.200 162.400,314.400 162.248,314.400 162.000 C 314.400 161.738,322.000 161.600,336.400 161.600 C 355.689 161.600,358.400 161.526,358.400 161.000 C 358.400 159.668,360.356 160.999,360.387 162.353 C 360.444 164.819,370.400 167.451,370.400 165.000 C 370.400 164.668,370.755 164.400,371.195 164.400 C 372.235 164.400,373.600 163.214,373.600 162.311 C 373.600 161.920,373.780 161.600,374.000 161.600 C 375.580 161.600,373.983 153.115,372.300 152.572 C 371.915 152.448,371.600 152.178,371.600 151.973 C 371.600 151.768,370.880 151.600,370.000 151.600 C 368.844 151.600,368.400 151.433,368.400 151.000 C 368.400 150.599,367.999 150.400,367.187 150.400 C 366.479 150.400,365.879 150.649,365.745 151.000 M368.413 156.814 C 369.678 158.107,369.992 159.600,369.000 159.600 C 368.670 159.600,368.400 159.780,368.400 160.000 C 368.400 160.743,366.607 160.405,365.500 159.453 C 364.895 158.933,364.400 158.400,364.400 158.270 C 364.400 157.918,366.549 155.659,366.913 155.627 C 367.086 155.612,367.761 156.146,368.413 156.814 M33.600 157.000 C 33.600 157.330,33.780 157.600,34.000 157.600 C 34.602 157.600,34.481 159.177,33.829 159.829 C 32.394 161.263,30.400 160.100,30.400 157.829 C 30.400 156.429,30.432 156.400,32.000 156.400 C 33.156 156.400,33.600 156.567,33.600 157.000 M275.600 163.000 C 275.600 163.330,275.330 163.600,275.000 163.600 C 274.670 163.600,274.400 163.330,274.400 163.000 C 274.400 162.670,274.670 162.400,275.000 162.400 C 275.330 162.400,275.600 162.670,275.600 163.000 M229.800 164.785 C 238.104 166.234,237.600 165.870,237.600 170.407 L 237.600 173.917 229.700 174.106 C 225.260 174.212,221.132 174.505,220.274 174.774 C 216.114 176.078,213.440 181.368,212.911 189.345 L 212.676 192.890 214.638 192.657 C 230.972 190.712,237.659 195.486,239.213 210.200 C 241.049 227.595,234.331 236.800,219.800 236.800 C 210.081 236.800,204.575 233.344,201.637 225.400 C 199.153 218.682,199.263 190.803,201.818 179.800 C 204.627 167.700,214.904 162.185,229.800 164.785 M195.767 165.043 C 196.623 165.371,196.713 174.843,195.867 175.545 C 195.511 175.839,191.537 176.023,183.967 176.094 L 172.600 176.200 172.600 185.000 L 172.600 193.800 183.000 194.000 L 193.400 194.200 193.516 198.600 C 193.699 205.504,194.940 204.768,182.894 204.893 L 172.600 205.000 172.600 215.000 L 172.600 225.000 184.294 225.106 L 195.988 225.212 196.210 226.106 C 196.333 226.598,196.380 228.980,196.316 231.400 L 196.200 235.800 178.100 235.904 L 160.000 236.008 160.000 200.671 C 160.000 181.235,160.120 165.213,160.267 165.067 C 160.600 164.733,194.901 164.710,195.767 165.043 M352.700 174.794 C 352.095 175.429,351.600 176.256,351.600 176.630 C 351.600 177.005,351.285 177.551,350.900 177.843 C 350.080 178.465,347.600 178.583,347.600 178.000 C 347.600 177.235,298.563 177.475,297.386 178.246 C 296.205 179.020,295.891 182.400,297.000 182.400 C 297.330 182.400,297.600 182.670,297.600 183.000 C 297.600 183.525,300.113 183.600,317.813 183.600 C 335.410 183.600,338.055 183.522,338.255 183.000 C 338.447 182.500,339.583 182.400,345.043 182.400 C 350.605 182.400,351.600 182.491,351.600 183.000 C 351.600 183.373,351.978 183.600,352.600 183.600 C 353.150 183.600,353.600 183.780,353.600 184.000 C 353.600 184.222,354.667 184.400,356.000 184.400 L 358.400 184.400 358.400 182.000 C 358.400 180.667,358.222 179.600,358.000 179.600 C 357.253 179.600,357.596 178.593,358.600 177.839 C 359.399 177.239,359.600 176.737,359.600 175.344 L 359.600 173.600 356.700 173.619 C 354.035 173.637,353.711 173.732,352.700 174.794 M39.756 174.971 C 39.351 176.026,39.784 177.389,40.572 177.539 C 42.875 177.978,43.136 180.400,40.880 180.400 C 40.044 180.400,39.144 180.616,38.880 180.880 C 37.589 182.171,39.035 184.400,41.162 184.400 C 41.817 184.400,42.414 184.659,42.545 185.000 C 42.697 185.397,43.324 185.600,44.400 185.600 C 45.476 185.600,46.103 185.397,46.255 185.000 C 46.417 184.580,47.072 184.400,48.443 184.400 C 49.519 184.400,50.400 184.220,50.400 184.000 C 50.400 183.738,58.804 183.600,74.813 183.600 C 96.144 183.600,99.254 183.524,99.455 183.000 C 99.582 182.670,100.116 182.400,100.643 182.400 C 101.470 182.400,101.600 182.210,101.600 181.000 C 101.600 180.022,101.419 179.600,101.000 179.600 C 100.670 179.600,100.400 179.395,100.400 179.144 C 100.400 177.665,99.721 177.626,73.700 177.613 C 55.983 177.604,48.400 177.472,48.400 177.171 C 48.400 176.479,47.321 175.600,46.471 175.600 C 46.039 175.600,45.582 175.330,45.455 175.000 C 45.134 174.163,40.076 174.137,39.756 174.971 M275.600 185.545 C 275.600 186.550,275.478 186.666,274.600 186.498 C 273.644 186.315,273.166 185.600,274.000 185.600 C 274.220 185.600,274.400 185.330,274.400 185.000 C 274.400 184.670,274.670 184.400,275.000 184.400 C 275.394 184.400,275.600 184.794,275.600 185.545 M275.600 191.600 C 275.600 193.111,275.453 193.600,275.000 193.600 C 274.670 193.600,274.400 193.330,274.400 193.000 C 274.400 192.627,274.022 192.400,273.400 192.400 C 272.524 192.400,272.400 192.227,272.400 191.000 C 272.400 189.633,272.438 189.600,274.000 189.600 L 275.600 189.600 275.600 191.600 M27.600 195.000 C 27.600 195.348,27.237 195.600,26.736 195.600 C 25.567 195.600,23.600 197.873,23.600 199.223 C 23.600 199.817,23.330 200.526,23.000 200.800 C 22.670 201.074,22.400 201.803,22.400 202.420 C 22.400 203.038,22.670 203.813,23.000 204.143 C 23.330 204.473,23.600 205.116,23.600 205.571 C 23.600 206.027,23.760 206.400,23.957 206.400 C 24.153 206.400,24.426 206.850,24.564 207.400 C 24.720 208.022,25.099 208.400,25.565 208.400 C 25.977 208.400,26.418 208.670,26.545 209.000 C 26.671 209.330,27.130 209.600,27.564 209.600 C 27.998 209.600,28.464 209.780,28.600 210.000 C 28.736 210.220,30.097 210.400,31.624 210.400 C 33.208 210.400,34.400 210.228,34.400 210.000 C 34.400 209.780,34.670 209.600,35.000 209.600 C 35.330 209.600,35.600 209.330,35.600 209.000 C 35.600 208.670,35.780 208.400,36.000 208.400 C 36.220 208.400,36.400 207.950,36.400 207.400 C 36.400 206.778,36.627 206.400,37.000 206.400 C 37.491 206.400,37.600 205.710,37.600 202.587 C 37.600 199.568,37.475 198.727,37.000 198.545 C 36.670 198.418,36.400 197.961,36.400 197.529 C 36.400 196.679,35.521 195.600,34.829 195.600 C 34.593 195.600,34.400 195.330,34.400 195.000 C 34.400 194.514,33.756 194.400,31.000 194.400 C 28.244 194.400,27.600 194.514,27.600 195.000 M365.745 195.000 C 365.618 195.330,365.341 195.600,365.129 195.600 C 364.630 195.600,363.600 196.630,363.600 197.129 C 363.600 197.341,363.330 197.618,363.000 197.745 C 362.670 197.871,362.400 198.263,362.400 198.616 C 362.400 199.768,361.224 200.607,360.364 200.070 C 359.804 199.720,351.585 199.600,328.248 199.600 C 293.735 199.600,296.400 199.399,296.400 202.000 C 296.400 204.311,296.560 204.400,300.699 204.400 C 303.856 204.400,304.605 204.520,305.056 205.100 C 305.574 205.767,305.626 205.767,306.144 205.100 C 306.881 204.152,312.298 204.069,312.655 205.000 C 312.856 205.523,315.689 205.600,334.794 205.600 C 353.780 205.600,356.768 205.520,357.200 205.000 C 358.041 203.987,362.400 204.165,362.400 205.213 C 362.400 205.659,362.670 206.129,363.000 206.255 C 363.330 206.382,363.600 206.736,363.600 207.043 C 363.600 207.349,363.870 207.600,364.200 207.600 C 364.530 207.600,364.800 207.780,364.800 208.000 C 364.800 208.220,365.430 208.400,366.200 208.400 C 367.178 208.400,367.600 208.581,367.600 209.000 C 367.600 209.453,368.089 209.600,369.600 209.600 C 371.111 209.600,371.600 209.453,371.600 209.000 C 371.600 208.660,371.959 208.400,372.429 208.400 C 373.314 208.400,374.400 207.534,374.400 206.829 C 374.400 206.593,374.670 206.400,375.000 206.400 C 375.330 206.400,375.600 206.130,375.600 205.800 C 375.600 205.470,375.780 205.200,376.000 205.200 C 376.233 205.200,376.400 203.867,376.400 202.000 C 376.400 200.133,376.233 198.800,376.000 198.800 C 375.780 198.800,375.600 198.530,375.600 198.200 C 375.600 197.870,375.330 197.600,375.000 197.600 C 374.670 197.600,374.400 197.407,374.400 197.171 C 374.400 196.618,373.382 195.600,372.829 195.600 C 372.593 195.600,372.400 195.330,372.400 195.000 C 372.400 194.516,371.776 194.400,369.187 194.400 C 366.701 194.400,365.923 194.536,365.745 195.000 M32.075 200.486 C 32.905 201.444,32.793 202.864,31.809 203.848 C 31.172 204.485,29.600 204.593,29.600 204.000 C 29.600 203.780,29.330 203.600,29.000 203.600 C 28.567 203.600,28.400 203.156,28.400 202.000 C 28.400 200.560,28.500 200.400,29.400 200.400 C 29.950 200.400,30.400 200.220,30.400 200.000 C 30.400 199.309,31.274 199.563,32.075 200.486 M39.100 200.357 C 36.900 202.588,38.830 204.400,43.405 204.400 C 45.402 204.400,46.800 204.565,46.800 204.800 C 46.800 205.020,47.160 205.200,47.600 205.200 C 48.040 205.200,48.400 205.020,48.400 204.800 C 48.400 204.124,52.280 204.311,52.545 205.000 C 52.680 205.353,53.280 205.600,54.000 205.600 C 54.720 205.600,55.320 205.353,55.455 205.000 C 55.630 204.546,56.364 204.400,58.471 204.400 C 60.414 204.400,61.439 204.582,61.857 205.000 C 62.372 205.514,64.876 205.600,79.429 205.600 C 94.248 205.600,96.400 205.524,96.400 205.000 C 96.400 204.547,96.889 204.400,98.400 204.400 L 100.400 204.400 100.400 202.000 L 100.400 199.600 70.100 199.624 C 41.632 199.646,39.758 199.690,39.100 200.357 M370.400 200.000 C 370.400 200.220,370.670 200.400,371.000 200.400 C 371.330 200.400,371.600 200.670,371.600 201.000 C 371.600 201.330,371.423 201.600,371.208 201.600 C 370.992 201.600,370.702 202.050,370.564 202.600 C 370.226 203.946,367.600 204.112,367.600 202.787 C 367.600 202.341,367.335 201.873,367.010 201.749 C 366.347 201.494,367.127 200.400,367.971 200.400 C 368.207 200.400,368.400 200.220,368.400 200.000 C 368.400 199.780,368.850 199.600,369.400 199.600 C 369.950 199.600,370.400 199.780,370.400 200.000 M213.067 202.267 C 212.491 202.842,212.780 219.355,213.408 221.765 C 214.794 227.089,218.829 229.209,223.053 226.834 C 228.664 223.681,228.208 205.763,222.442 202.821 C 220.834 202.001,213.751 201.582,213.067 202.267 M275.600 203.187 C 275.600 203.723,275.408 203.901,275.000 203.745 C 274.670 203.618,274.400 203.264,274.400 202.957 C 274.400 202.651,274.670 202.400,275.000 202.400 C 275.330 202.400,275.600 202.754,275.600 203.187 M355.813 215.979 C 355.670 216.210,355.198 216.400,354.764 216.400 C 354.330 216.400,353.871 216.670,353.745 217.000 C 353.618 217.330,353.329 217.600,353.101 217.600 C 352.589 217.600,351.630 218.825,351.613 219.500 C 351.566 221.336,346.815 222.472,345.343 221.000 C 344.823 220.480,341.630 220.401,321.471 220.407 L 298.200 220.414 297.300 221.363 C 296.140 222.587,296.092 224.759,297.205 225.711 C 298.105 226.482,299.027 226.603,299.400 226.000 C 299.724 225.476,301.600 225.481,301.600 226.006 C 301.600 226.276,309.790 226.408,326.100 226.400 C 339.575 226.393,350.825 226.391,351.100 226.394 C 351.375 226.397,351.600 226.605,351.600 226.856 C 351.600 227.831,353.055 228.375,355.700 228.387 C 357.185 228.394,358.400 228.233,358.400 228.028 C 358.400 227.823,358.805 227.598,359.300 227.528 C 361.290 227.245,360.566 224.420,358.500 224.406 C 358.005 224.403,357.600 224.220,357.600 224.000 C 357.600 223.780,357.330 223.600,357.000 223.600 C 356.670 223.600,356.400 223.330,356.400 223.000 C 356.400 222.670,356.593 222.400,356.829 222.400 C 357.064 222.400,357.514 222.143,357.829 221.829 C 358.143 221.514,358.400 221.064,358.400 220.829 C 358.400 220.593,358.679 220.400,359.020 220.400 C 359.522 220.400,359.617 219.962,359.520 218.100 L 359.400 215.800 357.737 215.679 C 356.822 215.612,355.956 215.747,355.813 215.979 M40.289 218.405 C 39.910 218.847,39.600 219.732,39.600 220.371 C 39.600 221.010,39.424 221.593,39.209 221.667 C 38.460 221.922,38.285 224.228,38.963 224.906 C 39.313 225.256,39.600 225.929,39.600 226.400 C 39.600 227.471,40.496 228.400,41.529 228.400 C 41.961 228.400,42.418 228.670,42.545 229.000 C 42.671 229.330,43.209 229.600,43.738 229.600 C 44.268 229.600,44.926 229.330,45.200 229.000 C 45.474 228.670,46.306 228.400,47.049 228.400 C 47.792 228.400,48.400 228.220,48.400 228.000 C 48.400 227.761,49.938 227.600,52.213 227.600 C 55.232 227.600,56.073 227.475,56.255 227.000 C 56.456 226.477,59.272 226.400,78.238 226.400 C 102.899 226.400,101.600 226.572,101.600 223.311 C 101.600 222.115,101.432 221.600,101.043 221.600 C 100.736 221.600,100.380 221.325,100.251 220.990 C 99.934 220.162,57.176 220.270,56.900 221.100 C 56.781 221.457,55.545 221.600,52.567 221.600 L 48.400 221.600 48.400 220.405 C 48.400 218.226,47.418 217.600,44.000 217.600 C 41.467 217.600,40.866 217.730,40.289 218.405 M274.400 220.000 C 274.400 220.220,274.670 220.400,275.000 220.400 C 275.399 220.400,275.600 220.799,275.600 221.587 C 275.600 222.479,275.450 222.717,275.000 222.545 C 274.670 222.418,274.400 221.984,274.400 221.581 C 274.400 221.177,274.220 220.736,274.000 220.600 C 273.780 220.464,273.600 220.183,273.600 219.976 C 273.600 219.769,273.780 219.600,274.000 219.600 C 274.220 219.600,274.400 219.780,274.400 220.000 M276.400 234.000 C 276.400 234.880,276.220 235.600,276.000 235.600 C 275.780 235.600,275.600 236.050,275.600 236.600 C 275.600 237.222,275.373 237.600,275.000 237.600 C 274.670 237.600,274.400 237.407,274.400 237.171 C 274.400 236.936,274.670 236.473,275.000 236.143 C 275.330 235.813,275.600 235.299,275.600 235.000 C 275.600 234.701,275.330 234.187,275.000 233.857 C 274.113 232.970,274.269 232.400,275.400 232.400 C 276.300 232.400,276.400 232.560,276.400 234.000 M30.600 238.000 C 30.464 238.220,29.998 238.400,29.564 238.400 C 29.130 238.400,28.671 238.670,28.545 239.000 C 28.418 239.330,27.977 239.600,27.565 239.600 C 27.099 239.600,26.720 239.978,26.564 240.600 C 26.426 241.150,26.153 241.600,25.957 241.600 C 25.760 241.600,25.600 242.320,25.600 243.200 C 25.600 244.080,25.420 244.800,25.200 244.800 C 24.980 244.800,24.800 245.160,24.800 245.600 C 24.800 246.040,24.980 246.400,25.200 246.400 C 25.420 246.400,25.600 247.120,25.600 248.000 C 25.600 248.880,25.780 249.600,26.000 249.600 C 26.220 249.600,26.400 249.863,26.400 250.184 C 26.400 251.111,28.048 252.400,29.233 252.400 C 29.828 252.400,30.418 252.670,30.545 253.000 C 30.688 253.373,31.298 253.600,32.159 253.600 C 32.920 253.600,33.813 253.330,34.143 253.000 C 34.473 252.670,35.040 252.400,35.402 252.400 C 36.338 252.400,38.400 250.220,38.400 249.231 C 38.400 248.759,38.659 248.400,39.000 248.400 C 39.330 248.400,39.600 248.220,39.600 248.000 C 39.600 247.738,48.333 247.600,65.000 247.600 C 87.311 247.600,90.400 247.527,90.400 247.000 C 90.400 246.499,91.222 246.400,95.400 246.400 L 100.400 246.400 100.400 244.000 L 100.400 241.600 83.000 241.600 C 71.667 241.600,65.600 241.739,65.600 242.000 C 65.600 242.258,61.196 242.400,53.187 242.400 C 42.523 242.400,40.742 242.485,40.545 243.000 C 40.182 243.946,39.600 243.700,39.600 242.600 C 39.600 241.978,39.373 241.600,39.000 241.600 C 38.670 241.600,38.400 241.407,38.400 241.171 C 38.400 240.618,37.382 239.600,36.829 239.600 C 36.593 239.600,36.400 239.330,36.400 239.000 C 36.400 238.627,36.022 238.400,35.400 238.400 C 34.850 238.400,34.400 238.220,34.400 238.000 C 34.400 237.780,33.601 237.600,32.624 237.600 C 31.647 237.600,30.736 237.780,30.600 238.000 M364.800 238.000 C 364.800 238.220,364.422 238.400,363.960 238.400 C 363.037 238.400,360.408 240.800,360.387 241.660 C 360.349 243.266,356.774 244.525,356.300 243.100 C 356.176 242.725,353.917 242.570,347.267 242.478 C 342.046 242.407,338.400 242.201,338.400 241.978 C 338.400 241.240,296.927 241.493,296.643 242.233 C 295.964 244.002,296.375 246.400,297.357 246.400 C 297.884 246.400,298.418 246.670,298.545 247.000 C 298.746 247.526,302.456 247.600,328.587 247.600 C 354.821 247.600,358.400 247.528,358.400 247.000 C 358.400 246.670,358.670 246.400,359.000 246.400 C 359.373 246.400,359.600 246.778,359.600 247.400 C 359.600 247.950,359.780 248.400,360.000 248.400 C 360.220 248.400,360.400 248.850,360.400 249.400 C 360.400 250.022,360.627 250.400,361.000 250.400 C 361.330 250.400,361.600 250.593,361.600 250.829 C 361.600 251.988,362.798 252.400,366.171 252.400 C 368.190 252.400,369.600 252.236,369.600 252.000 C 369.600 251.780,369.888 251.600,370.240 251.600 C 372.255 251.600,373.600 249.054,373.600 245.240 C 373.600 242.271,373.489 241.600,373.000 241.600 C 372.670 241.600,372.400 241.274,372.400 240.875 C 372.400 239.719,370.900 238.400,369.584 238.400 C 368.933 238.400,368.400 238.220,368.400 238.000 C 368.400 237.780,367.590 237.600,366.600 237.600 C 365.610 237.600,364.800 237.780,364.800 238.000 M273.600 242.600 C 273.600 243.400,273.800 243.600,274.600 243.600 C 275.400 243.600,275.600 243.800,275.600 244.600 C 275.600 245.698,274.634 245.986,274.255 245.000 C 274.129 244.670,273.659 244.400,273.213 244.400 C 272.551 244.400,272.400 244.141,272.400 243.000 C 272.400 242.022,272.581 241.600,273.000 241.600 C 273.373 241.600,273.600 241.978,273.600 242.600 M33.829 244.171 C 34.481 244.823,34.602 246.400,34.000 246.400 C 33.780 246.400,33.600 246.670,33.600 247.000 C 33.600 247.433,33.156 247.600,32.000 247.600 C 30.886 247.600,30.400 247.428,30.400 247.033 C 30.400 246.722,30.195 246.398,29.946 246.315 C 29.351 246.117,30.383 244.400,31.096 244.400 C 31.373 244.400,31.600 244.220,31.600 244.000 C 31.600 243.398,33.177 243.519,33.829 244.171 M367.829 244.171 C 369.142 245.485,366.655 248.153,365.243 246.944 C 364.264 246.106,364.101 244.400,365.000 244.400 C 365.330 244.400,365.600 244.220,365.600 244.000 C 365.600 243.398,367.177 243.519,367.829 244.171 M275.600 249.163 C 275.600 250.016,274.445 249.916,273.011 248.938 C 272.292 248.448,272.372 248.400,273.911 248.400 C 275.306 248.400,275.600 248.533,275.600 249.163 M275.029 254.171 C 275.343 254.486,275.600 255.094,275.600 255.522 C 275.600 256.485,274.589 257.430,274.212 256.819 C 274.069 256.589,273.603 256.400,273.176 256.400 C 272.258 256.400,272.143 255.784,273.000 255.455 C 273.330 255.329,273.600 254.859,273.600 254.413 C 273.600 253.464,274.217 253.360,275.029 254.171 M275.600 261.400 C 275.600 262.573,273.214 262.871,272.171 261.829 C 271.142 260.800,271.542 260.400,273.600 260.400 C 275.467 260.400,275.600 260.467,275.600 261.400 M275.600 267.000 C 275.600 267.330,275.780 267.600,276.000 267.600 C 276.220 267.600,276.400 267.825,276.400 268.100 C 276.399 268.443,275.645 268.604,274.000 268.614 C 272.304 268.624,271.600 268.477,271.600 268.114 C 271.600 267.831,271.966 267.600,272.413 267.600 C 272.859 267.600,273.329 267.330,273.455 267.000 C 273.582 266.670,274.116 266.400,274.643 266.400 C 275.227 266.400,275.600 266.634,275.600 267.000 M268.473 272.300 C 268.589 273.307,268.760 273.410,270.500 273.522 C 272.302 273.638,272.882 274.055,272.000 274.600 C 271.780 274.736,271.600 275.467,271.600 276.224 C 271.600 276.981,271.407 277.600,271.171 277.600 C 270.936 277.600,270.486 277.857,270.171 278.171 C 269.857 278.486,269.600 278.936,269.600 279.171 C 269.600 279.407,269.150 279.600,268.600 279.600 C 268.050 279.600,267.600 279.765,267.600 279.966 C 267.600 280.167,266.430 280.392,264.999 280.466 C 262.818 280.578,262.398 280.496,262.399 279.955 C 262.400 279.484,262.668 279.362,263.400 279.502 C 264.133 279.642,264.400 279.521,264.400 279.047 C 264.400 278.691,264.670 278.400,265.000 278.400 C 265.330 278.400,265.600 278.670,265.600 279.000 C 265.600 279.864,266.904 279.738,267.711 278.795 C 268.450 277.932,268.661 275.600,268.000 275.600 C 267.780 275.600,267.600 275.330,267.600 275.000 C 267.600 274.670,267.330 274.400,267.000 274.400 C 266.627 274.400,266.400 274.022,266.400 273.400 C 266.400 272.778,266.627 272.400,267.000 272.400 C 267.330 272.400,267.600 272.130,267.600 271.800 C 267.600 270.737,268.343 271.162,268.473 272.300 M245.100 276.348 C 244.060 277.416,244.244 278.529,245.728 280.150 C 247.537 282.125,248.400 282.076,248.400 280.000 C 248.400 279.120,248.231 278.400,248.025 278.400 C 247.819 278.400,247.594 277.815,247.525 277.100 C 247.378 275.567,246.212 275.205,245.100 276.348 M129.600 277.400 C 129.600 278.538,128.341 278.798,127.397 277.854 C 126.700 277.157,127.368 276.400,128.680 276.400 C 129.395 276.400,129.600 276.623,129.600 277.400 M181.600 276.692 C 181.270 276.817,180.868 277.118,180.706 277.360 C 180.525 277.631,180.410 277.532,180.406 277.100 C 180.402 276.630,180.695 276.410,181.300 276.432 C 181.901 276.453,182.001 276.539,181.600 276.692 M170.400 277.800 C 170.400 278.130,170.108 278.400,169.751 278.400 C 169.220 278.400,169.192 278.291,169.600 277.800 C 169.874 277.470,170.166 277.200,170.249 277.200 C 170.332 277.200,170.400 277.470,170.400 277.800 M161.600 277.786 C 161.600 278.162,159.214 280.400,158.813 280.400 C 158.586 280.400,158.400 279.950,158.400 279.400 C 158.400 278.778,158.627 278.400,159.000 278.400 C 159.330 278.400,159.600 278.220,159.600 278.000 C 159.600 277.780,160.050 277.600,160.600 277.600 C 161.150 277.600,161.600 277.684,161.600 277.786 M239.600 278.600 C 239.600 279.400,239.400 279.600,238.600 279.600 C 237.800 279.600,237.600 279.800,237.600 280.600 C 237.600 281.769,239.831 282.105,240.255 281.000 C 240.382 280.670,240.916 280.400,241.443 280.400 C 242.270 280.400,242.400 280.210,242.400 279.000 C 242.400 277.667,242.333 277.600,241.000 277.600 C 239.773 277.600,239.600 277.724,239.600 278.600 M261.600 277.957 C 261.600 278.589,260.474 278.770,260.246 278.175 C 260.100 277.795,260.292 277.600,260.813 277.600 C 261.246 277.600,261.600 277.761,261.600 277.957 M209.600 279.357 C 209.600 279.884,209.330 280.418,209.000 280.545 C 208.550 280.717,208.400 280.479,208.400 279.587 C 208.400 278.799,208.601 278.400,209.000 278.400 C 209.366 278.400,209.600 278.773,209.600 279.357 M232.567 280.943 C 232.428 281.304,232.064 281.600,231.757 281.600 C 231.037 281.600,231.055 281.402,231.848 280.610 C 232.602 279.855,232.926 280.005,232.567 280.943 M242.566 280.945 C 242.079 282.214,242.570 283.396,243.634 283.520 C 244.876 283.665,245.710 282.786,245.531 281.522 C 245.371 280.398,242.956 279.929,242.566 280.945 M108.300 298.157 C 107.915 298.449,107.600 298.893,107.600 299.144 C 107.600 299.395,107.407 299.600,107.171 299.600 C 106.618 299.600,105.600 300.618,105.600 301.171 C 105.600 301.407,105.270 301.600,104.866 301.600 C 104.225 301.600,100.149 305.473,94.234 311.700 C 93.242 312.745,92.347 313.600,92.246 313.600 C 91.952 313.600,89.600 316.033,89.600 316.336 C 89.600 316.487,89.150 316.948,88.600 317.361 C 88.050 317.774,87.600 318.447,87.600 318.856 C 87.600 319.265,87.407 319.600,87.171 319.600 C 86.618 319.600,85.600 320.618,85.600 321.171 C 85.600 321.407,85.407 321.600,85.171 321.600 C 84.618 321.600,83.600 322.618,83.600 323.171 C 83.600 323.407,83.407 323.600,83.171 323.600 C 82.618 323.600,81.600 324.618,81.600 325.171 C 81.600 325.407,81.407 325.600,81.171 325.600 C 80.936 325.600,80.486 325.857,80.171 326.171 C 79.857 326.486,79.600 326.936,79.600 327.171 C 79.600 327.407,79.407 327.600,79.171 327.600 C 78.618 327.600,77.600 328.618,77.600 329.171 C 77.600 329.407,77.407 329.600,77.171 329.600 C 76.618 329.600,75.600 330.618,75.600 331.171 C 75.600 331.407,75.330 331.600,75.000 331.600 C 74.670 331.600,74.400 331.745,74.400 331.922 C 74.400 332.099,73.320 333.365,72.000 334.735 C 70.680 336.105,69.600 337.398,69.600 337.608 C 69.600 337.818,68.250 339.327,66.600 340.961 C 64.776 342.767,63.600 344.259,63.600 344.766 C 63.600 345.266,63.342 345.600,62.956 345.600 C 62.456 345.600,62.349 345.912,62.476 347.000 C 62.589 347.965,62.478 348.400,62.120 348.400 C 61.834 348.400,61.600 348.220,61.600 348.000 C 61.600 347.761,60.060 347.600,57.781 347.600 L 53.962 347.600 52.181 349.356 C 51.190 350.333,50.400 351.486,50.400 351.956 C 50.400 352.420,50.220 352.800,50.000 352.800 C 49.780 352.800,49.600 353.610,49.600 354.600 C 49.600 355.590,49.780 356.400,50.000 356.400 C 50.220 356.400,50.400 356.766,50.400 357.213 C 50.400 357.659,50.670 358.129,51.000 358.255 C 51.330 358.382,51.600 358.659,51.600 358.871 C 51.600 359.304,52.604 360.400,53.000 360.400 C 53.141 360.400,53.527 360.670,53.857 361.000 C 54.984 362.127,60.915 361.830,61.839 360.600 C 62.252 360.050,62.817 359.600,63.095 359.600 C 63.373 359.600,63.600 359.373,63.600 359.095 C 63.600 358.817,64.050 358.252,64.600 357.839 C 65.828 356.917,66.176 350.800,65.000 350.800 C 64.670 350.800,64.400 350.607,64.400 350.371 C 64.400 350.136,64.096 349.641,63.725 349.271 C 63.092 348.642,63.154 348.592,64.725 348.477 C 65.646 348.409,66.400 348.204,66.400 348.020 C 66.400 347.837,66.850 347.574,67.400 347.436 C 67.950 347.298,68.400 347.008,68.400 346.792 C 68.400 346.577,68.593 346.400,68.829 346.400 C 69.382 346.400,70.400 345.382,70.400 344.829 C 70.400 344.593,70.593 344.400,70.829 344.400 C 71.382 344.400,72.400 343.382,72.400 342.829 C 72.400 342.593,72.593 342.400,72.829 342.400 C 73.382 342.400,74.400 341.382,74.400 340.829 C 74.400 340.593,74.593 340.400,74.829 340.400 C 75.382 340.400,76.400 339.382,76.400 338.829 C 76.400 338.593,76.593 338.400,76.829 338.400 C 77.382 338.400,78.400 337.382,78.400 336.829 C 78.400 336.593,78.593 336.400,78.829 336.400 C 79.382 336.400,80.400 335.382,80.400 334.829 C 80.400 334.593,80.593 334.400,80.829 334.400 C 81.382 334.400,82.400 333.382,82.400 332.829 C 82.400 332.593,82.593 332.400,82.829 332.400 C 83.382 332.400,84.400 331.382,84.400 330.829 C 84.400 330.593,84.593 330.400,84.829 330.400 C 85.350 330.400,86.400 329.395,86.400 328.896 C 86.400 328.698,86.850 328.294,87.400 328.000 C 87.950 327.706,88.400 327.225,88.400 326.932 C 88.400 326.640,88.670 326.400,89.000 326.400 C 89.330 326.400,89.600 326.244,89.600 326.054 C 89.600 325.864,90.950 324.327,92.600 322.639 C 94.250 320.951,95.600 319.384,95.600 319.157 C 95.600 318.615,96.625 317.600,97.171 317.600 C 97.407 317.600,97.600 317.407,97.600 317.171 C 97.600 316.618,98.618 315.600,99.171 315.600 C 99.407 315.600,99.600 315.407,99.600 315.171 C 99.600 314.618,100.618 313.600,101.171 313.600 C 101.407 313.600,101.600 313.407,101.600 313.171 C 101.600 312.618,102.618 311.600,103.171 311.600 C 103.407 311.600,103.600 311.407,103.600 311.171 C 103.600 310.618,104.618 309.600,105.171 309.600 C 105.407 309.600,105.600 309.407,105.600 309.171 C 105.600 308.618,106.618 307.600,107.171 307.600 C 107.407 307.600,107.600 307.416,107.600 307.190 C 107.600 306.965,108.680 305.723,110.000 304.432 C 113.929 300.587,112.423 295.027,108.300 298.157 M288.300 298.157 C 287.829 298.515,287.600 299.237,287.600 300.370 L 287.600 302.051 305.793 320.226 C 315.799 330.221,324.064 338.400,324.160 338.400 C 324.256 338.400,325.488 339.570,326.897 341.000 C 328.306 342.430,329.671 343.600,329.929 343.600 C 330.188 343.600,330.400 343.780,330.400 344.000 C 330.400 344.220,330.670 344.400,331.000 344.400 C 331.330 344.400,331.600 344.593,331.600 344.829 C 331.600 345.362,332.610 346.400,333.129 346.400 C 333.341 346.400,333.618 346.670,333.745 347.000 C 333.879 347.351,334.479 347.600,335.187 347.600 C 335.999 347.600,336.400 347.401,336.400 347.000 C 336.400 346.670,336.670 346.400,337.000 346.400 C 337.419 346.400,337.600 345.978,337.600 345.000 C 337.600 344.022,337.419 343.600,337.000 343.600 C 336.659 343.600,336.400 343.241,336.400 342.769 C 336.400 341.813,305.828 311.053,304.439 310.612 C 303.978 310.466,303.600 310.178,303.600 309.974 C 303.600 309.293,299.562 305.600,298.817 305.600 C 298.588 305.600,298.400 305.407,298.400 305.171 C 298.400 304.936,298.143 304.486,297.829 304.171 C 297.514 303.857,297.064 303.600,296.829 303.600 C 296.593 303.600,296.400 303.407,296.400 303.171 C 296.400 302.936,296.143 302.486,295.829 302.171 C 295.514 301.857,295.064 301.600,294.829 301.600 C 294.593 301.600,294.400 301.407,294.400 301.171 C 294.400 300.638,293.390 299.600,292.871 299.600 C 292.659 299.600,292.382 299.330,292.255 299.000 C 292.129 298.670,291.659 298.400,291.213 298.400 C 290.766 298.400,290.400 298.220,290.400 298.000 C 290.400 297.432,289.129 297.527,288.300 298.157 M153.600 304.029 C 153.600 305.654,153.402 306.656,153.000 307.057 C 152.479 307.578,152.400 310.989,152.400 332.841 C 152.400 354.858,152.475 358.054,153.000 358.255 C 154.224 358.725,153.724 360.400,152.360 360.400 C 150.997 360.400,148.400 362.603,148.400 363.760 C 148.400 364.112,148.220 364.400,148.000 364.400 C 147.769 364.400,147.600 365.667,147.600 367.400 C 147.600 369.133,147.769 370.400,148.000 370.400 C 148.220 370.400,148.400 370.766,148.400 371.213 C 148.400 371.659,148.670 372.129,149.000 372.255 C 149.330 372.382,149.600 372.736,149.600 373.043 C 149.600 373.370,150.012 373.600,150.600 373.600 C 151.150 373.600,151.600 373.780,151.600 374.000 C 151.600 374.240,153.200 374.400,155.600 374.400 C 157.800 374.400,159.600 374.241,159.600 374.047 C 159.600 373.852,159.973 373.596,160.430 373.476 C 160.886 373.357,161.357 372.886,161.476 372.430 C 161.596 371.973,161.852 371.600,162.047 371.600 C 162.241 371.600,162.400 369.800,162.400 367.600 C 162.400 365.200,162.240 363.600,162.000 363.600 C 161.780 363.600,161.600 363.330,161.600 363.000 C 161.600 362.670,161.408 362.400,161.173 362.400 C 160.938 362.400,160.152 361.770,159.426 361.000 C 158.700 360.230,157.722 359.600,157.253 359.600 C 156.256 359.600,156.151 358.992,157.000 358.143 C 157.513 357.630,157.600 355.238,157.600 341.595 C 157.600 331.395,157.744 325.558,158.000 325.400 C 158.250 325.246,158.400 321.329,158.400 314.976 C 158.400 308.459,158.256 304.800,158.000 304.800 C 157.780 304.800,157.600 304.080,157.600 303.200 L 157.600 301.600 155.600 301.600 L 153.600 301.600 153.600 304.029 M243.100 302.588 C 242.104 303.958,242.007 357.074,243.000 357.455 C 244.123 357.886,243.781 360.400,242.600 360.400 C 241.999 360.400,241.600 360.629,241.600 360.972 C 241.600 361.287,241.195 361.602,240.700 361.672 C 240.122 361.754,239.754 362.122,239.672 362.700 C 239.602 363.195,239.287 363.600,238.972 363.600 C 238.130 363.600,238.154 370.097,239.000 370.943 C 239.330 371.273,239.600 371.660,239.600 371.802 C 239.600 373.446,242.012 374.400,246.169 374.400 C 248.723 374.400,250.400 374.241,250.400 374.000 C 250.400 373.780,250.670 373.600,251.000 373.600 C 251.330 373.600,251.600 373.407,251.600 373.171 C 251.600 372.618,252.618 371.600,253.171 371.600 C 253.407 371.600,253.600 370.880,253.600 370.000 C 253.600 369.120,253.780 368.400,254.000 368.400 C 254.220 368.400,254.400 367.871,254.400 367.224 C 254.400 366.577,254.220 365.936,254.000 365.800 C 253.780 365.664,253.600 365.113,253.600 364.576 C 253.600 363.975,253.369 363.600,253.000 363.600 C 252.627 363.600,252.400 363.222,252.400 362.600 C 252.400 361.800,252.200 361.600,251.400 361.600 C 250.778 361.600,250.400 361.373,250.400 361.000 C 250.400 360.660,250.041 360.400,249.571 360.400 C 247.538 360.400,247.600 361.314,247.600 331.216 C 247.600 306.660,247.525 303.146,247.000 302.945 C 246.670 302.818,246.400 302.464,246.400 302.157 C 246.400 301.166,243.896 301.493,243.100 302.588 M173.016 303.041 C 172.183 303.874,172.245 337.810,173.081 338.326 C 174.067 338.936,173.846 357.754,172.840 358.760 C 172.378 359.222,171.770 359.600,171.489 359.600 C 170.647 359.600,169.600 361.130,169.600 362.362 C 169.600 363.017,169.341 363.614,169.000 363.745 C 168.627 363.888,168.400 364.498,168.400 365.359 C 168.400 366.120,168.670 367.013,169.000 367.343 C 169.330 367.673,169.600 368.239,169.600 368.600 C 169.600 369.320,170.517 370.400,171.129 370.400 C 171.341 370.400,171.618 370.670,171.745 371.000 C 171.878 371.347,172.476 371.600,173.164 371.600 C 173.818 371.600,174.464 371.780,174.600 372.000 C 174.736 372.220,175.647 372.400,176.624 372.400 C 177.601 372.400,178.400 372.220,178.400 372.000 C 178.400 371.780,178.958 371.600,179.640 371.600 C 180.990 371.600,183.600 369.401,183.600 368.264 C 183.600 367.925,183.780 367.536,184.000 367.400 C 184.220 367.264,184.400 366.454,184.400 365.600 C 184.400 364.746,184.220 363.936,184.000 363.800 C 183.780 363.664,183.600 363.113,183.600 362.576 C 183.600 361.975,183.369 361.600,183.000 361.600 C 182.670 361.600,182.400 361.407,182.400 361.171 C 182.400 360.618,181.382 359.600,180.829 359.600 C 180.593 359.600,180.400 359.330,180.400 359.000 C 180.400 358.627,180.022 358.400,179.400 358.400 L 178.400 358.400 178.400 338.000 C 178.400 324.667,178.261 317.600,178.000 317.600 C 177.750 317.600,177.600 315.143,177.600 311.029 C 177.600 305.721,177.485 304.342,177.000 303.857 C 176.670 303.527,176.400 303.064,176.400 302.829 C 176.400 302.159,173.731 302.326,173.016 303.041 M199.600 303.000 C 199.600 303.330,199.330 303.600,199.000 303.600 C 198.670 303.600,198.400 303.870,198.400 304.200 C 198.400 304.530,198.220 304.800,198.000 304.800 C 197.747 304.800,197.600 307.733,197.600 312.800 C 197.600 317.867,197.453 320.800,197.200 320.800 C 196.967 320.800,196.800 322.133,196.800 324.000 C 196.800 325.823,196.969 327.200,197.192 327.200 C 197.441 327.200,197.624 333.853,197.692 345.400 C 197.777 359.751,197.694 363.600,197.300 363.600 C 197.025 363.600,196.800 363.780,196.800 364.000 C 196.800 364.220,196.530 364.400,196.200 364.400 C 195.870 364.400,195.600 364.670,195.600 365.000 C 195.600 365.330,195.395 365.600,195.144 365.600 C 194.062 365.600,193.625 367.055,193.613 370.700 C 193.606 372.735,193.760 374.400,193.957 374.400 C 194.153 374.400,194.426 374.850,194.564 375.400 C 194.726 376.046,195.096 376.400,195.608 376.400 C 196.043 376.400,196.401 376.625,196.403 376.900 C 196.405 377.175,196.891 377.625,197.483 377.900 C 198.766 378.496,203.600 378.575,203.600 378.000 C 203.600 377.780,203.920 377.600,204.311 377.600 C 205.214 377.600,206.400 376.235,206.400 375.195 C 206.400 374.755,206.668 374.400,207.000 374.400 C 207.419 374.400,207.600 373.978,207.600 373.000 C 207.600 372.230,207.780 371.600,208.000 371.600 C 208.220 371.600,208.400 370.801,208.400 369.824 C 208.400 368.847,208.220 367.936,208.000 367.800 C 207.780 367.664,207.600 367.113,207.600 366.576 C 207.600 365.975,207.369 365.600,207.000 365.600 C 206.670 365.600,206.400 365.330,206.400 365.000 C 206.400 364.627,206.022 364.400,205.400 364.400 C 204.850 364.400,204.400 364.220,204.400 364.000 C 204.400 363.780,203.950 363.600,203.400 363.600 L 202.400 363.600 202.400 355.571 C 202.400 348.968,202.507 347.436,203.000 346.943 C 203.518 346.425,203.600 343.549,203.600 326.000 C 203.600 308.451,203.518 305.575,203.000 305.057 C 202.670 304.727,202.400 303.994,202.400 303.429 C 202.400 302.520,202.237 302.400,201.000 302.400 C 200.022 302.400,199.600 302.581,199.600 303.000 M223.600 302.957 C 223.600 303.264,223.330 303.618,223.000 303.745 C 222.532 303.924,222.400 304.723,222.400 307.387 C 222.400 309.396,222.235 310.800,222.000 310.800 C 221.742 310.800,221.600 315.056,221.600 322.767 C 221.600 331.985,221.485 334.772,221.100 334.900 C 220.724 335.025,220.600 336.928,220.600 342.599 C 220.600 348.269,220.724 350.173,221.100 350.299 C 221.927 350.576,221.797 358.400,220.966 358.400 C 220.104 358.400,217.600 360.814,217.600 361.645 C 217.600 362.013,217.330 362.418,217.000 362.545 C 216.566 362.711,216.400 363.391,216.400 365.000 C 216.400 366.609,216.566 367.289,217.000 367.455 C 217.330 367.582,217.600 368.051,217.600 368.499 C 217.600 369.404,218.650 370.368,219.657 370.387 C 220.019 370.394,220.418 370.670,220.545 371.000 C 220.726 371.472,221.547 371.600,224.400 371.600 C 227.253 371.600,228.074 371.472,228.255 371.000 C 228.382 370.670,228.776 370.400,229.130 370.400 C 229.485 370.400,230.185 369.922,230.687 369.338 C 231.836 368.001,232.094 361.600,231.000 361.600 C 230.670 361.600,230.400 361.407,230.400 361.171 C 230.400 360.618,229.382 359.600,228.829 359.600 C 228.593 359.600,228.400 359.330,228.400 359.000 C 228.400 358.627,228.022 358.400,227.400 358.400 L 226.400 358.400 226.400 343.443 C 226.400 330.516,226.481 328.454,227.000 328.255 C 227.515 328.058,227.600 326.299,227.600 315.813 C 227.600 305.224,227.520 303.600,227.000 303.600 C 226.670 303.600,226.400 303.330,226.400 303.000 C 226.400 302.581,225.978 302.400,225.000 302.400 C 224.070 302.400,223.600 302.587,223.600 302.957 M341.600 347.000 C 341.600 347.373,341.222 347.600,340.600 347.600 C 340.050 347.600,339.600 347.760,339.600 347.957 C 339.600 348.153,339.150 348.426,338.600 348.564 C 337.978 348.720,337.600 349.099,337.600 349.565 C 337.600 349.977,337.330 350.418,337.000 350.545 C 336.545 350.719,336.400 351.456,336.400 353.587 C 336.400 355.821,336.524 356.400,337.000 356.400 C 337.330 356.400,337.600 356.593,337.600 356.829 C 337.600 357.362,338.610 358.400,339.129 358.400 C 339.341 358.400,339.618 358.670,339.745 359.000 C 339.929 359.481,340.812 359.600,344.187 359.600 C 347.665 359.600,348.400 359.495,348.400 359.000 C 348.400 358.670,348.593 358.400,348.829 358.400 C 349.521 358.400,350.400 357.321,350.400 356.471 C 350.400 356.039,350.670 355.582,351.000 355.455 C 351.397 355.303,351.600 354.676,351.600 353.600 C 351.600 352.524,351.397 351.897,351.000 351.745 C 350.659 351.614,350.400 351.017,350.400 350.362 C 350.400 349.112,349.350 347.600,348.483 347.600 C 348.186 347.600,347.673 347.330,347.343 347.000 C 346.934 346.591,345.924 346.400,344.171 346.400 C 342.152 346.400,341.600 346.529,341.600 347.000 M344.400 352.000 C 344.400 352.220,344.670 352.400,345.000 352.400 C 345.330 352.400,345.600 352.670,345.600 353.000 C 345.600 353.330,345.423 353.600,345.208 353.600 C 344.992 353.600,344.702 354.050,344.564 354.600 C 344.254 355.836,344.258 355.836,342.797 354.534 C 341.467 353.349,341.371 353.027,342.100 352.198 C 342.672 351.548,344.400 351.399,344.400 352.000 M59.019 353.458 C 60.171 354.701,60.146 354.597,59.456 355.287 C 58.482 356.261,55.600 355.716,55.600 354.558 C 55.600 354.031,55.780 353.600,56.000 353.600 C 56.220 353.600,56.400 353.330,56.400 353.000 C 56.400 352.034,57.951 352.306,59.019 353.458 M225.257 363.596 C 226.661 365.066,226.664 364.969,225.179 366.421 C 224.087 367.488,223.893 367.550,223.350 367.007 C 223.016 366.673,222.486 366.400,222.171 366.400 C 221.857 366.400,221.600 366.027,221.600 365.571 C 221.600 364.686,222.466 363.600,223.171 363.600 C 223.407 363.600,223.600 363.330,223.600 363.000 C 223.600 362.121,223.976 362.257,225.257 363.596 M178.056 364.366 C 179.202 365.434,178.770 367.600,177.411 367.600 C 176.902 367.600,176.382 367.330,176.255 367.000 C 176.129 366.670,175.659 366.400,175.213 366.400 C 174.612 366.400,174.400 366.138,174.400 365.400 C 174.400 364.778,174.627 364.400,175.000 364.400 C 175.330 364.400,175.600 364.220,175.600 364.000 C 175.600 363.321,177.189 363.558,178.056 364.366 M156.400 366.000 C 156.400 366.220,156.670 366.400,157.000 366.400 C 157.862 366.400,157.741 367.859,156.800 368.800 C 154.754 370.846,152.186 368.372,154.100 366.198 C 154.672 365.548,156.400 365.399,156.400 366.000 M247.675 366.500 C 248.109 369.480,246.769 370.546,244.995 368.633 C 243.560 367.084,244.061 365.600,246.019 365.600 C 247.295 365.600,247.566 365.747,247.675 366.500 M202.400 370.973 C 202.400 371.995,202.195 372.411,201.600 372.600 C 201.160 372.740,200.800 373.035,200.800 373.256 C 200.800 373.476,200.517 373.374,200.171 373.029 C 199.826 372.683,199.286 372.400,198.971 372.400 C 198.166 372.400,198.258 370.796,199.100 370.157 C 200.617 369.005,202.400 369.446,202.400 370.973 " stroke="none" fill="#ffffff" fill-rule="evenodd"></path></g></svg>