<svg id="svg" version="1.1" xmlns="http://www.w3.org/2000/svg" xmlns:xlink="http://www.w3.org/1999/xlink" width="400" height="400" viewBox="0, 0, 400,400"><g id="svgg"><path id="path0" d="M193.522 75.165 C 189.020 77.124,189.813 83.463,194.650 84.189 C 197.983 84.688,200.391 82.718,200.391 79.492 C 200.391 75.822,196.967 73.665,193.522 75.165 M197.439 78.212 C 198.260 79.384,198.205 80.055,197.198 81.127 C 195.071 83.390,191.533 80.359,193.615 78.058 C 194.544 77.032,196.672 77.117,197.439 78.212 M225.789 78.405 C 220.397 81.168,222.766 88.607,228.752 87.710 C 230.730 87.413,233.203 85.010,233.203 83.385 C 233.203 79.553,229.025 76.746,225.789 78.405 M160.698 78.508 C 157.017 79.995,157.230 86.541,161.000 87.771 C 164.939 89.057,169.251 84.473,167.425 80.941 C 166.142 78.460,163.332 77.444,160.698 78.508 M175.977 79.096 C 173.256 80.489,172.261 83.988,173.853 86.563 C 175.564 89.332,180.753 89.313,182.576 86.531 C 185.137 82.623,180.121 76.972,175.977 79.096 M211.523 78.802 C 206.536 80.051,206.047 87.145,210.852 88.536 C 217.480 90.455,220.399 81.372,213.939 78.931 C 212.782 78.494,212.759 78.493,211.523 78.802 M164.387 80.701 C 165.745 81.652,165.470 84.405,163.965 84.931 C 161.952 85.635,160.742 84.840,160.742 82.815 C 160.742 80.408,162.508 79.384,164.387 80.701 M229.847 82.192 L 230.593 83.720 229.707 84.438 C 227.115 86.537,223.826 83.517,225.893 80.937 C 226.786 79.824,229.041 80.539,229.847 82.192 M179.855 81.864 C 181.237 83.246,180.135 85.938,178.187 85.938 C 176.984 85.938,175.391 84.526,175.391 83.459 C 175.391 81.543,178.443 80.452,179.855 81.864 M214.230 81.864 C 215.190 82.824,215.020 85.022,213.931 85.736 C 212.300 86.805,209.375 85.533,209.375 83.755 C 209.375 81.805,212.826 80.460,214.230 81.864 M194.636 85.626 C 194.359 85.965,194.176 93.752,194.084 109.180 L 193.945 132.227 195.313 132.227 L 196.680 132.227 196.680 108.789 L 196.680 85.352 195.864 85.235 C 195.416 85.171,194.863 85.347,194.636 85.626 M227.054 89.534 C 226.659 90.018,226.043 111.474,225.996 126.367 L 225.977 132.617 226.901 132.748 C 228.418 132.963,228.487 132.572,228.559 123.431 C 228.597 118.600,228.775 109.712,228.954 103.679 C 229.348 90.388,228.926 87.245,227.054 89.534 M90.606 90.333 C 85.025 94.094,89.309 101.110,95.315 98.046 C 97.696 96.831,98.236 95.112,97.094 92.379 C 95.980 89.713,92.946 88.757,90.606 90.333 M161.859 90.042 C 161.570 90.794,162.019 131.568,162.321 132.057 C 162.647 132.586,163.965 132.505,164.318 131.934 C 164.484 131.666,164.577 128.370,164.526 124.610 C 164.475 120.850,164.358 111.973,164.266 104.883 C 164.175 97.793,164.091 91.421,164.081 90.723 C 164.061 89.332,162.334 88.804,161.859 90.042 M211.748 90.004 C 210.934 90.984,211.520 131.224,212.360 132.037 C 212.545 132.216,213.193 132.264,213.801 132.145 L 214.907 131.928 214.645 126.023 C 214.501 122.775,214.262 113.502,214.113 105.417 C 213.822 89.579,213.553 87.828,211.748 90.004 M297.051 90.003 C 294.303 91.200,293.283 93.438,294.336 95.959 C 295.097 97.781,295.075 98.407,294.238 98.709 C 291.951 99.535,257.085 134.017,257.899 134.648 C 258.174 134.861,258.604 135.152,258.856 135.295 C 259.620 135.729,265.444 130.324,281.381 114.388 C 296.223 99.546,296.584 99.219,298.092 99.219 C 300.489 99.219,302.282 98.290,302.944 96.706 C 304.805 92.252,301.228 88.183,297.051 90.003 M176.996 90.378 C 176.735 90.693,176.553 91.800,176.592 92.839 C 176.702 95.762,176.180 124.075,175.960 127.148 C 175.703 130.731,176.110 132.190,177.412 132.345 C 178.638 132.491,178.812 130.785,178.961 117.188 C 179.234 92.318,179.178 90.050,178.286 89.923 C 177.838 89.858,177.257 90.064,176.996 90.378 M300.142 92.385 C 301.115 93.358,301.284 94.497,300.609 95.527 C 299.384 97.397,296.094 96.261,296.094 93.967 C 296.094 92.197,298.869 91.112,300.142 92.385 M94.948 93.018 C 95.977 94.941,93.408 97.118,91.549 95.900 C 89.720 94.702,90.846 92.188,93.211 92.188 C 94.130 92.188,94.632 92.428,94.948 93.018 M95.836 99.825 C 95.598 100.448,98.931 103.931,120.197 125.275 C 130.244 135.360,130.652 135.683,131.774 134.444 C 132.386 133.768,131.539 132.849,115.210 116.475 C 97.713 98.929,96.561 97.939,95.836 99.825 M140.234 136.364 C 134.565 136.881,132.009 138.104,130.371 141.082 C 129.888 141.961,129.239 143.141,128.930 143.704 C 128.610 144.284,128.254 146.469,128.105 148.755 C 127.705 154.897,127.998 257.394,128.420 258.990 C 129.695 263.815,133.238 267.193,138.281 268.392 C 139.997 268.799,151.650 268.904,196.094 268.911 L 251.758 268.920 253.794 268.012 C 257.011 266.577,260.275 262.637,261.108 259.185 C 261.263 258.543,261.353 253.885,261.307 248.833 C 261.201 236.998,261.194 168.771,261.298 156.144 L 261.378 146.467 260.356 144.230 C 259.116 141.512,256.724 138.963,254.102 137.565 L 252.148 136.523 230.078 136.426 C 172.711 136.173,142.557 136.153,140.234 136.364 M250.783 140.309 C 253.350 141.025,255.191 142.613,256.544 145.278 L 257.814 147.780 257.830 168.519 C 257.839 179.925,257.819 191.104,257.787 193.359 C 257.754 195.615,257.739 197.725,257.755 198.047 C 257.770 198.369,257.773 201.357,257.762 204.688 C 257.750 208.018,257.730 221.025,257.716 233.594 C 257.687 261.180,257.628 261.511,252.222 264.361 L 250.195 265.430 213.086 265.459 C 192.676 265.475,168.106 265.523,158.487 265.565 C 136.617 265.661,136.489 265.635,133.418 260.579 C 131.527 257.466,131.646 261.045,131.505 202.734 C 131.372 147.230,131.339 148.322,133.242 145.649 C 133.737 144.953,134.110 143.989,134.070 143.507 C 133.995 142.599,136.848 140.929,139.648 140.242 C 141.470 139.795,249.173 139.861,250.783 140.309 M144.038 144.985 C 141.588 145.333,137.561 147.825,137.258 149.181 C 137.133 149.739,136.876 150.818,136.686 151.580 C 136.183 153.598,136.250 250.986,136.756 252.867 C 138.007 257.525,142.278 259.917,149.606 260.063 L 155.273 260.176 156.250 259.034 C 157.303 257.803,160.403 256.870,160.069 257.885 C 159.976 258.167,159.474 258.459,158.954 258.534 C 157.975 258.673,157.031 259.267,157.031 259.744 C 157.031 259.894,158.123 260.047,159.458 260.083 C 162.169 260.158,163.638 259.035,165.115 255.762 C 165.478 254.956,166.005 254.297,166.286 254.297 C 167.016 254.297,166.918 253.538,166.150 253.243 C 165.730 253.082,165.243 253.325,164.759 253.939 C 164.349 254.458,163.513 255.475,162.901 256.200 L 161.787 257.516 160.896 256.686 C 160.205 256.042,160.109 255.750,160.471 255.388 C 161.163 254.697,161.039 254.297,160.133 254.297 C 159.691 254.297,159.438 254.121,159.570 253.906 C 159.716 253.670,159.187 253.516,158.236 253.516 C 156.881 253.516,156.576 253.679,156.055 254.688 C 155.415 255.924,154.688 256.246,154.688 255.293 C 154.688 254.981,154.995 254.545,155.371 254.323 C 156.446 253.690,155.270 253.138,152.832 253.131 C 151.704 253.128,150.781 252.952,150.781 252.740 C 150.781 252.528,150.122 252.079,149.316 251.743 C 147.804 251.112,145.313 248.966,145.313 248.294 C 145.312 248.084,145.056 247.630,144.743 247.284 C 143.702 246.133,143.603 241.884,143.684 201.563 C 143.774 157.096,143.648 159.225,146.376 156.205 C 150.052 152.137,147.565 152.333,195.418 152.328 L 236.894 152.323 239.303 153.509 C 244.947 156.287,245.461 157.734,245.560 171.094 C 245.602 176.787,245.651 181.912,245.670 182.483 C 245.697 183.322,245.853 183.481,246.484 183.316 C 246.921 183.202,247.266 183.304,247.266 183.548 C 247.266 183.788,247.540 183.984,247.876 183.984 C 248.240 183.984,248.441 183.708,248.374 183.301 C 248.312 182.925,248.404 182.390,248.579 182.112 C 248.757 181.827,248.699 181.370,248.446 181.065 C 248.093 180.639,248.178 180.426,248.845 180.069 C 250.142 179.375,250.634 180.103,250.082 181.901 C 249.834 182.710,249.783 183.535,249.968 183.766 C 250.150 183.993,250.253 187.080,250.196 190.625 C 250.139 194.170,250.239 197.254,250.418 197.479 C 250.599 197.704,250.506 198.578,250.212 199.432 C 249.919 200.281,249.807 201.152,249.963 201.367 C 250.433 202.016,250.162 204.346,249.574 204.712 C 249.123 204.992,249.112 205.198,249.515 205.847 C 250.147 206.868,249.553 206.876,248.633 205.859 C 248.244 205.430,247.689 205.078,247.400 205.078 C 247.090 205.078,246.875 204.647,246.875 204.027 C 246.875 203.022,246.900 203.009,247.435 203.734 C 247.883 204.342,248.093 204.395,248.489 204.004 C 248.874 203.624,248.880 203.411,248.516 203.047 C 247.788 202.319,247.962 200.933,248.855 200.340 C 249.550 199.879,249.605 199.648,249.246 198.704 C 249.016 198.100,248.828 197.002,248.828 196.264 C 248.828 194.650,247.303 194.211,247.220 195.801 C 247.194 196.284,247.051 195.889,246.901 194.922 C 246.751 193.955,246.662 192.593,246.703 191.895 C 246.744 191.196,246.799 190.269,246.826 189.834 C 246.853 189.399,247.271 188.892,247.754 188.707 C 249.147 188.174,250.284 186.745,249.635 186.344 C 249.343 186.164,249.211 185.741,249.340 185.403 C 249.737 184.369,248.992 184.346,248.036 185.364 C 246.888 186.586,246.484 186.582,246.484 185.352 C 246.484 183.240,245.801 184.529,245.563 187.090 C 245.155 191.479,245.285 217.905,245.715 218.172 C 245.959 218.322,245.946 218.686,245.680 219.184 C 245.246 219.995,245.364 223.745,245.849 224.530 C 246.004 224.780,245.947 225.326,245.723 225.745 C 244.977 227.139,245.621 227.856,246.791 226.935 C 248.273 225.770,249.209 224.380,248.269 224.740 C 247.679 224.967,247.608 224.856,247.816 224.028 C 248.016 223.230,247.919 223.047,247.295 223.047 C 246.653 223.047,246.544 222.810,246.626 221.582 C 246.718 220.193,246.793 220.117,248.069 220.113 C 248.809 220.110,249.659 219.952,249.959 219.761 C 250.397 219.483,250.451 219.627,250.235 220.487 C 250.074 221.129,250.152 221.783,250.429 222.117 C 250.684 222.424,250.786 222.782,250.655 222.912 C 250.525 223.043,250.593 223.476,250.807 223.876 C 251.092 224.408,251.019 224.870,250.536 225.607 C 249.875 226.617,251.020 228.798,251.801 228.017 C 252.618 227.200,252.340 152.676,251.513 150.753 C 250.603 148.637,248.341 146.368,246.148 145.372 C 244.668 144.700,148.605 144.335,144.038 144.985 M144.598 148.693 C 145.019 149.074,145.313 149.877,145.313 150.646 C 145.313 152.081,144.910 152.231,142.738 151.608 C 142.020 151.403,141.274 151.410,140.885 151.628 C 140.341 151.932,140.234 151.799,140.234 150.815 C 140.234 149.811,140.478 149.527,141.895 148.876 C 143.977 147.919,143.758 147.933,144.598 148.693 M246.617 149.121 C 246.715 149.282,246.286 150.023,245.663 150.766 C 244.726 151.886,244.531 151.985,244.531 151.342 C 244.531 149.930,246.095 148.265,246.617 149.121 M227.317 156.012 C 227.195 156.136,210.344 156.247,189.869 156.258 C 148.470 156.280,150.565 156.146,149.337 158.865 C 148.968 159.683,148.394 160.703,148.063 161.133 C 147.117 162.360,147.537 242.984,148.498 244.727 C 150.568 248.478,153.100 249.392,160.546 249.075 C 166.080 248.839,181.705 248.811,220.907 248.966 L 235.368 249.023 237.298 248.032 C 238.797 247.261,239.448 246.610,240.219 245.112 L 241.211 243.185 241.314 202.642 C 241.433 155.600,241.852 159.559,236.463 156.708 C 235.565 156.232,227.689 155.633,227.317 156.012 M249.603 156.348 C 249.593 157.191,248.935 157.925,248.454 157.628 C 248.122 157.422,248.191 157.143,248.704 156.624 C 249.570 155.748,249.611 155.735,249.603 156.348 M249.524 161.388 C 249.441 161.637,248.990 161.981,248.521 162.155 C 247.748 162.441,247.713 162.398,248.147 161.704 C 248.657 160.887,249.777 160.631,249.524 161.388 M249.609 163.416 C 249.609 163.705,249.274 164.245,248.863 164.617 C 248.453 164.988,248.007 165.731,247.872 166.267 C 247.582 167.423,246.733 167.296,246.553 166.071 C 246.470 165.502,246.848 164.818,247.669 164.051 C 249.019 162.790,249.609 162.597,249.609 163.416 M72.252 166.328 C 69.674 168.906,69.932 172.502,72.820 174.263 C 75.134 175.674,78.453 174.552,79.356 172.054 C 79.772 170.903,80.000 170.704,80.653 170.924 C 82.154 171.429,92.031 171.712,107.617 171.696 L 123.242 171.680 123.242 170.313 L 123.242 168.945 103.711 168.946 C 92.969 168.947,83.183 169.079,81.964 169.239 L 79.748 169.531 79.301 168.177 C 78.160 164.720,74.754 163.826,72.252 166.328 M313.013 165.606 C 309.794 167.569,309.928 172.668,313.236 174.069 C 316.223 175.333,319.780 173.285,320.161 170.082 C 320.615 166.267,316.329 163.583,313.013 165.606 M249.834 167.484 C 249.363 167.955,249.138 167.178,249.443 166.131 L 249.761 165.039 249.910 166.149 C 249.992 166.759,249.958 167.360,249.834 167.484 M316.991 167.968 C 317.801 168.862,317.877 171.054,317.114 171.538 C 315.491 172.567,312.891 171.489,312.891 169.786 C 312.891 167.496,315.512 166.333,316.991 167.968 M76.779 168.532 C 77.668 169.888,77.362 171.180,75.999 171.831 C 73.785 172.889,71.838 170.619,73.037 168.379 C 73.676 167.183,75.956 167.277,76.779 168.532 M248.669 168.943 C 249.146 169.579,249.640 169.841,250.091 169.698 C 250.778 169.480,251.075 170.279,250.515 170.839 C 250.128 171.226,250.386 175.434,250.850 176.300 C 251.121 176.807,251.111 177.170,250.817 177.464 C 250.583 177.699,250.391 178.207,250.391 178.594 C 250.391 178.980,250.225 179.297,250.023 179.297 C 249.458 179.297,249.157 178.600,249.603 178.324 C 250.091 178.023,250.132 176.563,249.653 176.563 C 249.462 176.563,249.190 175.947,249.049 175.195 C 248.849 174.130,248.603 173.825,247.932 173.816 C 247.101 173.804,247.108 173.770,248.145 172.858 C 249.536 171.633,249.505 170.650,248.047 169.789 C 246.846 169.079,246.455 167.969,247.406 167.969 C 247.698 167.969,248.267 168.407,248.669 168.943 M265.554 169.185 C 265.340 169.317,265.225 169.842,265.298 170.353 C 265.499 171.769,267.621 171.927,282.813 171.661 C 304.909 171.273,308.547 171.169,308.971 170.907 C 309.783 170.405,309.343 169.586,308.105 169.297 C 306.596 168.944,266.115 168.838,265.554 169.185 M247.775 171.582 C 247.118 172.805,247.087 172.817,246.950 171.919 C 246.871 171.406,247.042 170.838,247.329 170.656 C 248.318 170.029,248.456 170.315,247.775 171.582 M220.564 173.295 C 223.342 174.613,223.655 176.702,221.435 179.110 C 219.009 181.742,215.127 181.402,214.105 178.469 C 212.664 174.335,216.418 171.328,220.564 173.295 M247.738 175.887 C 247.676 176.252,247.875 177.027,248.180 177.611 C 248.697 178.597,248.670 178.723,247.785 179.419 C 246.693 180.278,246.108 180.028,246.917 179.047 C 247.339 178.536,247.352 178.352,246.973 178.224 C 246.146 177.946,246.335 174.912,247.168 175.083 C 247.558 175.163,247.803 175.508,247.738 175.887 M197.972 180.859 C 198.170 185.008,197.112 187.749,196.301 185.192 C 195.913 183.972,195.183 183.881,184.134 183.686 L 173.542 183.499 173.392 185.597 C 173.310 186.751,173.330 190.508,173.438 193.945 L 173.633 200.195 182.186 200.301 C 189.488 200.391,190.878 200.315,191.692 199.781 C 193.019 198.912,193.118 199.143,193.294 203.535 C 193.462 207.711,193.410 207.826,191.903 206.641 C 190.978 205.912,190.319 205.859,182.174 205.859 L 173.438 205.859 173.426 207.520 C 173.419 208.433,173.354 212.385,173.281 216.303 C 173.189 221.250,173.283 223.538,173.588 223.791 C 174.724 224.734,196.058 224.132,196.386 223.148 C 197.497 219.814,198.892 221.681,198.744 226.304 L 198.633 229.766 184.766 229.631 C 177.139 229.557,169.370 229.538,167.502 229.589 C 163.166 229.709,162.401 228.602,165.830 227.170 C 167.588 226.435,167.602 226.244,167.600 203.090 C 167.598 180.727,167.730 181.859,164.974 180.520 C 163.401 179.756,162.909 179.018,163.546 178.381 C 163.691 178.236,171.470 178.163,180.831 178.219 L 197.852 178.320 197.972 180.859 M247.596 181.816 C 247.682 182.261,247.541 182.449,247.205 182.337 C 246.916 182.241,246.619 181.849,246.545 181.466 C 246.458 181.020,246.599 180.832,246.935 180.944 C 247.224 181.041,247.522 181.433,247.596 181.816 M306.332 181.471 C 305.851 181.808,305.106 182.774,304.674 183.620 C 303.837 185.261,303.551 185.426,302.814 184.689 C 302.297 184.172,271.066 183.728,267.285 184.184 C 264.958 184.465,264.098 186.456,266.113 186.896 C 268.983 187.521,301.890 186.897,302.658 186.202 C 303.323 185.600,303.496 185.577,303.773 186.051 C 304.193 186.770,306.376 187.891,307.355 187.891 C 308.747 187.891,309.213 186.817,308.260 185.803 C 307.379 184.865,307.158 183.984,307.803 183.984 C 308.013 183.984,308.474 183.544,308.826 183.006 C 309.972 181.258,308.196 180.165,306.332 181.471 M80.859 182.247 C 80.859 182.580,81.373 183.032,82.000 183.251 C 84.031 183.959,83.266 186.742,81.190 186.199 C 80.246 185.952,79.799 186.888,80.473 187.700 C 81.074 188.424,84.789 188.493,85.488 187.793 C 85.862 187.419,90.297 187.281,104.414 187.203 C 124.770 187.090,123.930 187.158,123.757 185.647 C 123.577 184.083,121.431 183.926,102.734 184.112 L 86.914 184.269 85.104 182.955 C 83.136 181.526,80.859 181.147,80.859 182.247 M248.438 186.836 C 248.438 187.399,247.674 188.281,247.187 188.281 C 246.678 188.281,246.832 186.801,247.363 186.587 C 248.193 186.252,248.438 186.309,248.438 186.836 M220.605 187.106 C 224.504 187.110,225.407 187.694,223.032 188.678 C 222.379 188.948,221.676 189.486,221.469 189.872 C 221.057 190.643,221.030 214.723,221.435 221.471 L 221.680 225.559 223.047 226.444 C 226.465 228.659,226.204 229.096,221.450 229.119 C 219.428 229.128,216.609 229.278,215.185 229.452 C 211.663 229.882,211.002 228.664,213.907 227.100 C 215.753 226.106,215.686 226.897,215.550 207.659 L 215.430 190.555 214.508 189.809 C 214.000 189.398,213.248 189.063,212.835 189.063 C 211.750 189.063,211.437 187.894,212.339 187.216 C 212.868 186.818,213.656 186.719,215.039 186.878 C 216.113 187.002,218.618 187.104,220.605 187.106 M247.445 190.651 C 247.088 191.228,247.500 191.549,248.745 191.664 C 249.328 191.718,249.585 191.667,249.316 191.552 C 249.048 191.436,248.828 191.092,248.828 190.788 C 248.828 190.142,247.821 190.042,247.445 190.651 M70.649 197.573 C 67.725 200.301,68.359 204.215,72.016 206.007 C 75.110 207.523,77.777 205.725,78.050 201.938 C 78.439 196.568,74.327 194.143,70.649 197.573 M314.130 197.184 C 313.556 197.784,312.791 198.830,312.431 199.509 C 311.815 200.671,311.701 200.721,310.478 200.352 C 309.064 199.926,267.702 199.396,266.156 199.784 C 265.136 200.040,264.951 201.026,265.725 202.085 C 266.326 202.906,307.431 203.101,310.343 202.296 C 311.690 201.924,311.951 201.958,312.297 202.548 C 314.494 206.303,318.372 206.790,320.645 203.597 C 323.618 199.422,317.631 193.528,314.130 197.184 M248.300 199.414 C 248.235 199.629,247.775 199.864,247.278 199.937 C 246.570 200.040,246.428 199.928,246.625 199.416 C 246.762 199.058,246.879 198.383,246.884 197.917 C 246.892 197.092,246.912 197.095,247.656 198.047 C 248.076 198.584,248.365 199.199,248.300 199.414 M318.772 199.650 C 319.590 201.178,318.351 203.125,316.560 203.125 C 314.895 203.125,313.703 200.314,314.941 199.309 C 316.144 198.332,318.163 198.512,318.772 199.650 M75.558 199.442 C 77.006 200.890,75.654 203.516,73.460 203.516 C 72.269 203.516,71.094 202.351,71.094 201.172 C 71.094 199.171,74.116 198.000,75.558 199.442 M84.375 199.905 C 80.884 200.042,80.078 200.272,80.078 201.131 C 80.078 202.663,80.505 202.695,101.884 202.784 C 123.972 202.875,123.599 202.907,123.370 200.949 L 123.242 199.850 105.078 199.827 C 95.088 199.815,85.771 199.850,84.375 199.905 M247.852 207.422 C 247.650 208.338,247.729 208.594,248.211 208.594 C 248.550 208.594,248.828 208.418,248.828 208.203 C 248.828 207.415,249.888 207.842,250.328 208.807 C 250.884 210.028,250.903 210.547,250.391 210.547 C 250.176 210.547,250.000 210.278,250.000 209.949 C 250.000 209.046,248.975 208.837,247.978 209.535 C 246.712 210.422,246.665 210.369,246.815 208.203 C 246.912 206.798,247.113 206.250,247.530 206.250 C 247.970 206.250,248.047 206.531,247.852 207.422 M249.905 210.848 C 249.999 211.131,249.552 211.525,248.863 211.765 C 248.199 211.996,247.656 212.344,247.656 212.538 C 247.656 213.020,248.724 212.985,249.027 212.494 C 249.416 211.865,249.947 212.424,249.734 213.238 C 249.628 213.643,249.741 214.098,249.985 214.249 C 250.287 214.435,250.303 214.674,250.035 214.997 C 249.766 215.321,249.821 215.817,250.211 216.569 C 251.637 219.317,250.053 219.972,246.539 218.089 C 246.462 218.048,246.796 217.456,247.281 216.775 C 248.122 215.594,248.133 215.486,247.519 214.446 C 246.643 212.963,246.710 211.903,247.743 210.941 C 248.670 210.077,249.635 210.036,249.905 210.848 M140.862 211.555 C 140.732 211.895,140.625 212.247,140.625 212.337 C 140.625 212.426,140.361 212.500,140.039 212.500 C 139.333 212.500,139.284 212.044,139.922 211.406 C 140.589 210.739,141.142 210.826,140.862 211.555 M306.414 212.455 C 305.753 212.859,304.978 213.751,304.694 214.438 C 304.180 215.679,304.161 215.686,301.990 215.459 C 298.536 215.097,268.314 214.849,266.797 215.170 C 265.290 215.488,264.760 216.698,265.762 217.529 C 266.403 218.062,298.104 218.281,302.015 217.780 C 304.005 217.525,304.269 217.577,304.657 218.302 C 305.276 219.459,307.535 219.803,308.852 218.940 L 309.887 218.262 308.649 217.741 C 306.768 216.950,306.712 216.180,308.408 214.443 C 310.619 212.179,309.195 210.759,306.414 212.455 M81.581 213.184 C 78.835 216.472,80.994 221.212,84.519 219.631 C 87.386 218.345,88.297 218.279,105.452 218.106 C 116.996 217.989,122.987 217.790,123.323 217.511 C 123.968 216.976,123.978 215.653,123.340 215.429 C 121.769 214.877,97.196 215.085,86.914 215.737 C 86.484 215.765,85.801 216.094,85.395 216.469 C 84.728 217.086,84.550 217.096,83.539 216.573 C 81.663 215.603,82.715 214.850,85.449 215.205 C 86.232 215.307,86.013 214.163,85.083 213.296 C 84.034 212.319,82.349 212.265,81.581 213.184 M248.051 216.987 C 247.445 217.718,248.182 218.824,249.052 218.490 C 249.758 218.219,249.769 217.416,249.075 216.840 C 248.669 216.503,248.424 216.538,248.051 216.987 M247.873 221.317 C 247.366 221.691,247.243 222.008,247.503 222.269 C 247.763 222.529,248.147 222.472,248.654 222.098 C 249.161 221.724,249.284 221.407,249.023 221.146 C 248.763 220.886,248.379 220.943,247.873 221.317 M247.843 227.744 C 247.255 228.394,247.239 228.516,247.743 228.516 C 248.493 228.516,249.386 227.493,248.899 227.192 C 248.703 227.071,248.228 227.319,247.843 227.744 M72.773 228.095 C 69.645 230.038,69.507 234.552,72.515 236.523 C 74.768 237.999,77.593 237.103,78.851 234.512 C 79.600 232.971,79.840 232.766,80.651 232.970 C 82.267 233.375,120.473 233.023,122.583 232.583 C 123.301 232.433,123.462 232.177,123.364 231.334 L 123.242 230.273 110.352 230.312 C 93.116 230.364,81.833 230.729,80.826 231.268 C 79.889 231.769,79.982 231.830,79.143 230.179 C 77.902 227.739,74.918 226.762,72.773 228.095 M312.588 228.127 C 309.510 230.003,310.127 235.885,313.496 236.786 C 316.381 237.557,319.531 235.253,319.531 232.373 C 319.531 228.383,315.855 226.135,312.588 228.127 M245.748 230.859 C 245.777 233.907,245.736 233.846,247.127 232.935 L 248.133 232.276 247.268 231.956 C 246.715 231.751,246.484 231.424,246.628 231.048 C 246.917 230.296,246.491 228.125,246.055 228.125 C 245.872 228.125,245.734 229.355,245.748 230.859 M249.316 228.802 C 248.395 229.421,248.152 230.078,248.844 230.078 C 249.445 230.078,250.894 228.630,250.518 228.405 C 250.340 228.299,249.800 228.478,249.316 228.802 M250.485 230.072 C 249.855 231.081,249.871 231.828,250.534 232.379 C 251.282 233.000,252.047 232.003,251.884 230.620 C 251.727 229.289,251.122 229.052,250.485 230.072 M76.016 230.377 C 77.841 231.596,77.101 234.426,74.887 234.692 C 73.701 234.834,72.266 233.591,72.266 232.422 C 72.266 230.801,74.679 229.485,76.016 230.377 M265.527 230.288 C 264.275 231.619,265.234 232.712,267.871 232.955 C 274.626 233.579,308.216 233.358,308.889 232.685 C 309.977 231.597,308.926 231.137,304.600 230.809 C 298.704 230.361,265.870 229.923,265.527 230.288 M316.473 230.725 C 317.404 231.567,317.379 232.621,316.406 233.594 C 314.289 235.711,311.143 233.006,313.146 230.792 C 313.951 229.903,315.530 229.871,316.473 230.725 M248.303 233.382 C 248.141 233.804,248.311 233.984,248.873 233.984 C 249.318 233.984,249.606 233.778,249.520 233.521 C 249.279 232.797,248.558 232.715,248.303 233.382 M250.568 234.410 C 250.224 235.074,250.030 235.844,250.137 236.120 C 250.243 236.397,250.171 236.782,249.977 236.976 C 249.768 237.185,249.791 237.929,250.033 238.808 C 250.346 239.940,250.322 240.432,249.931 240.903 C 249.485 241.441,249.532 241.484,250.296 241.241 C 251.354 240.905,251.472 241.599,250.533 242.637 C 249.949 243.281,249.947 243.452,250.506 244.605 C 251.275 246.194,251.001 246.704,249.945 245.648 C 249.361 245.064,248.833 244.901,248.040 245.060 C 246.436 245.381,246.009 244.590,246.435 242.090 C 246.518 241.599,247.970 241.764,248.156 242.285 C 248.252 242.554,248.447 242.667,248.589 242.536 C 249.120 242.048,248.318 241.016,247.407 241.016 C 246.227 241.016,245.728 239.905,246.616 239.256 C 246.973 238.995,247.266 238.581,247.266 238.336 C 247.266 238.091,247.397 237.889,247.559 237.888 C 247.720 237.886,248.055 237.446,248.303 236.911 C 248.818 235.800,248.829 235.808,247.486 236.318 C 246.424 236.722,246.176 236.402,246.952 235.626 C 247.314 235.264,247.249 235.034,246.659 234.602 C 245.918 234.058,245.891 234.190,245.592 239.771 C 245.386 243.633,245.418 245.543,245.690 245.634 C 246.304 245.838,246.172 246.484,245.516 246.484 C 245.198 246.484,244.589 247.167,244.163 248.002 C 243.435 249.430,241.423 251.321,239.636 252.255 C 238.484 252.858,238.319 255.243,239.455 254.882 C 239.993 254.711,240.219 254.790,240.147 255.123 C 240.087 255.395,240.347 255.685,240.723 255.767 C 241.235 255.879,241.406 255.665,241.406 254.911 C 241.406 253.629,242.095 253.612,242.578 254.883 C 243.079 256.201,243.620 256.117,243.620 254.721 C 243.620 253.402,242.375 252.908,241.206 253.763 C 240.501 254.279,239.844 254.154,239.844 253.504 C 239.844 253.308,240.547 252.748,241.407 252.258 C 242.266 251.768,243.057 251.104,243.163 250.781 C 243.457 249.895,245.672 247.656,246.256 247.656 C 246.539 247.656,247.217 247.304,247.764 246.874 C 248.807 246.054,250.000 246.181,250.000 247.112 C 250.000 247.411,250.264 247.656,250.586 247.656 C 251.269 247.656,251.361 248.483,250.747 249.097 C 250.441 249.402,250.441 249.595,250.747 249.784 C 251.571 250.293,251.193 251.172,250.150 251.172 C 249.320 251.172,249.166 251.025,249.332 250.391 C 249.482 249.818,249.344 249.609,248.815 249.609 C 247.772 249.609,247.465 250.360,248.268 250.947 C 248.927 251.429,248.927 251.469,248.264 251.839 C 247.610 252.206,247.609 252.242,248.249 252.488 C 248.622 252.631,249.176 252.541,249.480 252.289 C 249.840 251.990,250.166 251.963,250.415 252.212 C 250.798 252.595,250.383 252.869,247.890 253.876 C 247.082 254.203,246.877 254.455,247.176 254.754 C 247.684 255.262,247.369 256.250,246.698 256.250 C 246.432 256.250,245.897 256.602,245.508 257.031 C 245.119 257.461,244.327 257.813,243.748 257.813 C 242.408 257.813,240.234 258.561,240.234 259.023 C 240.234 259.216,239.883 259.375,239.453 259.375 C 239.023 259.375,238.672 259.551,238.672 259.766 C 238.672 259.991,239.911 260.156,241.607 260.156 C 246.136 260.156,250.981 256.928,251.753 253.396 C 252.032 252.120,252.060 251.342,252.017 245.898 C 252.004 244.180,252.043 240.840,252.104 238.477 C 252.248 232.857,251.878 231.876,250.568 234.410 M245.239 249.707 C 244.532 250.828,244.767 251.953,245.709 251.953 C 246.566 251.953,247.062 251.334,246.489 250.980 C 246.270 250.844,246.198 250.305,246.330 249.781 C 246.631 248.583,245.975 248.539,245.239 249.707 M146.875 252.344 C 146.118 252.833,145.703 252.833,145.703 252.344 C 145.703 252.129,146.099 251.956,146.582 251.959 C 147.293 251.964,147.349 252.038,146.875 252.344 M236.986 252.988 C 236.839 253.135,236.719 253.680,236.719 254.199 C 236.719 255.281,237.617 255.221,237.830 254.125 C 237.979 253.353,237.400 252.574,236.986 252.988 M145.272 255.988 C 144.712 257.216,144.593 257.234,142.787 256.373 C 141.074 255.556,141.048 254.992,142.676 253.958 L 143.945 253.151 144.846 254.048 C 145.641 254.839,145.691 255.067,145.272 255.988 M161.523 253.516 C 161.078 254.237,161.715 254.717,162.535 254.278 C 162.957 254.052,163.200 253.700,163.074 253.496 C 162.773 253.009,161.829 253.021,161.523 253.516 M167.250 253.952 C 166.569 255.041,166.911 255.277,168.069 254.519 C 169.218 253.766,172.035 253.826,171.402 254.590 C 171.180 254.858,170.651 255.078,170.226 255.078 C 169.801 255.078,168.656 255.913,167.681 256.934 C 166.604 258.061,165.840 258.597,165.734 258.301 C 165.491 257.619,164.844 257.689,164.844 258.398 C 164.844 258.724,164.497 258.984,164.063 258.984 C 163.633 258.984,163.281 259.235,163.281 259.542 C 163.281 260.374,174.858 260.205,175.441 259.364 C 175.744 258.929,175.889 258.908,176.039 259.277 C 176.520 260.464,179.982 257.808,179.829 256.369 C 179.755 255.674,180.092 255.729,180.659 256.505 C 181.091 257.095,181.204 257.078,181.982 256.300 L 182.832 255.449 181.846 255.696 C 181.097 255.884,180.859 255.793,180.859 255.316 C 180.859 254.540,180.315 254.520,178.967 255.246 C 177.396 256.092,175.527 256.602,174.734 256.402 C 174.279 256.287,173.427 256.789,172.362 257.799 C 171.449 258.666,170.526 259.375,170.312 259.375 C 169.598 259.375,169.909 258.297,170.892 257.365 C 171.425 256.859,171.865 256.241,171.868 255.992 C 171.872 255.742,172.402 255.094,173.047 254.552 C 174.632 253.219,174.654 253.233,170.988 253.183 C 168.113 253.144,167.701 253.229,167.250 253.952 M175.339 253.830 C 174.464 254.443,174.374 255.469,175.195 255.469 C 175.518 255.469,175.781 255.210,175.781 254.894 C 175.781 254.476,176.179 254.344,177.246 254.406 C 178.284 254.467,178.711 254.332,178.711 253.944 C 178.711 253.224,176.319 253.144,175.339 253.830 M182.031 253.516 C 181.588 253.802,181.760 253.896,182.738 253.900 C 183.501 253.904,183.932 253.746,183.789 253.516 C 183.486 253.025,182.791 253.025,182.031 253.516 M187.310 253.506 C 187.191 253.700,187.404 254.034,187.785 254.249 C 188.311 254.546,188.368 254.748,188.022 255.098 C 187.425 255.701,186.719 255.237,186.719 254.241 C 186.719 253.781,186.515 253.520,186.230 253.617 C 185.962 253.708,185.742 254.230,185.742 254.778 C 185.742 255.325,185.435 256.114,185.059 256.530 C 184.683 256.947,184.375 257.582,184.375 257.941 C 184.375 258.958,185.457 258.709,186.201 257.520 C 186.571 256.929,186.922 256.376,186.982 256.292 C 187.042 256.208,187.358 256.361,187.686 256.633 C 188.186 257.047,188.281 257.001,188.281 256.346 C 188.281 255.916,188.545 255.346,188.867 255.078 C 189.189 254.811,189.453 254.466,189.453 254.312 C 189.453 253.842,187.546 253.125,187.310 253.506 M192.589 253.501 C 192.094 253.814,192.105 253.899,192.668 254.115 C 193.694 254.509,192.652 255.956,191.542 255.681 C 190.268 255.366,188.189 257.301,188.726 258.304 C 189.253 259.288,188.750 259.763,188.109 258.886 C 187.382 257.892,186.573 257.980,187.200 258.984 C 188.399 260.905,193.750 257.698,193.750 255.059 C 193.750 254.665,193.929 254.233,194.147 254.098 C 194.632 253.798,194.270 253.123,193.629 253.131 C 193.373 253.134,192.905 253.301,192.589 253.501 M201.976 253.971 C 201.180 254.827,200.941 255.469,201.420 255.469 C 201.916 255.469,203.456 253.525,203.123 253.319 C 202.935 253.203,202.419 253.496,201.976 253.971 M207.910 254.142 C 207.427 254.693,207.031 255.305,207.031 255.502 C 207.031 256.101,207.738 255.901,208.279 255.150 C 208.559 254.760,209.097 254.326,209.473 254.186 C 209.849 254.046,210.156 253.749,210.156 253.528 C 210.156 252.766,208.788 253.140,207.910 254.142 M217.389 253.506 C 217.271 253.696,217.350 253.960,217.564 254.093 C 218.209 254.491,217.091 255.859,216.120 255.859 C 215.637 255.859,215.036 256.187,214.786 256.588 C 214.536 256.989,214.051 257.254,213.708 257.176 C 213.331 257.091,212.747 257.573,212.225 258.401 L 211.364 259.766 212.323 259.766 C 212.850 259.766,213.281 259.595,213.281 259.387 C 213.281 259.179,213.517 259.099,213.805 259.210 C 214.092 259.320,214.553 259.139,214.829 258.807 C 215.105 258.475,215.528 258.197,215.770 258.189 C 216.819 258.156,218.276 256.405,218.431 254.992 C 218.583 253.608,217.915 252.655,217.389 253.506 M195.752 254.521 C 195.116 255.154,194.895 255.713,195.048 256.298 C 195.170 256.767,195.016 257.643,194.706 258.244 C 193.876 259.847,194.012 260.018,195.145 258.796 C 195.698 258.199,196.154 257.339,196.160 256.883 C 196.180 255.129,196.540 254.250,197.375 253.914 C 198.165 253.596,198.173 253.567,197.461 253.582 C 197.031 253.591,196.262 254.014,195.752 254.521 M211.125 255.176 C 210.733 256.089,210.396 257.024,210.376 257.254 C 210.355 257.483,210.030 258.143,209.652 258.719 C 209.057 259.627,209.046 259.766,209.570 259.766 C 209.902 259.766,210.384 259.282,210.642 258.691 C 210.899 258.101,211.774 256.937,212.586 256.106 C 214.368 254.283,214.476 253.516,212.950 253.516 C 212.013 253.516,211.725 253.778,211.125 255.176 M233.517 256.629 C 232.807 257.923,231.919 259.082,231.543 259.205 C 230.404 259.576,230.775 260.000,232.239 260.000 C 233.400 260.000,233.652 259.843,233.834 259.004 C 234.221 257.218,234.374 256.947,234.888 257.145 C 235.238 257.279,235.406 256.928,235.432 256.012 C 235.492 253.907,234.907 254.096,233.517 256.629 M228.125 255.492 C 228.125 255.934,228.301 256.187,228.516 256.055 C 228.730 255.922,228.906 255.560,228.906 255.250 C 228.906 254.941,228.730 254.688,228.516 254.688 C 228.301 254.688,228.125 255.049,228.125 255.492 M183.582 255.791 C 183.098 256.183,182.775 256.723,182.864 256.991 C 183.043 257.528,185.156 256.099,185.156 255.440 C 185.156 254.875,184.544 255.012,183.582 255.791 M197.965 255.491 C 197.215 255.929,197.471 257.186,198.250 256.887 C 198.521 256.783,199.095 257.026,199.525 257.427 C 200.388 258.231,200.781 258.075,200.781 256.930 C 200.781 256.505,200.440 256.088,200.000 255.973 C 199.570 255.860,199.219 255.613,199.219 255.423 C 199.219 254.980,198.804 255.002,197.965 255.491 M204.921 255.705 C 204.750 256.152,204.400 256.263,203.707 256.089 C 202.365 255.752,202.484 256.458,203.887 257.158 C 205.047 257.737,206.250 256.884,206.250 255.482 C 206.250 254.837,205.186 255.015,204.921 255.705 M161.507 255.885 C 161.366 256.115,161.344 256.396,161.458 256.510 C 161.738 256.790,162.500 256.297,162.500 255.836 C 162.500 255.337,161.826 255.370,161.507 255.885 M208.984 255.811 C 208.984 255.999,208.455 256.258,207.808 256.388 C 207.061 256.537,206.466 256.988,206.176 257.624 C 205.803 258.442,205.530 258.583,204.680 258.397 C 203.993 258.246,203.470 258.373,203.139 258.772 C 202.405 259.657,201.864 259.507,202.142 258.496 C 202.377 257.642,202.367 257.639,201.778 258.375 C 200.819 259.575,201.032 259.766,203.333 259.766 C 204.841 259.766,205.558 259.598,205.707 259.210 C 206.013 258.411,207.040 258.115,207.676 258.643 C 207.976 258.892,208.350 258.959,208.506 258.791 C 208.661 258.624,208.569 258.408,208.301 258.312 C 207.550 258.044,207.722 257.422,208.546 257.422 C 209.426 257.422,210.324 256.448,209.972 255.876 C 209.666 255.382,208.984 255.336,208.984 255.811 M224.308 256.323 C 224.393 256.578,224.672 256.857,224.927 256.942 C 225.212 257.037,225.300 256.858,225.154 256.478 C 224.881 255.768,224.074 255.620,224.308 256.323 M236.719 256.641 C 236.719 257.075,236.979 257.422,237.305 257.422 C 237.630 257.422,237.891 257.075,237.891 256.641 C 237.891 256.207,237.630 255.859,237.305 255.859 C 236.979 255.859,236.719 256.207,236.719 256.641 M219.621 256.714 C 219.862 257.438,220.703 257.558,220.703 256.868 C 220.703 256.528,220.425 256.250,220.085 256.250 C 219.744 256.250,219.536 256.459,219.621 256.714 M239.063 257.204 C 239.063 257.753,239.238 258.203,239.453 258.203 C 239.668 258.203,239.844 257.862,239.844 257.445 C 239.844 257.028,239.668 256.578,239.453 256.445 C 239.232 256.308,239.063 256.637,239.063 257.204 M228.965 257.012 C 229.051 257.270,229.249 257.467,229.404 257.451 C 229.871 257.403,229.781 256.867,229.277 256.699 C 229.020 256.613,228.879 256.754,228.965 257.012 M222.715 257.402 C 222.801 257.660,222.999 257.858,223.154 257.842 C 223.621 257.793,223.531 257.258,223.027 257.090 C 222.770 257.004,222.629 257.145,222.715 257.402 M196.738 258.594 C 196.328 259.416,196.290 259.762,196.612 259.753 C 197.472 259.730,198.539 258.641,198.303 258.027 C 197.947 257.098,197.382 257.303,196.738 258.594 M181.650 258.779 C 180.831 259.650,180.808 259.770,181.413 260.003 C 182.183 260.298,182.613 259.941,182.990 258.691 C 183.338 257.539,182.781 257.575,181.650 258.779 M219.141 258.594 C 218.846 259.144,218.323 259.375,217.369 259.375 C 216.625 259.375,216.016 259.533,216.016 259.727 C 216.016 260.082,221.034 259.955,221.399 259.590 C 221.508 259.482,221.307 259.283,220.954 259.147 C 220.601 259.012,220.313 258.656,220.313 258.357 C 220.313 257.555,219.622 257.695,219.141 258.594 M226.172 258.431 C 226.172 258.771,226.381 258.980,226.636 258.895 C 227.360 258.653,227.480 257.813,226.790 257.813 C 226.450 257.813,226.172 258.091,226.172 258.431 M192.383 258.984 C 191.700 259.738,191.701 259.766,192.387 259.766 C 192.779 259.766,192.983 259.650,192.842 259.509 C 192.701 259.367,192.781 259.016,193.020 258.727 C 193.707 257.900,193.168 258.117,192.383 258.984 M236.719 259.766 C 236.719 259.980,236.982 260.156,237.305 260.156 C 237.627 260.156,237.891 259.980,237.891 259.766 C 237.891 259.551,237.627 259.375,237.305 259.375 C 236.982 259.375,236.719 259.551,236.719 259.766 M128.401 272.168 C 126.516 273.887,120.969 279.454,110.594 290.039 C 102.875 297.915,97.211 304.310,97.343 305.001 C 97.688 306.814,99.057 305.863,105.473 299.354 C 109.015 295.760,113.408 291.307,115.234 289.458 C 120.751 283.873,131.827 272.198,131.971 271.816 C 132.133 271.383,131.296 270.313,130.795 270.313 C 130.597 270.313,129.520 271.147,128.401 272.168 M258.854 270.964 C 258.193 271.625,258.853 272.562,262.335 275.902 C 264.392 277.877,269.360 282.744,273.375 286.719 C 290.446 303.620,291.671 304.759,292.633 304.622 C 295.022 304.282,294.279 303.438,275.159 284.766 C 259.986 269.948,259.923 269.895,258.854 270.964 M162.687 273.590 C 161.733 274.288,161.462 312.398,162.405 313.342 C 163.753 314.691,164.125 312.968,164.285 304.639 C 164.920 271.603,164.938 271.945,162.687 273.590 M226.686 274.316 C 226.287 275.417,226.486 310.788,226.900 312.339 C 227.131 313.199,227.436 313.477,228.153 313.477 L 229.102 313.477 229.051 307.813 C 229.023 304.697,228.970 296.195,228.934 288.918 C 228.898 281.641,228.767 275.181,228.643 274.563 C 228.368 273.187,227.152 273.034,226.686 274.316 M176.276 274.510 C 175.884 275.533,175.881 275.418,177.098 309.180 C 177.160 310.898,177.347 312.613,177.515 312.990 C 177.756 313.534,177.528 313.798,176.417 314.262 C 171.753 316.211,173.194 322.656,178.294 322.656 C 182.751 322.656,184.860 318.376,181.875 315.391 C 181.145 314.660,180.207 314.063,179.792 314.063 C 178.670 314.063,178.489 313.685,179.136 312.698 C 179.857 311.597,179.584 292.887,178.689 282.046 C 178.379 278.295,178.125 274.911,178.125 274.527 C 178.125 273.608,176.627 273.595,176.276 274.510 M195.127 274.598 C 193.960 275.888,193.854 277.865,194.001 295.595 C 194.143 312.640,194.245 315.616,194.733 316.875 C 194.927 317.376,194.653 317.680,193.615 318.114 C 189.004 320.040,191.004 327.183,196.114 327.038 C 201.008 326.899,202.323 317.969,197.449 317.969 C 196.326 317.969,195.872 317.340,196.473 316.616 C 196.965 316.023,197.186 275.038,196.701 274.254 C 196.321 273.638,195.916 273.726,195.127 274.598 M212.556 274.347 C 211.362 275.786,210.492 311.039,211.623 312.170 C 212.284 312.830,212.237 313.672,211.540 313.672 C 210.491 313.672,207.813 316.590,207.813 317.732 C 207.813 321.769,213.363 323.937,216.409 321.091 C 218.631 319.015,217.511 315.143,214.318 313.861 C 213.122 313.380,212.905 313.149,213.256 312.726 C 213.552 312.369,213.754 308.427,213.871 300.726 C 213.967 294.419,214.171 286.709,214.325 283.594 C 214.649 277.005,214.544 274.527,213.923 274.127 C 213.288 273.719,213.044 273.758,212.556 274.347 M296.237 306.218 C 291.969 308.821,293.655 313.672,298.828 313.672 C 302.481 313.672,304.096 311.198,302.751 307.661 C 301.970 305.607,298.500 304.838,296.237 306.218 M90.054 307.071 C 87.568 309.253,87.583 312.020,90.091 313.933 C 93.287 316.371,98.019 314.142,98.133 310.145 C 98.231 306.673,92.842 304.622,90.054 307.071 M299.922 308.281 C 300.990 309.349,300.078 312.109,298.658 312.109 C 297.708 312.109,296.094 310.506,296.094 309.561 C 296.094 308.051,298.790 307.150,299.922 308.281 M94.835 309.202 C 95.867 309.925,95.943 310.807,95.057 311.786 C 93.844 313.125,90.625 312.305,90.625 310.656 C 90.625 308.709,92.973 307.898,94.835 309.202 M161.914 315.274 C 156.319 316.993,157.599 324.609,163.483 324.609 C 168.569 324.609,169.747 317.372,164.986 315.382 C 163.538 314.777,163.532 314.777,161.914 315.274 M225.056 316.224 C 223.223 317.766,222.800 319.556,223.788 321.596 C 226.546 327.294,235.188 324.177,233.214 318.196 C 232.228 315.208,227.594 314.088,225.056 316.224 M214.873 317.459 C 215.771 319.821,212.435 321.419,210.547 319.531 C 209.573 318.558,209.574 318.318,210.555 317.071 C 211.925 315.328,214.138 315.527,214.873 317.459 M180.729 317.428 C 182.083 319.494,179.662 321.544,177.523 320.142 C 176.381 319.394,175.896 317.795,176.567 316.987 C 177.409 315.972,179.952 316.242,180.729 317.428 M165.017 318.446 C 166.334 320.326,165.550 321.875,163.281 321.875 C 161.657 321.875,160.938 321.312,160.938 320.039 C 160.938 317.917,163.850 316.780,165.017 318.446 M229.840 318.084 C 231.010 318.940,230.865 321.123,229.590 321.849 C 227.464 323.060,225.343 320.638,226.552 318.379 C 227.047 317.455,228.768 317.300,229.840 318.084 M197.441 320.836 C 198.308 321.469,198.012 323.999,197.028 324.376 C 194.286 325.428,192.387 323.012,194.220 320.803 C 194.755 320.158,196.540 320.176,197.441 320.836 " stroke="none" fill="#ffffff" fill-rule="evenodd"></path></g></svg>