<svg id="svg" version="1.1" xmlns="http://www.w3.org/2000/svg" xmlns:xlink="http://www.w3.org/1999/xlink" width="400" height="400" viewBox="0, 0, 400,400"><g id="svgg"><path id="path0" d="M191.603 40.630 C 190.395 41.193,188.865 42.064,188.203 42.566 C 187.541 43.068,184.930 44.605,182.400 45.981 C 179.870 47.356,177.577 48.664,177.304 48.887 C 177.031 49.109,175.051 50.232,172.904 51.381 C 165.399 55.398,159.336 58.978,150.414 64.662 C 146.928 66.883,147.091 65.733,146.933 89.146 C 146.789 110.582,146.749 111.344,145.707 112.500 C 144.486 113.855,140.231 112.727,139.185 110.771 C 138.632 109.739,134.353 106.941,132.807 106.602 C 132.173 106.462,130.836 105.628,129.837 104.749 C 128.837 103.869,126.499 102.215,124.640 101.074 C 122.782 99.934,118.774 97.425,115.733 95.500 C 109.863 91.784,108.873 91.474,106.314 92.554 C 105.591 92.859,103.560 93.501,101.800 93.981 C 98.751 94.813,94.348 97.024,86.600 101.615 C 84.840 102.658,80.430 105.173,76.800 107.204 C 62.918 114.972,60.918 116.297,59.686 118.548 C 58.898 119.986,58.843 168.775,59.626 171.600 C 60.160 173.529,61.141 174.581,63.866 176.145 C 65.150 176.882,67.380 178.211,68.822 179.099 C 70.263 179.987,73.523 181.709,76.065 182.927 C 78.606 184.144,82.377 186.257,84.443 187.623 C 86.509 188.988,90.000 190.953,92.200 191.988 C 100.080 195.697,99.872 196.008,83.400 205.092 C 81.200 206.305,77.780 208.326,75.800 209.583 C 73.820 210.840,71.390 212.260,70.400 212.738 C 66.507 214.618,60.984 218.252,60.168 219.473 C 58.855 221.435,58.751 224.139,59.021 249.329 C 59.294 274.787,59.166 273.572,61.750 275.169 C 62.515 275.642,63.601 276.814,64.164 277.774 C 65.247 279.623,67.475 281.216,73.958 284.776 C 75.851 285.815,78.300 287.210,79.400 287.874 C 84.858 291.170,88.405 293.213,90.400 294.210 C 91.610 294.815,94.940 296.702,97.800 298.405 C 104.599 302.451,105.315 302.799,106.880 302.806 C 108.582 302.814,113.498 300.299,116.067 298.105 C 117.161 297.172,119.259 295.753,120.728 294.954 C 122.198 294.154,124.162 292.973,125.093 292.330 C 126.025 291.686,128.519 290.356,130.635 289.374 C 132.752 288.391,136.310 286.521,138.542 285.217 C 148.392 279.465,147.879 278.470,148.062 303.692 C 148.228 326.498,148.224 326.471,151.528 328.452 C 152.338 328.938,154.752 330.485,156.894 331.891 C 159.036 333.297,162.161 335.081,163.839 335.856 C 165.517 336.631,167.724 337.860,168.745 338.586 C 169.765 339.312,172.580 341.029,175.000 342.400 C 177.420 343.772,182.277 346.623,185.793 348.734 C 195.059 354.300,196.062 354.273,206.000 348.195 C 208.090 346.917,211.115 345.184,212.722 344.345 C 214.329 343.505,216.399 342.301,217.322 341.668 C 218.245 341.036,220.710 339.569,222.800 338.409 C 229.387 334.751,232.106 333.155,235.400 331.010 C 237.160 329.864,239.287 328.516,240.127 328.014 C 240.967 327.512,242.128 326.385,242.707 325.510 L 243.760 323.919 243.666 305.859 C 243.534 280.383,243.837 279.317,249.945 283.742 C 250.965 284.481,253.690 286.125,256.000 287.396 C 258.309 288.666,261.189 290.377,262.400 291.198 C 263.610 292.019,265.759 293.275,267.176 293.989 C 268.592 294.703,270.212 295.602,270.776 295.986 C 272.377 297.079,279.627 301.279,281.372 302.125 C 283.828 303.317,285.708 302.893,290.274 300.118 C 294.376 297.625,297.248 295.959,303.600 292.385 C 305.690 291.209,308.618 289.471,310.106 288.523 C 311.594 287.574,314.384 285.957,316.306 284.929 C 326.075 279.703,330.592 276.595,331.469 274.496 C 332.275 272.568,332.209 228.223,331.395 224.600 C 331.098 223.280,330.748 221.539,330.616 220.731 C 330.344 219.071,328.626 217.334,325.889 215.952 C 324.960 215.483,321.590 213.572,318.400 211.704 C 310.230 206.921,305.866 204.387,302.400 202.412 C 290.686 195.738,290.515 196.178,308.600 186.416 C 318.632 181.001,328.091 175.351,330.145 173.546 L 331.800 172.092 331.874 146.946 C 331.964 115.946,332.255 117.476,325.682 114.349 C 323.767 113.438,321.632 112.197,320.938 111.592 C 318.888 109.804,305.167 101.976,302.325 100.974 C 301.514 100.687,299.444 99.474,297.725 98.278 C 294.552 96.069,289.646 93.040,287.320 91.853 C 284.292 90.308,278.523 92.536,270.845 98.214 C 269.220 99.416,267.706 100.400,267.482 100.400 C 266.954 100.400,259.692 104.642,254.713 107.859 C 247.908 112.256,245.595 113.014,244.817 111.100 C 244.121 109.387,243.605 99.551,243.962 94.800 C 244.333 89.858,244.173 69.986,243.750 68.624 C 242.869 65.778,238.308 62.587,227.492 57.246 C 223.034 55.046,218.968 52.714,217.030 51.248 C 215.287 49.928,212.677 48.257,211.230 47.534 C 209.784 46.810,207.013 45.266,205.073 44.101 C 196.966 39.235,195.443 38.843,191.603 40.630 M197.910 49.790 C 199.071 50.331,202.592 52.209,205.736 53.964 C 208.879 55.719,212.471 57.537,213.719 58.004 C 214.967 58.471,216.748 59.488,217.678 60.265 C 220.755 62.836,222.670 63.961,225.142 64.648 C 231.161 66.321,230.675 69.648,223.916 73.042 C 221.937 74.036,218.791 75.873,216.924 77.125 C 213.763 79.245,210.487 81.123,203.929 84.575 C 202.460 85.348,200.400 86.525,199.351 87.190 C 196.083 89.262,194.681 89.010,187.910 85.134 C 184.772 83.338,181.394 81.516,180.403 81.084 C 179.411 80.653,177.786 79.722,176.791 79.016 C 175.796 78.310,172.329 76.157,169.086 74.231 C 160.171 68.937,160.176 68.854,169.699 63.090 C 173.495 60.793,178.760 57.695,181.400 56.205 C 184.040 54.714,187.349 52.683,188.753 51.690 C 192.920 48.742,194.815 48.349,197.910 49.790 M160.452 79.320 C 166.582 82.497,187.132 94.348,189.062 95.820 C 191.780 97.893,191.642 96.317,191.826 127.538 C 192.161 184.627,192.125 185.996,190.264 186.844 C 189.227 187.316,182.222 184.707,180.646 183.262 C 180.181 182.835,178.180 181.543,176.200 180.390 C 174.220 179.237,171.700 177.746,170.600 177.076 C 169.500 176.406,166.461 174.656,163.846 173.186 C 154.213 167.772,155.128 171.171,154.916 140.023 C 154.821 126.040,154.720 111.450,154.692 107.600 C 154.478 78.063,154.817 76.400,160.452 79.320 M233.945 78.757 C 235.057 79.462,235.166 83.516,235.183 124.947 L 235.200 167.294 233.669 168.747 C 230.787 171.483,228.951 172.717,224.777 174.723 C 222.480 175.827,219.160 177.697,217.400 178.879 C 213.208 181.695,202.664 187.200,201.464 187.200 C 199.236 187.200,199.202 186.979,198.960 171.159 C 198.837 163.151,198.754 155.880,198.775 155.000 C 198.796 154.120,198.945 141.160,199.106 126.200 C 199.444 94.958,199.108 97.417,203.409 94.676 C 207.350 92.163,214.220 88.140,220.800 84.492 C 224.210 82.602,227.990 80.458,229.200 79.728 C 231.388 78.409,232.905 78.099,233.945 78.757 M102.603 103.204 C 103.637 104.346,103.585 139.021,102.546 141.619 C 101.733 143.649,100.297 144.755,93.200 148.813 C 90.010 150.636,85.690 153.107,83.600 154.302 C 81.510 155.497,77.685 157.736,75.100 159.276 C 69.716 162.484,67.588 163.072,66.784 161.571 C 66.160 160.403,65.808 135.206,66.320 128.283 C 66.807 121.694,65.321 123.091,82.706 112.877 C 85.068 111.490,88.350 109.532,90.000 108.526 C 100.946 101.854,101.262 101.721,102.603 103.204 M293.670 104.448 C 294.918 105.071,296.677 105.699,297.579 105.843 C 298.823 106.042,299.727 106.600,301.320 108.153 C 302.476 109.279,304.586 110.853,306.011 111.651 C 317.763 118.235,322.370 120.838,323.400 121.475 L 324.600 122.217 324.600 141.647 C 324.600 166.604,325.725 165.114,312.600 157.536 C 309.740 155.885,304.880 153.117,301.800 151.386 C 286.906 143.013,287.875 144.347,287.481 131.669 C 287.086 118.924,287.086 120.043,287.475 111.267 C 287.891 101.885,288.091 101.664,293.670 104.448 M114.913 104.140 C 115.621 104.436,117.836 105.755,119.836 107.069 C 122.004 108.493,124.444 109.731,125.877 110.134 C 127.874 110.694,128.554 111.131,129.885 112.709 C 130.982 114.010,132.985 115.492,136.231 117.405 C 147.605 124.106,146.800 122.095,146.800 143.808 C 146.800 165.505,147.187 164.823,138.179 158.989 C 136.211 157.714,133.160 155.991,131.400 155.161 C 129.640 154.331,127.120 152.959,125.800 152.111 C 124.480 151.262,121.205 149.261,118.522 147.663 C 110.191 142.699,110.714 144.459,110.878 121.942 C 111.021 102.436,111.006 102.502,114.913 104.140 M279.613 104.424 C 280.078 105.292,280.917 139.579,280.502 140.768 C 279.590 143.382,277.075 145.247,266.556 151.111 C 262.572 153.332,256.740 156.691,253.596 158.575 C 244.029 164.307,243.801 164.113,244.104 150.489 C 244.220 145.270,244.138 137.963,243.922 134.251 C 243.342 124.300,243.627 123.813,253.600 117.692 C 259.822 113.874,263.167 111.786,270.378 107.217 C 276.666 103.233,278.654 102.632,279.613 104.424 M286.796 151.562 C 287.899 151.981,290.258 153.258,292.039 154.401 C 293.821 155.544,297.016 157.428,299.139 158.590 C 305.007 161.798,315.654 168.188,316.961 169.287 C 318.821 170.850,318.237 172.029,314.578 174.099 C 312.924 175.035,309.823 176.802,307.686 178.026 C 283.825 191.697,283.276 191.897,278.493 188.693 C 277.012 187.701,273.973 185.892,271.740 184.674 C 269.507 183.456,265.907 181.394,263.740 180.092 C 261.573 178.790,258.000 176.676,255.800 175.394 C 248.241 170.989,248.359 170.187,257.280 165.349 C 261.380 163.125,272.697 156.456,277.854 153.224 C 281.829 150.734,283.701 150.386,286.796 151.562 M113.243 153.565 C 115.749 154.866,118.970 156.398,120.400 156.970 C 121.830 157.543,124.004 158.869,125.231 159.919 C 126.458 160.968,129.026 162.721,130.938 163.813 C 142.854 170.623,142.920 170.811,135.000 175.358 C 132.800 176.621,129.830 178.392,128.400 179.294 C 126.970 180.197,124.090 181.863,122.000 182.998 C 117.580 185.398,114.819 187.050,111.195 189.465 C 107.186 192.135,106.420 191.972,98.552 186.787 C 96.227 185.254,94.135 184.000,93.904 184.000 C 93.450 184.000,86.274 179.980,78.607 175.431 C 70.694 170.736,70.703 170.718,85.000 162.705 C 86.760 161.718,90.270 159.686,92.800 158.190 C 106.880 149.860,106.339 149.982,113.243 153.565 M152.674 176.828 C 153.706 177.220,156.619 178.989,159.264 180.830 C 161.053 182.075,170.268 187.296,176.526 190.609 C 187.372 196.352,186.906 198.175,172.800 205.200 C 171.370 205.912,168.580 207.497,166.600 208.723 C 164.620 209.948,161.830 211.608,160.400 212.412 C 158.970 213.216,154.650 215.736,150.800 218.012 C 146.950 220.289,141.640 223.349,139.000 224.813 C 136.360 226.277,132.310 228.684,130.000 230.163 C 127.690 231.641,124.360 233.537,122.600 234.376 C 120.840 235.214,117.157 237.186,114.415 238.758 C 106.779 243.134,105.303 243.254,101.142 239.832 C 99.964 238.863,94.320 235.422,88.600 232.185 C 73.166 223.450,72.756 223.136,74.116 221.080 C 74.718 220.171,81.669 215.897,90.400 211.068 C 93.150 209.547,95.850 207.988,96.400 207.603 C 96.950 207.218,100.910 204.929,105.200 202.516 C 109.490 200.103,114.530 197.169,116.400 195.996 C 118.270 194.823,121.150 193.117,122.800 192.204 C 128.599 188.994,136.565 184.315,137.776 183.406 C 138.449 182.901,140.170 181.904,141.600 181.191 C 143.030 180.477,144.965 179.369,145.900 178.727 C 149.123 176.517,150.695 176.076,152.674 176.828 M246.212 179.650 C 248.845 181.217,252.350 183.265,254.000 184.200 C 255.650 185.136,259.250 187.214,262.000 188.818 C 264.750 190.422,269.415 193.067,272.368 194.695 C 275.320 196.323,278.470 198.154,279.368 198.765 C 280.265 199.376,284.420 201.813,288.600 204.181 C 292.780 206.548,297.820 209.438,299.800 210.602 C 301.780 211.767,304.660 213.435,306.200 214.309 C 319.735 221.992,319.680 221.921,314.500 225.175 C 312.795 226.246,310.443 227.807,309.273 228.644 C 308.104 229.481,304.774 231.354,301.873 232.807 C 298.973 234.260,294.382 236.758,291.670 238.358 C 282.912 243.524,283.786 243.585,273.189 237.071 C 269.718 234.937,264.908 232.149,253.000 225.366 C 250.580 223.988,245.540 221.068,241.800 218.877 C 238.060 216.687,232.300 213.495,229.000 211.785 C 217.645 205.901,206.400 198.577,206.400 197.066 C 206.400 195.617,210.425 192.616,216.439 189.580 C 217.806 188.891,219.841 187.741,220.962 187.026 C 222.083 186.311,224.530 184.865,226.400 183.814 C 228.270 182.763,230.121 181.622,230.512 181.278 C 236.060 176.414,240.075 175.998,246.212 179.650 M190.185 206.521 C 191.108 207.929,191.229 241.944,190.318 244.000 C 189.366 246.152,180.579 252.225,174.600 254.865 C 172.732 255.689,163.684 261.084,160.849 263.063 C 159.446 264.043,156.378 265.807,154.031 266.984 C 151.684 268.161,148.242 270.147,146.382 271.398 C 144.522 272.648,140.570 274.939,137.600 276.488 C 134.630 278.038,130.580 280.337,128.600 281.598 C 117.354 288.759,112.650 290.379,111.685 287.423 C 111.066 285.525,110.963 254.207,111.569 252.102 C 112.326 249.474,116.820 245.714,121.800 243.542 C 122.460 243.254,123.900 242.453,125.000 241.762 C 126.100 241.071,130.060 238.738,133.800 236.578 C 144.323 230.499,146.738 229.075,150.400 226.793 C 152.270 225.627,155.055 224.055,156.589 223.299 C 158.123 222.543,160.609 221.127,162.114 220.154 C 163.619 219.180,166.247 217.681,167.954 216.823 C 169.662 215.964,172.239 214.454,173.681 213.467 C 177.025 211.178,187.732 205.600,188.783 205.600 C 189.222 205.600,189.853 206.014,190.185 206.521 M207.950 208.047 C 209.847 209.207,213.200 211.072,215.400 212.191 C 217.600 213.310,219.940 214.600,220.600 215.057 C 224.253 217.587,231.206 221.846,235.461 224.159 C 238.134 225.612,243.114 228.465,246.526 230.500 C 249.939 232.535,254.591 235.237,256.865 236.505 C 259.139 237.773,262.564 239.753,264.476 240.905 C 266.387 242.057,269.616 243.900,271.650 245.000 C 280.587 249.833,280.568 249.760,279.880 275.952 C 279.443 292.600,280.593 292.110,264.214 282.638 C 260.481 280.480,256.521 278.283,255.414 277.758 C 252.957 276.591,249.190 274.418,239.117 268.355 C 230.081 262.917,225.617 260.542,223.400 259.995 C 222.448 259.760,220.586 258.623,218.800 257.186 C 217.150 255.859,213.010 253.125,209.600 251.112 C 199.131 244.933,199.944 247.269,200.095 223.800 C 200.228 203.004,200.105 203.250,207.950 208.047 M71.022 231.954 C 71.914 232.360,75.784 234.577,79.622 236.881 C 83.460 239.186,89.480 242.645,93.000 244.567 C 103.654 250.386,102.802 248.147,102.794 270.287 C 102.787 292.384,102.730 292.534,96.097 287.876 C 94.394 286.680,92.010 285.204,90.800 284.595 C 89.590 283.987,86.990 282.509,85.022 281.311 C 83.055 280.114,79.275 277.954,76.622 276.512 C 65.161 270.281,66.200 272.844,66.201 250.800 C 66.202 229.506,66.142 229.738,71.022 231.954 M323.891 232.282 C 324.740 233.578,325.194 262.410,324.441 267.203 C 323.960 270.264,321.615 272.860,317.106 275.323 C 315.728 276.076,311.630 278.310,308.000 280.287 C 304.370 282.264,300.230 284.573,298.800 285.418 C 287.386 292.162,288.007 293.007,287.987 270.699 C 287.966 247.870,286.518 250.906,301.388 242.595 C 304.022 241.123,307.142 239.037,308.321 237.959 C 309.500 236.882,310.675 235.993,310.932 235.984 C 311.190 235.976,313.650 234.906,316.400 233.607 C 322.126 230.903,322.897 230.766,323.891 232.282 M204.600 257.626 C 206.220 258.300,207.766 259.118,208.037 259.444 C 208.774 260.333,213.055 262.763,216.015 263.974 C 217.453 264.562,220.423 266.303,222.615 267.842 C 224.807 269.381,228.343 271.683,230.472 272.958 C 236.524 276.581,235.775 272.775,236.069 301.400 C 236.122 306.543,235.510 313.808,234.948 314.700 C 233.838 316.463,230.356 315.276,223.606 310.832 C 221.519 309.458,218.639 307.686,217.206 306.894 C 212.839 304.480,203.071 298.751,201.850 297.887 C 199.281 296.071,199.223 295.598,199.157 276.069 C 199.084 254.257,198.802 255.212,204.600 257.626 M191.286 257.700 C 191.955 258.871,191.904 293.169,191.231 294.928 C 190.828 295.980,189.589 297.676,187.200 300.445 C 186.465 301.296,185.629 301.709,184.046 302.002 C 180.957 302.573,173.716 306.772,171.246 309.426 C 169.644 311.148,168.948 311.588,167.254 311.951 C 166.126 312.193,163.640 313.141,161.729 314.057 C 157.792 315.945,156.464 315.791,155.949 313.385 C 155.607 311.791,155.539 279.824,155.873 277.800 C 156.236 275.597,159.807 272.010,162.573 271.070 C 163.658 270.701,165.638 269.703,166.973 268.853 C 169.455 267.272,172.011 265.758,176.692 263.096 C 178.147 262.268,180.252 260.896,181.369 260.047 C 185.067 257.235,190.311 255.994,191.286 257.700 M199.000 305.346 C 200.100 305.863,203.112 307.564,205.692 309.127 C 211.333 312.543,222.188 318.574,224.682 319.677 C 226.838 320.631,229.600 323.035,229.600 323.958 C 229.600 325.577,225.231 328.639,215.000 334.192 C 213.460 335.028,211.120 336.379,209.800 337.194 C 195.135 346.256,195.396 346.235,184.400 339.216 C 181.870 337.601,177.550 335.020,174.800 333.480 C 165.405 328.219,162.400 325.924,162.400 324.014 C 162.400 322.924,169.337 317.356,171.880 316.404 C 174.884 315.280,177.895 313.722,180.000 312.201 C 180.990 311.486,182.549 310.523,183.464 310.061 C 184.379 309.599,185.963 308.497,186.985 307.613 C 188.008 306.728,189.329 305.898,189.922 305.767 C 190.515 305.637,191.720 305.290,192.600 304.997 C 194.982 304.203,196.771 304.300,199.000 305.346 " stroke="none" fill="#ffffff" fill-rule="evenodd"></path></g></svg>