<svg id="svg" version="1.1" xmlns="http://www.w3.org/2000/svg" xmlns:xlink="http://www.w3.org/1999/xlink" width="400" height="400" viewBox="0, 0, 400,400"><g id="svgg"><path id="path0" d="M115.167 113.359 C 115.075 113.447,112.809 113.717,110.130 113.959 C 107.452 114.202,104.302 114.596,103.130 114.834 C 101.959 115.073,99.650 115.541,98.000 115.874 C 93.159 116.851,80.452 120.634,78.036 121.818 C 77.466 122.097,76.550 122.509,76.000 122.732 C 52.635 132.218,32.525 151.829,25.888 171.600 C 20.785 186.801,21.070 203.360,26.654 216.260 C 26.954 216.954,27.200 217.632,27.200 217.769 C 27.200 222.060,40.950 240.302,49.400 247.221 C 55.756 252.426,63.040 257.095,70.200 260.555 C 74.541 262.653,74.742 262.742,78.000 264.020 C 79.210 264.494,80.560 265.044,81.000 265.242 C 83.091 266.182,89.914 268.179,97.200 269.985 C 98.864 270.398,107.911 271.758,113.045 272.367 C 125.165 273.806,143.999 272.259,157.600 268.708 C 170.896 265.236,187.703 257.516,189.977 253.837 C 192.105 250.394,189.305 245.200,185.322 245.200 C 183.878 245.200,183.387 245.413,176.800 248.895 C 174.490 250.116,171.430 251.592,170.000 252.176 C 168.570 252.759,167.040 253.406,166.600 253.614 C 165.189 254.280,154.704 257.600,154.011 257.600 C 153.643 257.600,152.545 257.848,151.571 258.152 C 135.881 263.039,108.153 261.896,88.600 255.556 C 85.960 254.700,83.440 253.827,83.000 253.617 C 82.560 253.408,81.030 252.757,79.600 252.171 C 39.312 235.678,22.493 196.471,42.021 164.566 C 61.350 132.986,110.603 116.974,153.600 128.292 C 155.690 128.842,157.940 129.434,158.600 129.607 C 169.347 132.431,184.200 140.262,192.600 147.533 C 207.542 160.466,214.199 172.908,215.780 190.862 C 216.638 200.613,218.025 203.724,224.214 209.795 C 240.624 225.890,270.748 231.565,297.200 223.543 C 315.318 218.048,328.114 207.111,329.707 195.759 C 333.309 170.093,284.730 150.167,248.400 162.407 C 234.156 167.207,229.198 170.947,230.770 175.708 C 232.166 179.938,236.730 181.060,240.800 178.175 C 241.130 177.941,242.750 177.161,244.400 176.442 C 246.050 175.722,247.760 174.973,248.200 174.776 C 262.524 168.369,286.244 169.166,302.092 176.588 C 318.032 184.052,322.172 193.198,313.464 201.705 C 296.164 218.603,258.429 220.265,236.485 205.095 C 230.032 200.633,227.684 196.831,227.367 190.329 C 227.257 188.058,226.920 184.850,226.619 183.200 C 226.318 181.550,225.956 179.516,225.814 178.681 C 221.351 152.350,193.289 127.203,157.200 117.194 C 152.523 115.897,144.512 114.482,136.955 113.617 C 133.532 113.225,115.529 113.013,115.167 113.359 M263.158 113.376 C 263.061 113.472,260.802 113.741,258.138 113.972 C 255.473 114.203,252.327 114.590,251.147 114.831 C 240.734 116.956,238.951 117.411,232.000 119.720 C 223.948 122.396,215.915 126.088,210.369 129.664 C 202.783 134.554,208.494 143.799,216.400 139.428 C 246.039 123.040,282.543 120.087,312.846 131.626 C 317.470 133.386,325.327 137.008,327.793 138.515 C 328.230 138.782,329.313 139.450,330.200 140.000 C 331.087 140.550,332.110 141.180,332.474 141.400 C 334.715 142.757,338.111 145.255,340.564 147.351 C 374.807 176.606,371.220 218.758,332.280 244.720 C 331.224 245.424,330.294 246.000,330.213 246.000 C 330.132 246.000,328.746 246.774,327.133 247.721 C 323.069 250.105,318.108 252.403,313.200 254.174 C 311.550 254.770,309.777 255.428,309.261 255.638 C 308.744 255.847,306.134 256.577,303.461 257.258 C 271.653 265.372,240.665 261.143,214.212 245.079 C 201.743 237.507,190.741 224.829,185.311 211.776 C 184.217 209.147,182.449 201.176,182.211 197.800 C 181.525 188.077,180.601 184.793,177.299 180.344 C 161.473 159.023,119.206 152.152,90.400 166.216 C 61.621 180.268,60.282 203.454,87.400 218.175 C 105.116 227.792,128.522 229.824,149.200 223.540 C 153.208 222.322,157.926 220.413,160.600 218.926 C 161.480 218.437,162.806 217.728,163.546 217.351 C 167.872 215.147,168.327 209.580,164.400 206.900 C 162.411 205.542,160.607 205.725,157.155 207.636 C 155.530 208.535,153.300 209.620,152.200 210.047 C 151.100 210.473,149.840 210.980,149.400 211.174 C 146.489 212.454,143.586 213.259,136.800 214.666 C 131.951 215.672,117.701 215.682,112.600 214.682 C 96.771 211.581,84.039 204.326,80.229 196.236 C 77.044 189.471,84.671 181.020,99.400 174.994 C 107.463 171.696,113.665 170.626,124.800 170.614 C 135.083 170.603,137.032 170.875,146.400 173.632 C 160.181 177.687,170.400 186.839,170.400 195.125 C 170.400 213.680,181.296 234.019,198.812 248.161 C 204.575 252.814,218.060 261.200,219.779 261.200 C 220.033 261.200,220.411 261.361,220.620 261.557 C 221.318 262.214,229.265 265.376,233.800 266.803 C 240.320 268.854,242.314 269.344,250.012 270.788 C 267.503 274.069,288.177 273.302,305.486 268.729 C 308.789 267.856,315.413 265.777,316.600 265.240 C 317.040 265.041,318.480 264.474,319.800 263.980 C 326.813 261.355,342.263 252.723,344.800 250.014 C 344.910 249.896,345.900 249.086,347.000 248.212 C 352.061 244.195,358.074 238.020,361.400 233.424 C 361.840 232.817,362.754 231.572,363.432 230.660 C 366.536 226.479,370.524 218.525,372.379 212.817 C 374.881 205.114,375.361 201.913,375.350 193.000 C 375.339 184.901,375.203 183.800,373.201 175.641 C 371.786 169.876,364.502 155.403,361.805 153.000 C 361.558 152.780,360.573 151.557,359.616 150.283 C 357.400 147.332,350.524 140.453,347.400 138.062 C 346.080 137.052,344.779 136.011,344.508 135.749 C 343.955 135.215,335.720 129.600,335.488 129.600 C 335.407 129.600,333.464 128.559,331.170 127.286 C 326.145 124.497,318.011 120.997,312.800 119.381 C 311.590 119.006,310.203 118.549,309.717 118.366 C 308.245 117.810,299.082 115.660,296.275 115.212 C 294.828 114.981,293.409 114.708,293.122 114.606 C 290.615 113.715,263.915 112.618,263.158 113.376 M115.200 136.394 C 108.700 136.921,97.970 139.046,92.800 140.830 C 59.920 152.178,40.454 176.506,45.583 199.839 C 46.939 206.013,47.176 206.765,48.877 210.323 C 64.293 242.570,113.061 258.467,156.200 245.307 C 162.741 243.311,172.897 238.760,174.592 237.065 C 178.117 233.541,175.612 227.206,170.692 227.201 C 169.709 227.201,167.968 227.808,165.692 228.947 C 161.743 230.922,155.692 233.395,152.883 234.182 C 144.047 236.657,142.198 237.037,135.200 237.817 C 121.243 239.373,108.314 237.965,93.800 233.306 C 78.939 228.537,64.418 217.032,59.588 206.200 C 59.097 205.100,58.547 203.899,58.364 203.531 C 53.323 193.375,57.938 177.776,69.132 167.132 C 107.914 130.255,192.821 149.053,193.195 194.600 C 193.364 215.179,212.385 235.457,240.442 244.968 C 253.433 249.372,275.439 251.254,288.200 249.053 C 295.563 247.783,303.127 245.892,307.600 244.204 C 322.980 238.398,332.655 231.908,342.189 221.000 C 355.843 205.378,356.170 183.113,342.996 166.000 C 333.365 153.490,314.244 142.069,297.400 138.766 C 296.520 138.594,294.990 138.281,294.000 138.071 C 280.654 135.243,264.455 135.316,250.800 138.266 C 248.211 138.825,246.161 139.370,239.800 141.188 C 236.148 142.232,227.248 146.155,224.871 147.769 C 221.170 150.281,220.333 153.263,222.521 156.132 C 225.040 159.435,227.029 159.537,232.763 156.654 C 250.852 147.561,276.388 144.984,296.000 150.272 C 298.917 151.058,305.593 153.149,306.600 153.592 C 310.136 155.146,315.921 157.885,317.016 158.524 C 320.540 160.580,322.378 161.882,326.200 165.028 C 348.632 183.495,345.421 210.037,318.792 226.277 C 310.255 231.483,301.665 234.695,290.792 236.745 C 258.934 242.754,225.097 231.999,210.766 211.308 C 209.039 208.814,208.202 207.224,206.394 203.000 C 205.565 201.065,204.800 196.708,204.800 193.927 C 204.800 159.446,162.879 132.528,115.200 136.394 " stroke="none" fill="#ffffff" fill-rule="evenodd"></path></g></svg>