<svg id="svg" version="1.1" xmlns="http://www.w3.org/2000/svg" xmlns:xlink="http://www.w3.org/1999/xlink" width="400" height="400" viewBox="0, 0, 400,400"><g id="svgg"><path id="path0" d="M194.408 28.673 C 193.862 29.059,192.749 29.740,191.933 30.187 C 190.554 30.943,189.234 31.701,184.459 34.482 C 183.436 35.077,181.972 35.863,181.203 36.228 C 180.435 36.593,179.296 37.321,178.673 37.846 C 178.049 38.371,177.366 38.800,177.155 38.800 C 176.944 38.800,174.843 39.946,172.486 41.346 C 170.129 42.747,166.220 45.012,163.800 46.379 C 161.380 47.746,158.410 49.474,157.200 50.218 C 154.843 51.667,152.258 53.130,150.000 54.293 C 148.525 55.052,146.990 55.933,140.800 59.568 C 135.176 62.871,134.749 63.110,132.944 63.957 C 132.033 64.384,131.158 64.944,131.000 65.200 C 130.842 65.456,129.967 66.022,129.056 66.458 C 127.125 67.381,124.732 68.730,120.826 71.100 C 119.285 72.035,117.920 72.800,117.793 72.800 C 117.666 72.800,116.577 73.430,115.373 74.200 C 114.169 74.970,113.081 75.600,112.954 75.600 C 112.827 75.600,111.166 76.551,109.262 77.714 C 107.358 78.877,105.215 80.069,104.500 80.363 C 103.785 80.657,103.200 81.036,103.200 81.205 C 103.200 81.375,102.495 81.795,101.634 82.140 C 100.773 82.484,99.954 82.951,99.814 83.177 C 99.674 83.403,98.714 84.009,97.680 84.524 C 96.041 85.339,90.212 88.636,88.356 89.797 C 87.715 90.197,85.880 91.251,81.531 93.715 C 76.158 96.759,66.374 102.378,61.400 105.276 C 56.667 108.034,55.774 108.553,53.347 109.955 C 52.056 110.701,50.456 111.606,49.790 111.966 C 49.125 112.327,47.939 113.111,47.155 113.709 L 45.729 114.796 45.446 200.781 C 45.127 297.437,44.852 288.560,48.212 290.046 C 49.177 290.473,50.079 291.004,50.216 291.226 C 50.353 291.448,51.306 292.052,52.333 292.568 C 55.528 294.174,56.998 295.002,58.283 295.917 C 58.965 296.403,59.678 296.800,59.867 296.800 C 60.056 296.800,61.146 297.430,62.290 298.200 C 63.433 298.970,64.635 299.600,64.961 299.600 C 65.286 299.600,65.662 299.777,65.796 299.994 C 66.006 300.334,68.336 301.781,73.000 304.468 C 73.660 304.849,75.100 305.632,76.200 306.209 C 78.505 307.418,81.444 309.114,82.837 310.040 C 83.724 310.629,90.184 314.465,93.000 316.074 C 93.660 316.452,94.941 317.127,95.847 317.575 C 96.753 318.024,97.701 318.639,97.953 318.943 C 98.205 319.247,99.219 319.804,100.206 320.181 C 101.193 320.558,102.000 321.007,102.000 321.180 C 102.000 321.352,102.855 321.880,103.900 322.353 C 104.945 322.826,106.790 323.832,108.000 324.587 C 110.231 325.980,112.912 327.547,115.552 329.000 C 116.351 329.440,118.534 330.719,120.403 331.843 C 124.017 334.016,128.929 336.829,131.647 338.282 C 132.555 338.768,133.591 339.405,133.949 339.698 C 134.307 339.992,135.230 340.548,136.000 340.934 C 137.627 341.751,138.933 342.499,145.200 346.208 C 147.730 347.706,150.610 349.370,151.600 349.906 C 152.590 350.443,153.490 351.018,153.600 351.184 C 153.710 351.350,154.610 351.872,155.600 352.344 C 156.590 352.816,158.120 353.646,159.000 354.189 C 159.880 354.731,161.410 355.566,162.400 356.045 C 163.390 356.523,164.709 357.338,165.331 357.857 C 165.953 358.376,166.620 358.800,166.815 358.800 C 167.009 358.800,168.300 359.518,169.684 360.396 C 171.068 361.274,172.397 361.994,172.638 361.996 C 172.879 361.998,173.402 362.360,173.800 362.800 C 174.198 363.240,174.741 363.600,175.006 363.600 C 175.271 363.600,176.157 364.054,176.975 364.609 C 177.793 365.164,179.843 366.348,181.531 367.241 C 183.219 368.134,184.870 369.102,185.200 369.392 C 185.530 369.683,186.430 370.205,187.200 370.552 C 187.970 370.900,189.770 371.943,191.200 372.870 C 194.786 375.195,196.390 375.184,200.200 372.811 C 203.076 371.019,203.472 370.790,209.479 367.432 C 211.416 366.349,213.630 365.069,214.400 364.588 C 215.170 364.106,218.770 362.040,222.400 359.997 C 228.924 356.323,231.159 355.015,233.775 353.340 C 234.513 352.867,235.541 352.351,236.059 352.194 C 236.576 352.037,237.362 351.577,237.805 351.173 C 238.248 350.769,239.271 350.162,240.078 349.825 C 240.885 349.488,241.655 349.035,241.789 348.817 C 241.923 348.600,242.791 348.055,243.717 347.605 C 244.642 347.155,246.750 345.978,248.400 344.989 C 250.050 344.001,251.940 342.915,252.600 342.575 C 253.260 342.235,254.790 341.348,256.000 340.603 C 257.210 339.857,259.055 338.855,260.100 338.375 C 261.145 337.894,262.000 337.363,262.000 337.194 C 262.000 337.025,262.731 336.595,263.623 336.237 C 264.516 335.880,265.461 335.403,265.723 335.177 C 265.986 334.951,267.640 333.937,269.400 332.924 C 271.160 331.910,273.050 330.797,273.600 330.450 C 274.150 330.103,275.320 329.436,276.200 328.970 C 277.643 328.204,279.933 326.893,284.600 324.159 C 285.480 323.644,286.958 322.852,287.883 322.400 C 288.809 321.947,289.672 321.407,289.800 321.200 C 289.928 320.993,290.791 320.449,291.717 319.991 C 293.783 318.971,298.938 316.013,305.727 311.952 C 306.786 311.319,307.748 310.800,307.865 310.800 C 307.981 310.800,308.629 310.407,309.305 309.926 C 310.719 308.919,312.979 307.670,315.700 306.393 C 316.745 305.903,317.600 305.366,317.600 305.200 C 317.600 305.034,318.490 304.516,319.577 304.048 C 320.665 303.580,321.662 303.023,321.794 302.810 C 321.925 302.597,322.791 302.054,323.717 301.602 C 324.642 301.151,326.221 300.291,327.225 299.691 C 328.228 299.091,331.078 297.430,333.557 296.000 C 336.037 294.570,338.906 292.908,339.933 292.306 C 340.960 291.705,342.540 290.842,343.444 290.389 C 346.116 289.049,345.924 295.157,346.234 201.679 L 346.520 115.683 345.537 114.742 C 344.996 114.224,344.204 113.575,343.777 113.300 C 342.000 112.158,337.630 109.600,337.454 109.600 C 337.349 109.600,335.854 108.734,334.132 107.676 C 332.409 106.618,330.370 105.438,329.600 105.053 C 328.830 104.668,327.030 103.639,325.600 102.767 C 324.170 101.895,322.427 100.919,321.727 100.597 C 321.027 100.275,320.336 99.820,320.191 99.585 C 320.045 99.350,318.998 98.710,317.863 98.162 C 316.728 97.615,314.964 96.680,313.941 96.084 C 312.289 95.120,310.226 93.926,306.864 91.986 C 306.279 91.648,303.920 90.253,301.621 88.886 C 299.323 87.519,297.230 86.400,296.970 86.400 C 296.711 86.400,296.253 86.105,295.955 85.745 C 295.656 85.385,294.689 84.751,293.806 84.335 C 292.923 83.919,291.210 82.963,290.000 82.211 C 288.790 81.458,287.177 80.556,286.415 80.206 C 285.653 79.856,284.739 79.307,284.384 78.986 C 284.029 78.664,282.943 77.986,281.969 77.479 C 279.905 76.402,278.416 75.543,274.360 73.092 C 272.732 72.108,270.680 70.910,269.800 70.428 C 268.920 69.947,267.300 69.026,266.200 68.380 C 265.100 67.735,263.326 66.711,262.259 66.104 C 261.191 65.497,259.526 64.550,258.559 64.000 C 257.591 63.450,255.516 62.235,253.947 61.300 C 252.378 60.365,250.960 59.600,250.796 59.600 C 250.632 59.600,250.288 59.348,250.032 59.039 C 249.776 58.730,248.629 58.002,247.483 57.420 C 246.338 56.838,244.230 55.656,242.800 54.793 C 241.370 53.930,239.660 52.950,239.000 52.615 C 238.340 52.279,236.810 51.373,235.600 50.601 C 234.390 49.829,232.500 48.742,231.400 48.186 C 230.300 47.630,228.230 46.459,226.800 45.584 C 225.370 44.709,223.930 43.870,223.600 43.721 C 223.031 43.463,219.900 41.593,218.190 40.490 C 217.756 40.210,216.472 39.545,215.337 39.012 C 214.202 38.479,213.147 37.838,212.993 37.588 C 212.838 37.338,211.967 36.778,211.056 36.342 C 210.145 35.907,208.500 35.029,207.400 34.390 C 206.300 33.752,204.590 32.767,203.600 32.202 C 202.610 31.636,200.799 30.562,199.576 29.814 C 196.653 28.025,195.641 27.802,194.408 28.673 M189.552 46.142 C 189.883 46.541,189.975 66.777,189.901 122.437 L 189.800 198.189 187.800 199.517 C 186.700 200.247,185.170 201.172,184.400 201.571 C 182.945 202.327,179.374 204.364,176.857 205.874 C 175.223 206.854,172.905 208.190,169.509 210.107 C 166.542 211.781,161.332 214.772,159.800 215.681 C 159.140 216.072,157.726 216.889,156.659 217.496 C 155.591 218.103,153.881 219.087,152.859 219.682 C 151.836 220.278,150.370 221.091,149.600 221.489 C 148.830 221.887,147.692 222.554,147.072 222.971 C 145.798 223.827,144.145 224.773,141.800 225.991 C 140.920 226.447,139.030 227.530,137.600 228.396 C 136.170 229.263,134.187 230.391,133.194 230.904 C 132.201 231.417,130.851 232.196,130.194 232.635 C 128.323 233.884,127.551 234.328,125.300 235.448 C 124.145 236.023,123.200 236.639,123.200 236.816 C 123.200 236.993,122.568 237.346,121.796 237.601 C 121.024 237.856,120.166 238.291,119.889 238.568 C 119.612 238.846,117.678 240.009,115.592 241.153 C 111.569 243.361,111.562 243.365,107.710 245.694 C 106.340 246.522,105.120 247.200,104.998 247.200 C 104.875 247.200,103.525 247.965,101.998 248.900 C 98.446 251.074,95.837 252.553,93.717 253.595 C 92.791 254.050,91.932 254.586,91.809 254.786 C 91.686 254.985,90.643 255.607,89.492 256.169 C 88.342 256.730,86.500 257.728,85.400 258.387 C 84.300 259.045,82.590 260.040,81.600 260.596 C 80.610 261.152,79.447 261.831,79.015 262.104 C 77.099 263.316,74.863 264.627,73.200 265.513 C 69.856 267.295,68.205 268.230,67.072 268.981 C 65.606 269.953,63.793 270.963,61.794 271.921 C 60.911 272.344,59.944 272.985,59.645 273.345 C 59.056 274.056,57.784 274.221,57.422 273.635 C 57.188 273.256,57.154 258.872,57.183 172.931 L 57.200 122.062 58.372 120.890 C 59.016 120.245,60.141 119.424,60.872 119.065 C 61.602 118.706,63.370 117.693,64.800 116.813 C 66.230 115.933,68.206 114.839,69.192 114.381 C 70.178 113.924,71.078 113.414,71.192 113.249 C 71.306 113.083,73.002 112.060,74.960 110.974 C 76.919 109.888,79.529 108.415,80.760 107.700 C 81.992 106.985,83.720 106.015,84.600 105.545 C 85.480 105.075,86.636 104.349,87.169 103.933 C 87.702 103.517,88.872 102.814,89.769 102.372 C 90.666 101.930,92.236 101.080,93.259 100.484 C 94.281 99.888,96.054 98.860,97.200 98.200 C 98.346 97.540,100.119 96.512,101.141 95.916 C 102.164 95.320,103.734 94.470,104.631 94.028 C 105.528 93.586,106.700 92.903,107.234 92.512 C 107.768 92.120,108.654 91.541,109.203 91.224 C 112.119 89.540,115.975 87.401,117.275 86.748 C 118.086 86.340,118.858 85.830,118.991 85.614 C 119.124 85.399,119.991 84.852,120.917 84.398 C 121.842 83.944,123.500 83.062,124.600 82.437 C 125.700 81.812,127.230 80.956,128.000 80.535 C 128.770 80.114,129.883 79.449,130.474 79.056 C 131.065 78.663,132.279 77.950,133.172 77.471 C 137.015 75.410,141.890 72.615,142.995 71.839 C 143.652 71.378,144.822 70.680,145.595 70.289 C 146.368 69.899,147.900 69.045,149.000 68.393 C 150.100 67.741,151.874 66.711,152.941 66.104 C 154.009 65.497,155.719 64.512,156.741 63.916 C 157.764 63.320,159.320 62.453,160.200 61.989 C 161.080 61.525,162.790 60.536,164.000 59.792 C 165.210 59.047,167.190 57.888,168.400 57.216 C 169.610 56.543,171.500 55.465,172.600 54.819 C 173.700 54.174,175.474 53.140,176.541 52.523 C 177.609 51.905,179.319 50.912,180.341 50.316 C 181.364 49.720,182.920 48.854,183.800 48.392 C 184.680 47.930,186.012 47.113,186.759 46.576 C 188.307 45.464,188.911 45.370,189.552 46.142 M205.646 46.743 C 206.171 47.152,207.230 47.807,208.000 48.199 C 208.770 48.591,209.494 49.055,209.608 49.231 C 209.722 49.406,210.622 49.926,211.608 50.385 C 212.594 50.845,214.390 51.840,215.600 52.596 C 216.810 53.353,218.160 54.137,218.600 54.340 C 219.040 54.543,220.930 55.649,222.800 56.798 C 224.670 57.947,227.010 59.324,228.000 59.858 C 228.990 60.392,230.700 61.350,231.800 61.987 C 232.900 62.624,234.430 63.468,235.200 63.864 C 235.970 64.259,237.109 64.991,237.731 65.491 C 238.353 65.991,239.045 66.400,239.269 66.400 C 239.493 66.400,240.235 66.797,240.917 67.283 C 241.599 67.769,242.707 68.462,243.379 68.824 C 244.050 69.185,245.590 70.047,246.800 70.739 C 248.010 71.431,249.990 72.547,251.200 73.218 C 252.410 73.889,254.390 75.050,255.600 75.798 C 256.810 76.546,258.340 77.433,259.000 77.770 C 259.660 78.106,261.370 79.102,262.800 79.983 C 264.230 80.864,266.120 81.946,267.000 82.387 C 267.880 82.829,269.680 83.872,271.000 84.706 C 272.320 85.540,274.210 86.638,275.200 87.147 C 276.190 87.656,277.495 88.539,278.100 89.111 L 279.200 90.150 279.200 165.613 C 279.200 249.792,279.401 243.732,276.681 241.592 C 276.107 241.141,274.834 240.416,273.851 239.981 C 272.868 239.546,272.004 239.038,271.932 238.852 C 271.859 238.665,270.990 238.124,270.000 237.650 C 269.010 237.176,267.210 236.165,266.000 235.402 C 264.790 234.640,263.350 233.787,262.800 233.506 C 261.528 232.858,258.747 231.237,254.268 228.532 C 252.325 227.360,250.584 226.400,250.399 226.400 C 250.213 226.400,249.553 225.975,248.931 225.455 C 248.309 224.935,247.350 224.371,246.800 224.202 C 246.250 224.033,245.270 223.521,244.621 223.064 C 243.973 222.607,242.803 221.888,242.021 221.466 C 241.240 221.044,240.007 220.376,239.282 219.983 C 238.557 219.589,237.747 219.090,237.482 218.872 C 237.217 218.655,236.190 218.037,235.200 217.499 C 234.210 216.961,232.230 215.834,230.800 214.996 C 228.362 213.567,225.863 212.121,222.453 210.167 C 221.654 209.709,220.100 208.763,219.000 208.066 C 217.900 207.368,216.190 206.412,215.200 205.942 C 214.210 205.471,213.310 204.966,213.200 204.819 C 212.998 204.550,210.893 203.322,206.725 201.044 C 205.473 200.360,203.808 199.230,203.025 198.534 L 201.600 197.268 201.600 121.901 C 201.600 80.449,201.720 46.413,201.867 46.267 C 202.404 45.729,204.719 46.021,205.646 46.743 M294.000 98.137 C 297.555 99.936,299.653 101.126,300.349 101.736 C 300.707 102.050,301.790 102.733,302.756 103.253 C 308.807 106.515,312.002 108.324,312.679 108.874 C 313.141 109.249,314.847 110.216,318.200 112.002 C 319.080 112.471,320.790 113.470,322.000 114.222 C 323.210 114.973,324.958 115.956,325.883 116.405 C 326.809 116.855,327.684 117.413,327.827 117.644 C 327.971 117.876,328.833 118.391,329.744 118.787 C 330.655 119.184,332.087 120.114,332.928 120.854 L 334.455 122.200 334.416 197.573 C 334.389 251.509,334.253 273.095,333.940 273.473 C 333.369 274.161,332.219 274.146,331.636 273.444 C 331.383 273.138,330.291 272.507,329.210 272.043 C 328.130 271.578,327.138 271.023,327.006 270.810 C 326.875 270.597,326.009 270.057,325.083 269.610 C 324.158 269.163,322.770 268.411,322.000 267.938 C 320.058 266.746,314.490 263.461,312.800 262.510 C 312.030 262.077,309.600 260.670,307.400 259.383 C 305.200 258.097,302.599 256.626,301.620 256.116 C 300.641 255.605,299.741 255.041,299.620 254.862 C 299.499 254.684,298.860 254.258,298.200 253.917 C 294.353 251.930,292.323 250.624,291.429 249.561 L 290.419 248.362 290.405 173.853 C 290.391 101.257,290.464 96.341,291.545 96.894 C 291.685 96.965,292.790 97.525,294.000 98.137 M198.126 209.667 C 199.267 210.144,200.533 210.819,200.941 211.167 C 201.348 211.515,202.543 212.250,203.597 212.800 C 206.033 214.072,208.804 215.668,211.600 217.409 C 212.810 218.162,214.545 219.129,215.456 219.556 C 216.367 219.984,217.229 220.524,217.373 220.756 C 217.516 220.987,218.391 221.550,219.317 222.005 C 220.242 222.460,221.836 223.320,222.859 223.916 C 223.881 224.512,225.591 225.502,226.659 226.115 C 227.726 226.728,229.230 227.610,230.000 228.076 C 231.256 228.835,233.916 230.405,239.526 233.701 C 240.557 234.306,242.120 235.166,243.000 235.611 C 243.880 236.057,245.590 237.043,246.800 237.803 C 248.010 238.563,249.630 239.476,250.400 239.832 C 251.170 240.188,252.070 240.713,252.400 240.999 C 252.730 241.285,253.630 241.875,254.400 242.310 C 255.743 243.068,260.095 245.551,262.876 247.146 C 263.604 247.563,265.280 248.552,266.600 249.343 C 267.920 250.134,269.776 251.144,270.724 251.587 C 273.147 252.719,273.089 254.868,270.600 256.193 C 269.720 256.662,268.190 257.509,267.200 258.076 C 266.210 258.644,263.420 260.221,261.000 261.582 C 258.581 262.943,256.331 264.276,256.000 264.544 C 255.670 264.812,254.770 265.338,254.000 265.713 C 253.230 266.088,251.520 267.077,250.200 267.910 C 248.880 268.743,247.215 269.666,246.500 269.961 C 245.785 270.256,245.200 270.636,245.200 270.805 C 245.200 270.975,244.525 271.412,243.700 271.778 C 242.875 272.144,241.081 273.109,239.714 273.922 C 234.993 276.730,230.997 278.999,230.208 279.320 C 229.773 279.497,229.132 279.899,228.785 280.214 C 228.121 280.814,225.699 282.236,223.000 283.608 C 222.120 284.055,220.410 285.040,219.200 285.797 C 217.990 286.554,216.370 287.487,215.600 287.871 C 214.830 288.254,213.930 288.782,213.600 289.044 C 212.999 289.520,211.536 290.383,207.800 292.464 C 202.304 295.525,201.222 296.142,199.000 297.477 C 194.547 300.153,193.406 300.801,191.717 301.613 C 190.791 302.058,189.912 302.618,189.765 302.857 C 189.617 303.095,188.665 303.656,187.648 304.102 C 186.632 304.548,185.710 305.044,185.600 305.203 C 185.490 305.362,184.622 305.922,183.670 306.446 C 182.719 306.971,181.099 307.889,180.070 308.486 C 179.042 309.083,177.210 310.126,176.000 310.805 C 174.790 311.483,172.810 312.657,171.600 313.413 C 170.390 314.169,168.680 315.153,167.800 315.598 C 166.920 316.043,165.210 317.036,164.000 317.804 C 162.790 318.573,160.945 319.585,159.900 320.054 C 158.855 320.523,158.000 321.054,158.000 321.235 C 158.000 321.415,157.235 321.940,156.300 322.401 C 154.433 323.322,152.446 324.446,147.720 327.252 C 141.951 330.678,141.573 330.721,137.752 328.400 C 136.303 327.520,135.002 326.792,134.859 326.783 C 134.717 326.774,133.340 325.961,131.800 324.978 C 130.260 323.994,128.255 322.846,127.344 322.428 C 126.433 322.009,125.571 321.476,125.427 321.244 C 125.284 321.013,124.409 320.449,123.483 319.991 C 122.558 319.534,120.900 318.636,119.800 317.995 C 118.700 317.354,116.990 316.365,116.000 315.798 C 115.010 315.231,113.030 314.059,111.600 313.195 C 108.758 311.477,102.529 307.907,99.972 306.531 C 99.084 306.053,98.106 305.454,97.800 305.200 C 97.494 304.946,96.512 304.347,95.620 303.869 C 91.647 301.743,86.322 298.660,80.400 295.059 C 78.750 294.056,76.500 292.780,75.400 292.223 C 74.300 291.667,72.500 290.672,71.400 290.014 C 70.300 289.356,68.695 288.434,67.833 287.966 C 63.887 285.824,63.386 284.568,65.927 283.190 C 66.737 282.751,67.670 282.221,68.000 282.013 C 70.996 280.124,78.224 276.000,78.539 276.000 C 78.758 276.000,79.244 275.722,79.619 275.382 C 79.995 275.043,81.041 274.368,81.944 273.882 C 83.393 273.104,87.054 271.019,93.122 267.516 C 94.155 266.920,95.758 266.060,96.683 265.605 C 97.609 265.150,98.461 264.625,98.576 264.439 C 98.691 264.253,99.733 263.622,100.892 263.038 C 102.052 262.453,104.080 261.328,105.400 260.539 C 107.796 259.106,109.799 257.968,113.200 256.110 C 114.190 255.570,115.284 254.874,115.631 254.564 C 115.979 254.254,116.400 254.000,116.568 254.000 C 116.735 254.000,118.640 252.920,120.800 251.600 C 122.960 250.280,124.819 249.200,124.931 249.200 C 125.194 249.200,133.895 244.135,135.208 243.217 C 135.762 242.829,136.662 242.376,137.208 242.210 C 137.753 242.044,138.560 241.586,139.000 241.192 C 139.440 240.799,140.514 240.182,141.386 239.823 C 142.258 239.463,143.068 239.020,143.186 238.838 C 143.304 238.656,144.120 238.118,145.000 237.642 C 145.880 237.166,147.500 236.269,148.600 235.649 C 149.700 235.029,151.500 234.027,152.600 233.422 C 153.700 232.818,154.817 232.145,155.082 231.928 C 155.347 231.710,156.157 231.217,156.882 230.831 C 157.607 230.446,159.370 229.449,160.800 228.615 C 162.230 227.782,164.120 226.695,165.000 226.201 C 165.880 225.706,167.644 224.693,168.920 223.950 C 173.274 221.416,175.000 220.433,176.600 219.575 C 178.725 218.437,181.289 216.960,184.643 214.941 C 186.159 214.029,188.210 212.844,189.200 212.308 C 190.190 211.772,191.990 210.775,193.200 210.093 C 195.874 208.585,195.595 208.609,198.126 209.667 M287.793 261.589 C 287.926 261.803,288.701 262.285,289.517 262.660 C 290.333 263.035,291.530 263.708,292.179 264.154 C 292.827 264.601,293.907 265.261,294.579 265.622 C 296.923 266.879,299.802 268.554,300.000 268.776 C 300.110 268.899,301.010 269.420,302.000 269.933 C 305.465 271.730,307.304 272.769,307.949 273.298 C 308.307 273.592,309.230 274.146,310.000 274.529 C 310.770 274.913,312.390 275.840,313.600 276.590 C 314.810 277.341,316.700 278.429,317.800 279.009 C 318.900 279.589,320.790 280.676,322.000 281.424 C 323.210 282.173,324.793 283.064,325.517 283.405 C 327.902 284.528,327.309 286.551,324.227 287.810 C 323.361 288.163,322.133 288.890,321.496 289.426 C 320.859 289.962,320.144 290.400,319.907 290.400 C 319.670 290.400,318.919 290.824,318.238 291.342 C 317.557 291.861,316.550 292.422,316.000 292.590 C 315.450 292.757,314.730 293.116,314.400 293.387 C 313.741 293.928,305.715 298.574,303.800 299.523 C 303.140 299.850,302.307 300.369,301.949 300.676 C 301.228 301.295,298.720 302.700,296.075 303.967 C 295.126 304.421,294.089 305.054,293.771 305.372 C 293.452 305.691,292.563 306.178,291.796 306.456 C 291.028 306.734,290.400 307.098,290.400 307.265 C 290.400 307.432,289.545 307.997,288.500 308.520 C 286.159 309.691,283.427 311.203,281.363 312.470 C 280.503 312.997,279.350 313.650,278.800 313.921 C 278.250 314.191,276.990 314.946,276.000 315.598 C 275.010 316.249,273.300 317.248,272.200 317.817 C 268.871 319.538,266.787 320.713,266.200 321.200 C 265.585 321.710,263.114 323.096,260.517 324.386 C 259.591 324.846,258.732 325.386,258.609 325.586 C 258.486 325.785,257.443 326.405,256.292 326.964 C 255.142 327.523,253.844 328.209,253.410 328.490 C 251.714 329.585,248.570 331.462,248.000 331.721 C 247.670 331.870,246.230 332.712,244.800 333.592 C 243.370 334.472,241.345 335.578,240.300 336.049 C 239.255 336.521,238.400 337.072,238.400 337.274 C 238.400 337.476,237.725 337.919,236.900 338.260 C 235.486 338.844,232.299 340.654,224.400 345.357 C 222.530 346.471,220.370 347.722,219.600 348.137 C 218.830 348.553,217.390 349.330,216.400 349.864 C 215.410 350.397,213.610 351.452,212.400 352.206 C 211.190 352.961,209.480 353.957,208.600 354.419 C 205.451 356.073,203.550 357.144,203.079 357.530 C 202.602 357.922,199.929 359.430,197.125 360.891 C 195.441 361.768,194.589 361.494,190.000 358.602 C 188.790 357.839,187.260 356.940,186.600 356.603 C 185.940 356.267,184.230 355.284,182.800 354.420 C 181.370 353.556,179.480 352.476,178.600 352.019 C 177.720 351.562,176.010 350.570,174.800 349.815 C 173.590 349.060,171.970 348.100,171.200 347.682 C 170.430 347.263,168.630 346.237,167.200 345.400 C 165.770 344.564,163.790 343.440,162.800 342.903 C 161.810 342.367,160.730 341.697,160.400 341.415 C 160.070 341.133,159.151 340.601,158.357 340.233 C 154.959 338.656,154.245 336.972,156.494 335.839 C 157.212 335.477,159.510 334.100,161.600 332.779 C 163.690 331.458,166.300 329.927,167.400 329.376 C 169.999 328.074,172.934 326.350,173.863 325.579 C 174.268 325.243,175.230 324.650,176.000 324.260 C 176.770 323.871,178.480 322.947,179.800 322.208 C 181.120 321.468,182.830 320.541,183.600 320.148 C 184.370 319.754,185.294 319.191,185.652 318.897 C 186.011 318.603,186.911 318.037,187.652 317.639 C 191.620 315.511,193.061 314.673,193.631 314.164 C 193.979 313.854,194.358 313.600,194.474 313.600 C 194.590 313.600,196.286 312.665,198.243 311.523 C 200.199 310.381,202.585 309.036,203.545 308.535 C 204.505 308.033,205.542 307.414,205.850 307.158 C 206.158 306.903,206.931 306.403,207.569 306.047 C 209.603 304.912,212.528 303.243,215.000 301.808 C 216.320 301.041,218.210 299.953,219.200 299.389 C 220.190 298.825,222.080 297.720,223.400 296.933 C 226.125 295.309,228.841 293.782,230.600 292.885 C 231.260 292.549,232.338 291.897,232.995 291.437 C 233.652 290.977,234.822 290.280,235.595 289.889 C 236.368 289.499,237.900 288.645,239.000 287.993 C 241.700 286.392,244.549 284.768,246.352 283.800 C 247.171 283.360,248.400 282.595,249.083 282.100 C 249.765 281.605,250.435 281.200,250.570 281.200 C 250.706 281.200,251.488 280.778,252.309 280.262 C 253.999 279.200,261.183 274.968,263.000 273.965 C 263.660 273.600,264.883 272.934,265.718 272.485 C 266.553 272.035,267.518 271.427,267.862 271.134 C 268.206 270.840,269.413 270.117,270.544 269.526 C 274.979 267.210,275.863 266.717,277.600 265.591 C 278.590 264.950,280.422 263.883,281.671 263.221 C 282.920 262.559,284.055 261.834,284.194 261.609 C 284.516 261.088,287.474 261.072,287.793 261.589 " stroke="none" fill="#ffffff" fill-rule="evenodd"></path></g></svg>