<svg id="svg" version="1.1" xmlns="http://www.w3.org/2000/svg" xmlns:xlink="http://www.w3.org/1999/xlink" width="400" height="400" viewBox="0, 0, 400,400"><g id="svgg"><path id="path0" d="M129.800 61.438 C 85.058 67.394,51.623 100.005,45.833 143.335 C 44.765 151.328,44.896 229.706,45.991 237.424 C 51.964 279.551,84.123 311.641,127.000 318.259 C 131.479 318.950,135.109 319.000,181.200 319.000 L 230.600 319.000 231.906 318.068 C 234.847 315.970,234.577 323.934,234.800 232.800 L 235.000 151.000 236.274 148.400 C 244.011 132.611,266.746 135.226,270.353 152.320 C 271.066 155.701,270.964 225.947,270.242 228.660 C 268.172 236.435,260.586 242.400,252.768 242.400 C 247.256 242.400,244.769 248.564,248.598 252.735 L 249.943 254.200 254.672 254.167 C 267.251 254.079,278.627 244.911,281.995 232.146 C 283.244 227.413,283.258 153.101,282.011 148.340 C 274.815 120.864,237.454 117.325,225.219 142.960 C 222.200 149.286,222.406 142.991,222.403 229.086 C 222.400 304.690,222.387 305.979,221.626 306.386 C 220.582 306.945,138.731 306.946,132.400 306.387 C 110.768 304.478,90.938 294.086,76.707 277.200 C 74.053 274.050,68.800 266.738,68.800 266.193 C 68.800 266.110,68.165 264.960,67.390 263.636 C 63.374 256.784,59.704 245.783,58.105 235.800 C 57.016 229.002,57.032 150.838,58.124 144.200 C 64.759 103.856,95.969 75.625,136.400 73.395 C 147.534 72.781,157.321 74.467,171.099 79.372 C 180.225 82.621,184.498 72.015,175.647 68.084 C 170.427 65.766,163.958 63.869,156.000 62.323 C 151.989 61.544,133.655 60.924,129.800 61.438 M238.800 61.971 C 198.514 68.432,167.678 97.973,159.643 137.806 C 158.109 145.407,158.000 149.246,158.000 195.443 C 158.000 223.652,157.855 240.729,157.610 241.374 L 157.220 242.400 147.735 242.400 C 132.634 242.400,127.467 240.119,123.474 231.689 L 122.200 229.000 122.200 189.963 L 122.200 150.926 123.749 147.875 C 127.004 141.461,134.510 137.006,140.832 137.735 C 147.210 138.470,151.134 132.510,147.285 127.936 C 145.735 126.094,143.982 125.524,139.924 125.543 C 126.522 125.607,115.258 133.776,110.890 146.600 L 109.800 149.800 109.800 189.800 L 109.800 229.800 110.739 232.790 C 114.145 243.637,122.270 251.335,132.904 253.789 C 135.965 254.496,164.740 254.747,166.425 254.082 C 166.988 253.859,168.013 253.035,168.701 252.251 L 169.953 250.826 170.113 199.713 C 170.285 144.807,170.232 146.294,172.365 137.154 C 185.340 81.568,249.902 55.560,297.600 86.706 C 317.378 99.621,329.153 117.698,334.269 143.000 C 335.098 147.104,335.572 225.126,334.813 232.600 C 330.708 273.003,297.654 304.439,257.000 306.606 C 248.261 307.072,244.884 309.911,247.129 314.905 C 248.837 318.702,250.417 319.242,258.483 318.781 C 304.324 316.164,340.974 281.528,346.810 235.307 C 347.868 226.926,348.015 156.223,346.994 146.721 C 342.349 103.504,311.790 70.500,268.839 62.314 C 262.577 61.120,245.332 60.923,238.800 61.971 M133.108 93.622 C 106.188 96.014,83.337 117.447,78.115 145.200 C 77.020 151.019,77.020 228.983,78.115 234.800 C 82.784 259.601,100.272 278.570,124.200 284.789 C 131.554 286.700,133.628 286.798,166.746 286.799 L 197.691 286.800 199.285 285.904 C 202.460 284.120,202.174 290.542,202.418 215.600 C 202.634 149.561,202.649 148.554,203.463 145.400 C 206.276 134.503,210.122 127.500,217.200 120.390 C 245.041 92.425,291.932 105.856,301.725 144.600 C 302.611 148.107,303.421 218.647,302.688 228.512 C 300.812 253.765,280.944 272.668,254.215 274.630 C 248.892 275.020,246.800 276.795,246.800 280.921 C 246.800 285.372,249.460 286.953,256.400 286.626 C 284.627 285.299,308.184 264.693,314.278 236.000 C 315.374 230.838,315.389 149.675,314.295 144.400 C 307.758 112.896,280.477 91.569,249.057 93.399 C 222.260 94.960,199.715 113.203,192.366 139.273 C 190.139 147.170,190.233 144.164,190.101 211.714 L 189.978 274.028 188.963 274.414 C 187.189 275.088,139.782 274.910,134.466 274.209 C 112.933 271.369,96.689 257.268,91.086 236.551 L 89.801 231.800 89.800 190.200 L 89.800 148.600 90.723 145.000 C 97.591 118.202,121.771 101.845,148.000 106.253 C 154.349 107.320,155.139 107.349,156.845 106.580 C 160.945 104.731,161.173 98.169,157.218 95.889 C 153.812 93.926,142.090 92.824,133.108 93.622 " stroke="none" fill="#ffffff" fill-rule="evenodd"></path></g></svg>