<svg id="svg" version="1.1" xmlns="http://www.w3.org/2000/svg" xmlns:xlink="http://www.w3.org/1999/xlink" width="400" height="400" viewBox="0, 0, 400,400"><g id="svgg"><path id="path1" d="M143.385 57.254 C 142.513 57.724,139.640 59.219,137.000 60.578 C 134.360 61.937,131.164 63.667,129.898 64.424 C 128.632 65.181,124.762 67.478,121.298 69.529 C 117.834 71.580,113.961 74.069,112.692 75.062 C 111.422 76.054,109.352 77.273,108.092 77.771 C 105.722 78.706,99.714 81.982,97.119 83.754 C 94.061 85.842,94.218 84.281,94.130 113.484 C 94.038 144.562,94.472 142.333,87.854 145.674 C 84.094 147.572,74.643 153.005,72.093 154.735 C 70.832 155.591,68.630 156.876,67.200 157.592 C 65.770 158.308,61.360 160.832,57.400 163.201 C 53.440 165.570,49.345 167.987,48.299 168.572 C 47.006 169.295,46.117 170.172,45.515 171.317 L 44.632 173.000 44.639 197.600 C 44.650 231.290,44.643 231.227,49.101 233.800 C 50.245 234.460,53.930 236.691,57.291 238.757 C 69.661 246.363,81.506 253.154,88.600 256.707 C 94.361 259.592,94.159 259.238,94.242 266.632 C 94.280 270.030,94.535 274.570,94.810 276.722 C 95.244 280.134,95.225 280.968,94.654 283.243 C 93.855 286.428,93.691 310.119,94.443 313.627 C 95.185 317.084,100.150 321.107,106.525 323.415 C 107.805 323.878,110.105 325.235,111.637 326.429 C 113.169 327.623,115.902 329.429,117.711 330.443 C 119.520 331.457,123.520 333.773,126.600 335.590 C 129.680 337.407,133.370 339.425,134.800 340.075 C 136.230 340.724,138.301 341.936,139.402 342.767 C 145.200 347.143,146.349 346.970,159.316 339.755 C 173.739 331.730,180.522 327.511,181.893 325.714 C 183.155 324.059,183.896 323.647,186.845 322.959 C 188.112 322.663,190.345 321.787,191.807 321.011 C 194.567 319.547,196.557 319.243,198.126 320.048 C 198.607 320.294,201.520 321.975,204.600 323.782 C 207.680 325.589,212.360 328.335,215.000 329.884 C 217.640 331.433,220.790 333.198,222.000 333.806 C 223.210 334.414,225.190 335.581,226.400 336.401 C 227.610 337.220,229.755 338.473,231.167 339.185 C 232.580 339.897,235.571 341.639,237.816 343.057 C 244.662 347.380,246.702 346.829,264.000 335.986 C 265.650 334.951,268.516 333.344,270.368 332.414 C 273.380 330.901,276.770 328.672,281.324 325.210 C 282.162 324.573,284.129 323.562,285.696 322.963 C 291.319 320.815,295.185 318.237,296.739 315.600 L 297.800 313.800 298.000 287.800 C 298.242 256.352,297.141 259.669,309.580 252.923 C 311.461 251.903,314.350 250.160,316.000 249.050 C 317.650 247.941,321.070 245.973,323.600 244.679 C 335.928 238.370,344.524 232.372,346.049 229.014 C 346.909 227.121,347.214 175.708,346.384 172.717 C 345.707 170.282,338.371 165.205,328.000 159.995 C 327.010 159.497,325.480 158.599,324.600 157.998 C 323.720 157.397,321.650 156.229,320.000 155.403 C 318.350 154.576,315.380 152.873,313.400 151.617 C 311.420 150.362,308.008 148.284,305.818 147.000 C 301.163 144.271,298.593 142.041,298.059 140.268 C 297.125 137.167,296.713 131.843,297.201 129.200 C 297.605 127.011,297.731 116.201,297.492 104.200 C 297.474 103.320,297.609 99.593,297.791 95.918 C 298.269 86.274,297.547 84.857,290.411 81.431 C 286.890 79.740,281.379 76.583,275.800 73.059 C 274.040 71.948,270.890 70.146,268.800 69.055 C 266.710 67.963,264.460 66.672,263.800 66.185 C 258.177 62.038,247.467 56.646,244.853 56.647 C 241.969 56.648,238.986 58.233,213.489 73.310 C 203.024 79.499,197.759 82.122,195.800 82.122 C 193.527 82.122,187.124 78.841,178.800 73.411 C 177.370 72.478,175.163 71.248,173.896 70.677 C 172.628 70.107,169.748 68.491,167.496 67.086 C 151.314 56.995,147.073 55.266,143.385 57.254 M251.071 66.450 C 253.672 67.797,258.050 70.290,260.800 71.990 C 268.213 76.572,271.196 78.269,273.200 79.042 C 274.190 79.424,275.720 80.217,276.600 80.804 C 277.480 81.391,279.336 82.472,280.725 83.205 C 286.710 86.365,286.342 88.085,278.800 92.220 C 276.490 93.487,273.880 95.004,273.000 95.591 C 272.120 96.179,269.960 97.424,268.200 98.360 C 266.440 99.295,263.740 101.017,262.200 102.185 C 260.660 103.354,256.970 105.524,254.000 107.008 C 241.100 113.453,239.762 116.162,247.128 120.925 C 251.870 123.992,264.713 131.372,269.200 133.610 C 271.428 134.721,274.473 136.572,282.116 141.463 C 286.172 144.058,285.080 145.691,275.800 150.904 C 261.143 159.137,256.927 161.586,253.505 163.855 C 245.576 169.111,244.449 168.999,232.800 161.807 C 230.710 160.516,227.380 158.621,225.400 157.595 C 223.420 156.570,219.730 154.370,217.200 152.708 C 212.924 149.899,207.124 146.579,200.741 143.286 C 196.485 141.091,193.750 141.060,190.400 143.169 C 188.970 144.069,186.569 145.479,185.065 146.302 C 183.561 147.126,180.051 149.162,177.265 150.828 C 174.479 152.493,170.310 154.899,168.000 156.174 C 165.690 157.450,162.990 159.076,162.000 159.789 C 161.010 160.501,157.511 162.460,154.225 164.142 C 146.087 168.306,144.525 168.315,139.200 164.223 C 136.578 162.208,133.249 160.181,124.400 155.213 C 108.069 146.043,106.556 144.951,107.571 143.055 C 107.987 142.277,116.818 136.786,121.189 134.586 C 121.953 134.202,125.193 132.352,128.389 130.476 C 131.585 128.600,136.270 125.905,138.800 124.487 C 148.514 119.041,150.082 117.239,148.228 113.654 C 147.137 111.544,136.208 105.403,131.499 104.253 C 130.894 104.105,129.230 102.925,127.801 101.630 C 126.002 100.000,124.276 98.890,122.189 98.021 C 117.845 96.213,107.966 89.831,107.149 88.306 C 106.199 86.529,110.401 82.900,117.038 79.769 C 121.365 77.727,128.236 73.912,134.543 70.052 C 144.284 64.089,146.252 63.507,150.113 65.450 C 152.983 66.894,162.124 72.007,167.200 75.007 C 169.510 76.373,172.840 78.267,174.600 79.216 C 176.360 80.166,178.520 81.422,179.400 82.006 C 193.189 91.166,196.671 91.671,205.708 85.824 C 208.178 84.225,212.315 81.722,214.901 80.263 C 217.486 78.803,221.414 76.392,223.630 74.904 C 228.703 71.499,231.878 69.682,235.292 68.231 C 236.770 67.603,239.108 66.394,240.489 65.545 C 244.114 63.315,245.198 63.408,251.071 66.450 M289.656 95.964 L 290.600 96.728 290.838 115.264 C 291.005 128.323,290.946 134.093,290.637 134.791 C 290.019 136.186,288.416 136.673,286.956 135.910 C 278.778 131.631,273.752 128.801,269.600 126.136 C 266.850 124.371,262.998 122.058,261.039 120.998 C 251.740 115.961,252.573 113.747,266.173 107.360 C 268.763 106.144,271.533 104.597,283.600 97.628 C 288.301 94.913,288.343 94.902,289.656 95.964 M108.094 97.553 C 110.132 98.627,113.693 100.657,116.007 102.065 C 118.321 103.473,121.562 105.117,123.209 105.717 C 125.427 106.526,127.516 107.793,131.275 110.608 C 136.478 114.503,137.198 115.373,136.349 116.732 C 135.625 117.893,124.701 124.792,117.400 128.700 C 114.760 130.113,111.790 131.783,110.800 132.411 C 107.076 134.771,103.627 136.141,102.593 135.670 C 101.193 135.032,101.150 134.354,101.281 114.864 L 101.400 97.129 102.344 96.364 C 103.660 95.300,103.921 95.354,108.094 97.553 M290.224 152.168 C 290.979 152.720,290.997 153.375,290.904 176.068 C 290.801 200.777,290.839 201.343,292.683 202.794 C 294.758 204.426,298.245 203.274,304.889 198.761 C 306.831 197.442,309.237 196.013,310.235 195.585 C 311.233 195.157,313.703 193.842,315.725 192.662 C 317.746 191.482,322.280 188.835,325.800 186.780 C 336.842 180.332,337.842 179.946,338.950 181.700 C 340.042 183.427,340.400 221.360,339.372 226.444 C 338.985 228.359,335.467 230.821,328.600 233.982 C 326.620 234.894,323.337 236.906,321.304 238.453 C 318.872 240.305,316.567 241.668,314.562 242.440 C 311.490 243.623,304.759 247.181,301.800 249.187 C 300.920 249.784,299.067 250.870,297.682 251.601 C 291.418 254.908,290.396 256.823,291.195 263.760 C 291.505 266.445,291.578 268.617,291.374 269.056 C 291.184 269.465,290.932 278.890,290.814 290.000 C 290.560 313.957,290.924 312.174,285.627 315.425 C 283.813 316.538,281.284 318.295,280.008 319.328 C 277.767 321.142,276.284 321.922,272.348 323.355 C 271.329 323.726,267.909 325.575,264.748 327.463 C 255.149 333.196,250.694 335.385,249.704 334.856 C 247.954 333.919,247.870 332.702,247.933 309.075 C 247.997 284.742,248.005 284.838,245.753 283.982 C 244.044 283.333,238.540 285.140,235.173 287.456 C 234.072 288.213,231.063 289.930,228.486 291.271 C 222.164 294.562,217.996 296.966,208.800 302.629 C 206.930 303.781,204.542 305.137,203.494 305.644 L 201.588 306.565 200.777 305.755 C 199.742 304.720,199.181 263.776,200.169 261.411 C 200.870 259.734,203.599 257.412,207.652 255.043 C 209.493 253.967,213.970 251.329,217.600 249.180 C 223.886 245.460,225.595 244.473,233.000 240.286 C 241.858 235.277,243.810 234.094,245.253 232.860 C 248.211 230.332,248.046 232.149,247.977 202.803 C 247.916 176.601,247.920 176.435,248.757 175.261 C 249.646 174.011,252.602 171.910,255.600 170.396 C 256.590 169.896,261.000 167.416,265.400 164.884 C 269.800 162.353,275.290 159.194,277.600 157.866 C 279.910 156.537,283.128 154.584,284.751 153.525 C 287.851 151.503,288.944 151.232,290.224 152.168 M208.289 155.443 C 210.880 156.931,214.800 159.082,217.000 160.223 C 224.644 164.187,227.411 165.749,229.400 167.223 C 230.500 168.039,232.732 169.453,234.359 170.366 C 241.682 174.475,243.073 177.970,242.010 189.600 C 241.800 191.910,241.621 199.417,241.613 206.281 C 241.604 214.941,241.457 219.077,241.131 219.791 C 239.949 222.386,236.641 221.315,226.600 215.087 C 215.743 208.352,212.698 206.532,208.496 204.263 C 198.457 198.843,199.303 201.388,199.054 175.885 C 198.787 148.634,198.302 149.708,208.289 155.443 M303.119 153.233 C 304.691 154.389,309.345 157.035,319.200 162.374 C 333.396 170.064,335.977 173.077,330.783 175.894 C 329.661 176.502,325.381 178.950,321.272 181.333 C 300.006 193.665,300.316 193.516,298.907 192.107 C 297.511 190.711,297.206 155.072,298.572 152.987 C 299.463 151.627,301.052 151.713,303.119 153.233 M92.624 153.368 C 93.685 154.143,94.058 188.129,93.032 190.584 C 92.219 192.530,90.595 192.517,87.376 190.540 C 86.069 189.737,83.830 188.413,82.400 187.598 C 80.970 186.783,78.450 185.344,76.800 184.401 C 75.150 183.458,71.385 181.349,68.432 179.716 C 57.158 173.477,56.294 172.014,61.974 168.788 C 63.318 168.025,66.619 166.126,69.309 164.568 C 91.099 151.953,90.851 152.072,92.624 153.368 M191.344 153.700 C 192.119 154.942,192.623 196.920,191.879 198.266 C 191.151 199.583,189.963 200.385,182.800 204.393 C 179.170 206.424,176.020 208.224,175.800 208.393 C 175.580 208.562,172.902 210.092,169.849 211.792 C 166.796 213.493,162.807 215.856,160.985 217.044 C 155.059 220.907,151.939 221.972,150.749 220.539 C 150.151 219.819,149.680 182.056,150.214 177.627 C 150.595 174.463,151.550 173.698,163.400 167.066 C 165.380 165.958,169.070 163.789,171.600 162.247 C 185.650 153.681,190.123 151.745,191.344 153.700 M106.913 154.252 C 109.202 155.405,114.416 158.404,120.571 162.108 C 122.755 163.422,126.550 165.441,129.005 166.594 C 134.227 169.047,137.319 170.956,139.842 173.282 C 143.130 176.312,142.908 174.252,143.090 203.395 C 143.267 231.730,143.202 230.964,145.570 232.714 C 146.645 233.509,153.502 237.546,163.400 243.212 C 165.820 244.597,170.525 247.322,173.857 249.268 C 177.188 251.214,180.968 253.271,182.257 253.841 C 191.409 257.883,192.994 261.870,191.942 278.200 C 191.801 280.400,191.666 286.937,191.642 292.726 C 191.578 308.785,192.330 308.693,170.400 295.319 C 167.870 293.777,164.990 292.107,164.000 291.608 C 163.010 291.110,159.373 289.083,155.917 287.104 C 148.380 282.787,146.758 282.380,144.819 284.319 C 144.149 284.990,143.580 285.957,143.555 286.469 C 143.530 286.981,143.441 288.570,143.358 290.000 C 143.275 291.430,143.070 301.708,142.903 312.839 C 142.576 334.676,142.606 334.409,140.451 334.391 C 139.000 334.379,137.146 333.475,130.200 329.393 C 126.900 327.454,121.911 324.642,119.114 323.144 C 116.317 321.647,112.597 319.472,110.847 318.311 C 109.096 317.150,106.583 315.541,105.261 314.735 C 101.340 312.345,101.448 312.817,101.098 296.600 C 100.932 288.900,100.805 281.700,100.815 280.600 C 101.041 256.282,101.036 256.240,97.800 254.269 C 97.140 253.867,93.796 251.765,90.369 249.599 C 86.942 247.432,82.109 244.552,79.629 243.198 C 77.148 241.844,73.292 239.610,71.059 238.233 C 68.827 236.856,64.046 234.126,60.434 232.165 C 56.823 230.204,53.289 228.058,52.579 227.395 L 51.289 226.190 51.207 216.995 C 51.162 211.938,51.112 206.270,51.096 204.400 C 51.006 193.828,51.321 183.210,51.750 182.345 C 52.983 179.857,54.941 180.677,70.983 190.394 C 74.714 192.654,81.644 196.549,86.383 199.049 C 101.629 207.093,101.349 207.519,101.449 176.078 C 101.529 150.713,101.345 151.445,106.913 154.252 M201.021 208.222 C 202.921 209.224,206.843 211.451,209.738 213.171 C 212.632 214.891,217.250 217.508,220.000 218.987 C 222.750 220.466,225.180 221.818,225.400 221.992 C 225.620 222.166,227.510 223.248,229.600 224.397 C 236.972 228.448,236.969 230.483,229.587 234.357 C 228.164 235.104,226.154 236.312,225.120 237.042 C 224.086 237.772,221.926 239.026,220.320 239.828 C 218.714 240.630,215.960 242.144,214.200 243.192 C 197.056 253.401,195.474 253.873,189.812 250.468 C 188.045 249.406,184.170 247.127,181.200 245.404 C 178.230 243.680,173.550 240.889,170.800 239.200 C 168.050 237.511,163.895 235.112,161.566 233.869 C 154.291 229.985,154.635 228.387,163.800 223.501 C 166.440 222.094,171.300 219.314,174.600 217.325 C 177.900 215.336,181.756 213.125,183.170 212.413 C 184.583 211.701,187.166 210.224,188.909 209.132 C 194.498 205.629,195.903 205.523,201.021 208.222 M158.200 297.415 C 165.883 301.874,167.784 302.916,170.310 304.050 C 171.710 304.677,174.688 306.408,176.929 307.896 C 179.170 309.383,181.840 311.120,182.864 311.756 C 187.078 314.374,185.711 318.320,179.937 320.211 C 177.024 321.165,174.864 322.284,168.039 326.377 C 158.853 331.886,153.412 334.800,152.312 334.800 C 150.194 334.800,150.209 334.935,150.085 314.936 L 149.970 296.394 150.949 295.415 C 152.207 294.157,152.932 294.357,158.200 297.415 M240.685 296.400 C 241.381 297.784,241.424 331.470,240.731 332.991 C 239.648 335.368,236.874 334.421,226.215 328.038 C 220.322 324.509,215.163 321.521,210.794 319.106 C 204.081 315.397,204.336 313.649,212.162 309.718 C 214.161 308.715,217.417 306.870,219.398 305.619 C 234.802 295.893,239.422 293.892,240.685 296.400 " stroke="none" fill="#ffffff" fill-rule="evenodd"></path></g></svg>