<svg id="svg" version="1.1" xmlns="http://www.w3.org/2000/svg" xmlns:xlink="http://www.w3.org/1999/xlink" width="400" height="392.8712871287129" viewBox="0, 0, 400,392.8712871287129"><g id="svgg"><path id="path0" d="M11.128 6.667 C 9.446 7.420,7.818 9.240,7.071 11.200 C 6.738 12.075,6.610 59.711,6.573 196.660 L 6.523 380.943 7.370 382.564 C 8.430 384.591,10.205 386.109,12.121 386.624 C 13.109 386.891,75.627 386.991,201.200 386.929 L 388.802 386.837 390.659 385.922 C 392.875 384.831,394.321 383.220,394.875 381.226 C 395.690 378.288,395.417 116.551,394.597 115.575 L 393.910 114.756 389.854 115.800 C 386.041 116.782,385.652 116.813,383.370 116.320 C 379.219 115.422,378.996 115.418,378.017 116.210 L 377.086 116.964 377.132 242.123 C 377.169 343.291,377.081 367.413,376.674 367.970 C 375.938 368.977,26.705 369.195,25.462 368.189 C 24.666 367.544,24.247 25.478,25.041 24.715 C 25.618 24.161,375.883 23.904,376.331 24.457 C 376.591 24.778,376.831 37.466,377.016 60.704 C 377.174 80.369,377.450 96.846,377.630 97.321 C 378.935 100.753,393.286 101.010,394.827 97.628 C 395.167 96.883,395.285 85.552,395.285 53.768 L 395.285 10.912 394.405 9.347 C 393.911 8.469,392.814 7.365,391.905 6.832 L 390.285 5.882 201.503 5.918 C 20.038 5.953,12.659 5.982,11.128 6.667 M298.397 36.746 C 297.249 37.250,293.572 41.136,291.356 44.189 C 290.707 45.083,289.407 46.601,288.465 47.563 C 287.524 48.525,286.089 50.196,285.276 51.277 C 284.463 52.358,283.401 53.595,282.916 54.028 C 281.910 54.923,278.893 58.810,278.204 60.097 C 277.692 61.054,278.027 67.663,278.649 68.861 C 278.968 69.475,279.785 69.554,286.360 69.599 C 290.404 69.628,295.039 69.760,296.660 69.894 L 299.607 70.138 299.804 73.754 C 300.044 78.173,300.046 78.175,304.105 78.252 C 307.893 78.324,308.428 77.959,308.477 75.269 C 308.493 74.392,308.626 72.878,308.772 71.906 L 309.037 70.138 311.097 69.886 C 314.457 69.476,314.342 69.631,314.342 65.513 C 314.342 61.155,314.168 60.904,311.148 60.904 C 307.618 60.904,307.756 61.418,307.972 49.033 C 308.189 36.636,308.327 37.142,304.617 36.757 C 303.374 36.629,301.725 36.460,300.952 36.383 C 300.178 36.305,299.029 36.469,298.397 36.746 M340.564 37.756 C 330.075 40.227,321.466 55.790,325.080 65.746 C 330.360 80.292,346.111 81.728,352.833 68.276 C 356.977 59.984,347.032 49.922,337.340 52.599 C 332.876 53.832,336.217 49.587,342.633 45.876 C 345.378 44.288,348.134 41.762,348.134 40.834 C 348.134 39.628,343.792 37.075,342.240 37.370 C 342.132 37.390,341.377 37.564,340.564 37.756 M299.322 56.106 C 299.567 61.186,299.442 61.297,293.417 61.297 C 288.091 61.297,287.861 60.993,290.818 57.864 C 298.366 49.880,299.016 49.746,299.322 56.106 M341.583 60.261 C 344.452 61.460,345.687 64.310,344.409 66.782 C 342.312 70.838,336.841 70.388,334.558 65.973 C 332.591 62.171,337.195 58.428,341.583 60.261 M280.354 93.909 C 245.297 96.189,220.735 116.652,212.437 150.491 C 210.122 159.932,209.071 184.653,210.533 195.285 C 214.252 222.335,226.095 240.930,246.417 251.627 C 263.858 260.808,287.880 260.790,303.840 251.584 C 346.057 227.234,341.634 164.927,296.887 153.626 C 273.400 147.694,252.140 153.687,241.626 169.203 C 238.623 173.634,236.935 173.528,236.935 168.908 C 236.935 153.865,245.273 135.953,255.992 127.970 C 270.536 117.139,288.638 116.628,312.277 126.382 C 315.609 127.757,316.278 127.524,317.770 124.463 C 319.287 121.351,322.593 113.629,322.593 113.196 C 322.593 113.017,323.459 111.545,324.517 109.924 C 328.066 104.487,328.060 104.313,324.234 102.405 C 310.291 95.453,296.794 92.840,280.354 93.909 M73.980 94.708 C 72.493 95.298,72.493 95.311,72.583 175.042 C 72.679 258.838,72.559 254.493,74.810 255.704 C 76.809 256.780,179.234 257.005,180.415 255.937 C 181.375 255.068,181.431 232.747,180.476 231.792 C 180.122 231.439,170.194 231.314,139.496 231.277 C 106.883 231.238,98.922 231.129,98.670 230.721 C 97.936 229.534,97.515 188.939,98.224 187.819 C 98.552 187.302,103.002 187.230,134.382 187.230 C 165.762 187.230,170.212 187.157,170.538 186.640 C 171.301 185.434,171.018 162.745,170.236 162.369 C 169.858 162.188,153.635 162.071,134.185 162.110 C 111.134 162.157,98.650 162.045,98.330 161.789 C 97.540 161.158,97.623 121.297,98.416 120.639 C 98.860 120.271,108.053 120.146,138.312 120.100 C 169.732 120.051,177.694 119.939,177.942 119.538 C 178.623 118.435,178.167 95.400,177.454 94.878 C 176.663 94.299,75.429 94.133,73.980 94.708 M287.725 177.108 C 319.299 188.027,309.068 233.260,275.049 233.155 C 252.481 233.085,237.799 216.827,243.688 198.428 C 249.110 181.486,270.476 171.142,287.725 177.108 M132.383 278.952 C 126.176 280.886,125.827 289.628,131.886 291.390 C 138.457 293.300,143.930 288.062,141.159 282.515 C 139.971 280.138,135.024 278.129,132.383 278.952 M254.430 284.180 C 248.476 286.340,239.203 295.173,236.507 301.253 C 235.854 302.725,234.817 304.990,234.203 306.287 C 230.479 314.147,231.351 326.962,236.106 334.242 C 246.977 350.888,272.171 346.407,276.092 327.130 C 278.714 314.239,265.105 303.498,250.343 306.809 C 245.328 307.933,246.308 305.851,254.991 296.929 C 263.645 288.039,263.925 287.571,261.788 285.589 C 259.885 283.824,256.956 283.263,254.430 284.180 M309.604 284.440 C 306.287 285.509,297.364 293.625,292.964 299.574 C 275.686 322.937,295.633 354.160,320.028 341.938 C 327.545 338.172,332.337 326.725,329.871 318.423 C 327.386 310.054,315.494 304.272,305.676 306.658 C 302.606 307.404,301.648 307.285,302.028 306.203 C 302.511 304.830,306.465 299.933,310.744 295.409 C 317.353 288.420,318.443 286.183,315.783 285.071 C 314.074 284.357,310.875 284.030,309.604 284.440 M74.046 285.146 C 73.128 286.063,73.523 342.585,74.452 343.265 C 75.835 344.277,112.923 344.052,113.949 343.026 C 115.161 341.813,114.820 334.388,113.514 333.561 C 113.213 333.370,106.866 333.209,99.411 333.202 C 91.586 333.195,85.605 333.033,85.265 332.818 C 84.353 332.243,84.169 320.965,85.049 319.621 L 85.676 318.664 98.193 318.664 C 113.059 318.664,111.830 319.144,111.694 313.392 C 111.565 307.939,112.745 308.352,97.728 308.512 C 86.957 308.626,85.188 308.563,84.866 308.055 C 84.273 307.121,84.375 296.450,84.982 295.947 C 85.307 295.676,90.204 295.487,98.917 295.407 C 114.690 295.264,113.653 295.572,113.887 290.953 C 114.100 286.716,113.768 285.334,112.458 285.004 C 110.442 284.497,74.564 284.629,74.046 285.146 M201.304 286.280 C 200.479 287.270,198.995 289.005,198.007 290.136 C 197.019 291.266,195.143 293.612,193.837 295.348 C 191.603 298.319,190.665 299.680,185.480 307.466 C 184.329 309.194,182.642 311.493,181.731 312.574 C 180.001 314.626,176.454 319.886,175.923 321.187 C 175.420 322.416,176.062 330.820,176.708 331.466 C 177.168 331.925,179.546 332.024,190.157 332.024 C 205.563 332.024,204.126 331.393,204.126 338.155 C 204.126 344.081,203.963 343.889,209.170 344.121 C 214.726 344.368,214.743 344.350,215.125 337.865 C 215.469 332.018,215.465 332.024,218.881 332.024 C 222.684 332.024,222.790 331.863,222.790 326.115 C 222.790 320.557,222.851 320.629,218.124 320.629 C 216.038 320.629,214.870 320.463,214.660 320.138 C 214.485 319.867,214.395 312.132,214.460 302.947 C 214.534 292.514,214.434 286.035,214.194 285.682 C 213.763 285.046,210.028 284.531,205.627 284.500 L 202.805 284.479 201.304 286.280 M128.566 301.454 C 127.760 302.260,127.900 342.775,128.712 343.587 C 129.584 344.459,138.752 344.492,139.618 343.626 C 140.582 342.662,141.530 303.379,140.630 301.697 C 140.157 300.813,129.423 300.597,128.566 301.454 M202.819 305.010 C 203.140 305.588,203.364 308.331,203.468 312.939 C 203.665 321.684,204.258 321.022,196.234 321.022 C 189.485 321.022,188.943 320.776,190.640 318.489 C 191.130 317.829,193.278 314.725,195.415 311.591 C 199.855 305.079,200.648 304.126,201.626 304.126 C 202.013 304.126,202.550 304.524,202.819 305.010 M259.781 317.759 C 265.279 320.849,265.927 326.194,261.369 330.852 C 256.099 336.237,248.077 334.466,244.773 327.187 C 241.367 319.685,251.681 313.206,259.781 317.759 M313.097 316.913 C 323.700 320.061,320.066 333.990,308.644 333.982 C 300.769 333.977,295.065 323.924,300.257 319.201 C 303.188 316.535,308.586 315.573,313.097 316.913 " stroke="none" fill="#ffffff" fill-rule="evenodd"></path></g></svg>